M48
;Layer_Color=9474304
;FILE_FORMAT=4:4
METRIC,LZ
;TYPE=PLATED
T01F00S00C0.3000
T02F00S00C0.7500
T03F00S00C0.9500
T04F00S00C1.0200
%
T01
X0012485Y0006015
X00125Y00085
X00181125Y00045
X00215Y00095
X0025Y001
X00301831Y00155
X00365Y0013
X00425
X0044Y00075
X0038Y0007
X0039Y0004
X0038Y00005
X0042
X0049Y00012905
X0054Y00005
Y0006
X0034Y0005
T02
X000396Y0006015
X00065Y0008555
X000904Y0006015
T03
X00025Y001773
Y002027
X00085
Y001773
X00145
Y002027
X00205
Y001773
X00265
Y002027
X00325
Y001773
X00385
Y002027
X00445
Y001773
X0051
Y002027
X00575
Y001773
T04
X0057Y000323
Y000577
M30
