G04*
G04 #@! TF.GenerationSoftware,Altium Limited,Altium Designer,24.1.2 (44)*
G04*
G04 Layer_Physical_Order=2*
G04 Layer_Color=16711680*
%FSLAX44Y44*%
%MOMM*%
G71*
G04*
G04 #@! TF.SameCoordinates,D1532E8E-0FCC-4109-960E-C101D303889C*
G04*
G04*
G04 #@! TF.FilePolarity,Positive*
G04*
G01*
G75*
%ADD24C,1.2500*%
%ADD25R,1.2500X1.2500*%
%ADD26C,1.4500*%
%ADD27R,1.4500X1.4500*%
%ADD28C,1.5700*%
%ADD29R,1.5700X1.5700*%
%ADD30C,0.3810*%
%ADD31C,0.6000*%
G36*
X524999Y42929D02*
Y15000D01*
X525380Y13086D01*
X526464Y11464D01*
X534000Y3927D01*
Y3807D01*
X534913Y1601D01*
X535341Y1173D01*
X534855Y0D01*
X425145D01*
X424659Y1173D01*
X425087Y1601D01*
X426000Y3807D01*
Y3927D01*
X429977Y7904D01*
X486516D01*
X486601Y7818D01*
X488806Y6905D01*
X491194D01*
X493399Y7818D01*
X495087Y9506D01*
X496000Y11711D01*
Y14098D01*
X495087Y16304D01*
X493399Y17991D01*
X491194Y18905D01*
X488806D01*
X486601Y17991D01*
X486516Y17906D01*
X427905D01*
X425991Y17525D01*
X424369Y16441D01*
X418927Y11000D01*
X418806D01*
X416601Y10086D01*
X414913Y8399D01*
X414000Y6194D01*
Y3807D01*
X414913Y1601D01*
X415341Y1173D01*
X414855Y0D01*
X385145D01*
X384659Y1173D01*
X385087Y1601D01*
X386000Y3807D01*
Y6194D01*
X385087Y8399D01*
X385001Y8484D01*
Y27929D01*
X391073Y34000D01*
X391194D01*
X393399Y34913D01*
X395087Y36601D01*
X396000Y38807D01*
Y41193D01*
X395087Y43399D01*
X394660Y43826D01*
X395146Y44999D01*
X522929D01*
X524999Y42929D01*
D02*
G37*
G36*
X600000Y0D02*
X545145D01*
X544659Y1173D01*
X545087Y1601D01*
X546000Y3807D01*
Y6194D01*
X545087Y8399D01*
X545001Y8484D01*
Y56516D01*
X545087Y56601D01*
X546000Y58807D01*
Y61193D01*
X545087Y63399D01*
X543399Y65087D01*
X541194Y66000D01*
X538806D01*
X536601Y65087D01*
X534913Y63399D01*
X534000Y61193D01*
Y58807D01*
X534913Y56601D01*
X534999Y56516D01*
Y48633D01*
X533729Y48248D01*
X533536Y48536D01*
X528536Y53536D01*
X526914Y54620D01*
X525000Y55001D01*
X362232D01*
X360318Y54620D01*
X358695Y53536D01*
X356464Y51304D01*
X355380Y49682D01*
X354999Y47768D01*
Y20001D01*
X140001D01*
Y50000D01*
X139620Y51914D01*
X138536Y53536D01*
X130850Y61223D01*
Y61343D01*
X129937Y63549D01*
X128249Y65237D01*
X126044Y66150D01*
X123657D01*
X121451Y65237D01*
X119763Y63549D01*
X118850Y61343D01*
Y58956D01*
X119763Y56751D01*
X121451Y55064D01*
X123657Y54150D01*
X123777D01*
X129999Y47929D01*
Y17232D01*
X130380Y15318D01*
X131464Y13696D01*
X133696Y11464D01*
X135318Y10380D01*
X137232Y9999D01*
X357768D01*
X359682Y10380D01*
X361304Y11464D01*
X363536Y13696D01*
X364620Y15318D01*
X365001Y17232D01*
Y44999D01*
X384854D01*
X385340Y43826D01*
X384913Y43399D01*
X384000Y41193D01*
Y41073D01*
X376464Y33536D01*
X375380Y31914D01*
X374999Y30000D01*
Y8484D01*
X374913Y8399D01*
X374000Y6194D01*
Y3807D01*
X374913Y1601D01*
X375341Y1173D01*
X374855Y0D01*
X0D01*
Y230000D01*
X600000D01*
Y0D01*
D02*
G37*
%LPC*%
G36*
X585250Y212950D02*
X564750D01*
Y192450D01*
X585250D01*
Y212950D01*
D02*
G37*
G36*
X520250D02*
X499750D01*
Y192450D01*
X520250D01*
Y212950D01*
D02*
G37*
G36*
X455250D02*
X434750D01*
Y192450D01*
X455250D01*
Y212950D01*
D02*
G37*
G36*
X395250D02*
X374750D01*
Y192450D01*
X395250D01*
Y212950D01*
D02*
G37*
G36*
X335250D02*
X314750D01*
Y192450D01*
X335250D01*
Y212950D01*
D02*
G37*
G36*
X275250D02*
X254750D01*
Y192450D01*
X275250D01*
Y212950D01*
D02*
G37*
G36*
X215250D02*
X194750D01*
Y192450D01*
X215250D01*
Y212950D01*
D02*
G37*
G36*
X155250D02*
X134750D01*
Y192450D01*
X155250D01*
Y212950D01*
D02*
G37*
G36*
X95250D02*
X74750D01*
Y192450D01*
X95250D01*
Y212950D01*
D02*
G37*
G36*
X35250D02*
X14750D01*
Y192450D01*
X35250D01*
Y212950D01*
D02*
G37*
G36*
X576349Y187550D02*
X573651D01*
X571044Y186852D01*
X568706Y185502D01*
X566798Y183594D01*
X565448Y181256D01*
X564750Y178649D01*
Y175951D01*
X565448Y173344D01*
X566798Y171006D01*
X568706Y169098D01*
X571044Y167749D01*
X573651Y167050D01*
X576349D01*
X578956Y167749D01*
X581294Y169098D01*
X583202Y171006D01*
X584552Y173344D01*
X585250Y175951D01*
Y178649D01*
X584552Y181256D01*
X583202Y183594D01*
X581294Y185502D01*
X578956Y186852D01*
X576349Y187550D01*
D02*
G37*
G36*
X511349D02*
X508651D01*
X506044Y186852D01*
X503706Y185502D01*
X501798Y183594D01*
X500448Y181256D01*
X499750Y178649D01*
Y175951D01*
X500448Y173344D01*
X501798Y171006D01*
X503706Y169098D01*
X506044Y167749D01*
X508651Y167050D01*
X511349D01*
X513956Y167749D01*
X516294Y169098D01*
X518202Y171006D01*
X519552Y173344D01*
X520250Y175951D01*
Y178649D01*
X519552Y181256D01*
X518202Y183594D01*
X516294Y185502D01*
X513956Y186852D01*
X511349Y187550D01*
D02*
G37*
G36*
X446349D02*
X443651D01*
X441044Y186852D01*
X438706Y185502D01*
X436798Y183594D01*
X435448Y181256D01*
X434750Y178649D01*
Y175951D01*
X435448Y173344D01*
X436798Y171006D01*
X438706Y169098D01*
X441044Y167749D01*
X443651Y167050D01*
X446349D01*
X448956Y167749D01*
X451294Y169098D01*
X453202Y171006D01*
X454552Y173344D01*
X455250Y175951D01*
Y178649D01*
X454552Y181256D01*
X453202Y183594D01*
X451294Y185502D01*
X448956Y186852D01*
X446349Y187550D01*
D02*
G37*
G36*
X386349D02*
X383651D01*
X381044Y186852D01*
X378706Y185502D01*
X376798Y183594D01*
X375448Y181256D01*
X374750Y178649D01*
Y175951D01*
X375448Y173344D01*
X376798Y171006D01*
X378706Y169098D01*
X381044Y167749D01*
X383651Y167050D01*
X386349D01*
X388956Y167749D01*
X391294Y169098D01*
X393202Y171006D01*
X394552Y173344D01*
X395250Y175951D01*
Y178649D01*
X394552Y181256D01*
X393202Y183594D01*
X391294Y185502D01*
X388956Y186852D01*
X386349Y187550D01*
D02*
G37*
G36*
X326349D02*
X323651D01*
X321044Y186852D01*
X318706Y185502D01*
X316798Y183594D01*
X315448Y181256D01*
X314750Y178649D01*
Y175951D01*
X315448Y173344D01*
X316798Y171006D01*
X318706Y169098D01*
X321044Y167749D01*
X323651Y167050D01*
X326349D01*
X328956Y167749D01*
X331294Y169098D01*
X333202Y171006D01*
X334552Y173344D01*
X335250Y175951D01*
Y178649D01*
X334552Y181256D01*
X333202Y183594D01*
X331294Y185502D01*
X328956Y186852D01*
X326349Y187550D01*
D02*
G37*
G36*
X266349D02*
X263651D01*
X261044Y186852D01*
X258706Y185502D01*
X256798Y183594D01*
X255448Y181256D01*
X254750Y178649D01*
Y175951D01*
X255448Y173344D01*
X256798Y171006D01*
X258706Y169098D01*
X261044Y167749D01*
X263651Y167050D01*
X266349D01*
X268956Y167749D01*
X271294Y169098D01*
X273202Y171006D01*
X274551Y173344D01*
X275250Y175951D01*
Y178649D01*
X274551Y181256D01*
X273202Y183594D01*
X271294Y185502D01*
X268956Y186852D01*
X266349Y187550D01*
D02*
G37*
G36*
X206349D02*
X203651D01*
X201044Y186852D01*
X198706Y185502D01*
X196798Y183594D01*
X195448Y181256D01*
X194750Y178649D01*
Y175951D01*
X195448Y173344D01*
X196798Y171006D01*
X198706Y169098D01*
X201044Y167749D01*
X203651Y167050D01*
X206349D01*
X208956Y167749D01*
X211294Y169098D01*
X213202Y171006D01*
X214552Y173344D01*
X215250Y175951D01*
Y178649D01*
X214552Y181256D01*
X213202Y183594D01*
X211294Y185502D01*
X208956Y186852D01*
X206349Y187550D01*
D02*
G37*
G36*
X146349D02*
X143651D01*
X141044Y186852D01*
X138706Y185502D01*
X136798Y183594D01*
X135449Y181256D01*
X134750Y178649D01*
Y175951D01*
X135449Y173344D01*
X136798Y171006D01*
X138706Y169098D01*
X141044Y167749D01*
X143651Y167050D01*
X146349D01*
X148956Y167749D01*
X151294Y169098D01*
X153202Y171006D01*
X154551Y173344D01*
X155250Y175951D01*
Y178649D01*
X154551Y181256D01*
X153202Y183594D01*
X151294Y185502D01*
X148956Y186852D01*
X146349Y187550D01*
D02*
G37*
G36*
X86349D02*
X83651D01*
X81044Y186852D01*
X78706Y185502D01*
X76798Y183594D01*
X75448Y181256D01*
X74750Y178649D01*
Y175951D01*
X75448Y173344D01*
X76798Y171006D01*
X78706Y169098D01*
X81044Y167749D01*
X83651Y167050D01*
X86349D01*
X88956Y167749D01*
X91294Y169098D01*
X93202Y171006D01*
X94551Y173344D01*
X95250Y175951D01*
Y178649D01*
X94551Y181256D01*
X93202Y183594D01*
X91294Y185502D01*
X88956Y186852D01*
X86349Y187550D01*
D02*
G37*
G36*
X26349D02*
X23651D01*
X21044Y186852D01*
X18706Y185502D01*
X16798Y183594D01*
X15448Y181256D01*
X14750Y178649D01*
Y175951D01*
X15448Y173344D01*
X16798Y171006D01*
X18706Y169098D01*
X21044Y167749D01*
X23651Y167050D01*
X26349D01*
X28956Y167749D01*
X31294Y169098D01*
X33202Y171006D01*
X34551Y173344D01*
X35250Y175951D01*
Y178649D01*
X34551Y181256D01*
X33202Y183594D01*
X31294Y185502D01*
X28956Y186852D01*
X26349Y187550D01*
D02*
G37*
G36*
X296238Y165001D02*
X185000D01*
X183086Y164620D01*
X181464Y163536D01*
X176464Y158536D01*
X175380Y156914D01*
X174999Y155000D01*
Y45000D01*
X175125Y44364D01*
Y43807D01*
X175339Y43291D01*
X175380Y43086D01*
X175496Y42912D01*
X176039Y41601D01*
X176466Y41174D01*
X175980Y40001D01*
X160001D01*
Y75000D01*
X159620Y76914D01*
X158536Y78536D01*
X148536Y88536D01*
X146914Y89620D01*
X145000Y90001D01*
X128484D01*
X128399Y90087D01*
X126194Y91000D01*
X123806D01*
X121601Y90087D01*
X119914Y88399D01*
X119000Y86194D01*
Y83806D01*
X119914Y81601D01*
X121601Y79914D01*
X123806Y79000D01*
X126194D01*
X128399Y79914D01*
X128484Y79999D01*
X142928D01*
X149999Y72929D01*
Y37232D01*
X150380Y35318D01*
X151464Y33696D01*
X153696Y31464D01*
X155318Y30380D01*
X157232Y29999D01*
X202768D01*
X204682Y30380D01*
X206304Y31464D01*
X208536Y33696D01*
X209620Y35318D01*
X210001Y37232D01*
Y49999D01*
X322929D01*
X326464Y46464D01*
X328086Y45380D01*
X330000Y44999D01*
X336516D01*
X336601Y44913D01*
X338806Y44000D01*
X341194D01*
X343399Y44913D01*
X345087Y46601D01*
X346000Y48807D01*
Y51193D01*
X345087Y53399D01*
X343399Y55087D01*
X341194Y56000D01*
X338806D01*
X336601Y55087D01*
X336516Y55001D01*
X332071D01*
X328536Y58536D01*
X326914Y59620D01*
X325000Y60001D01*
X207232D01*
X205318Y59620D01*
X203696Y58536D01*
X201464Y56304D01*
X200380Y54682D01*
X199999Y52768D01*
Y40001D01*
X186271D01*
X185785Y41174D01*
X186212Y41601D01*
X187125Y43807D01*
Y46193D01*
X186212Y48399D01*
X185001Y49610D01*
Y152928D01*
X187071Y154999D01*
X294167D01*
X296164Y153001D01*
X296744Y151601D01*
X298432Y149913D01*
X300637Y149000D01*
X303024D01*
X305229Y149913D01*
X306917Y151601D01*
X307831Y153806D01*
Y156194D01*
X306917Y158399D01*
X305229Y160086D01*
X303024Y161000D01*
X302311D01*
X299774Y163536D01*
X298152Y164620D01*
X296238Y165001D01*
D02*
G37*
G36*
X355000Y145001D02*
X225000D01*
X223086Y144620D01*
X221464Y143536D01*
X211464Y133536D01*
X210380Y131914D01*
X209999Y130000D01*
Y98484D01*
X209913Y98399D01*
X209000Y96194D01*
Y93806D01*
X209913Y91601D01*
X211601Y89913D01*
X213806Y89000D01*
X216194D01*
X218399Y89913D01*
X220087Y91601D01*
X221000Y93806D01*
Y96194D01*
X220087Y98399D01*
X220001Y98484D01*
Y127928D01*
X227071Y134999D01*
X352929D01*
X359000Y128927D01*
Y128806D01*
X359913Y126601D01*
X361601Y124913D01*
X363806Y124000D01*
X366194D01*
X368399Y124913D01*
X370087Y126601D01*
X371000Y128806D01*
Y131194D01*
X370087Y133399D01*
X368399Y135086D01*
X366194Y136000D01*
X366073D01*
X358536Y143536D01*
X356914Y144620D01*
X355000Y145001D01*
D02*
G37*
G36*
X426194Y136000D02*
X423806D01*
X421601Y135086D01*
X419913Y133399D01*
X419000Y131194D01*
Y131073D01*
X407929Y120001D01*
X265000D01*
X263086Y119620D01*
X261464Y118536D01*
X248927Y106000D01*
X248806D01*
X246601Y105087D01*
X244914Y103399D01*
X244000Y101194D01*
Y98806D01*
X244914Y96601D01*
X246601Y94913D01*
X248806Y94000D01*
X251194D01*
X253399Y94913D01*
X255087Y96601D01*
X256000Y98806D01*
Y98927D01*
X267071Y109999D01*
X410000D01*
X411914Y110380D01*
X413536Y111464D01*
X426073Y124000D01*
X426194D01*
X428399Y124913D01*
X430087Y126601D01*
X431000Y128806D01*
Y131194D01*
X430087Y133399D01*
X428399Y135086D01*
X426194Y136000D01*
D02*
G37*
G36*
X66218Y94800D02*
X63782D01*
X61430Y94170D01*
X59320Y92952D01*
X57598Y91230D01*
X56380Y89120D01*
X55750Y86768D01*
Y84332D01*
X56380Y81980D01*
X57598Y79870D01*
X59320Y78148D01*
X61430Y76930D01*
X63782Y76300D01*
X66218D01*
X68570Y76930D01*
X70680Y78148D01*
X72402Y79870D01*
X73620Y81980D01*
X74250Y84332D01*
Y86768D01*
X73620Y89120D01*
X72402Y91230D01*
X70680Y92952D01*
X68570Y94170D01*
X66218Y94800D01*
D02*
G37*
G36*
X441194Y81000D02*
X438806D01*
X436601Y80087D01*
X434913Y78399D01*
X434334Y76999D01*
X432336Y75001D01*
X383484D01*
X383399Y75087D01*
X381194Y76000D01*
X378806D01*
X376601Y75087D01*
X374913Y73399D01*
X374000Y71193D01*
Y68807D01*
X374913Y66601D01*
X376601Y64914D01*
X378806Y64000D01*
X381194D01*
X383399Y64914D01*
X383484Y64999D01*
X434407D01*
X436321Y65380D01*
X437944Y66464D01*
X440480Y69000D01*
X441194D01*
X443399Y69913D01*
X445087Y71601D01*
X446000Y73807D01*
Y76193D01*
X445087Y78399D01*
X443399Y80087D01*
X441194Y81000D01*
D02*
G37*
G36*
X99650Y69400D02*
X81150D01*
Y50900D01*
X99650D01*
Y69400D01*
D02*
G37*
G36*
X40818D02*
X38382D01*
X36030Y68770D01*
X33920Y67552D01*
X32198Y65830D01*
X30980Y63720D01*
X30350Y61368D01*
Y58932D01*
X30980Y56580D01*
X32198Y54470D01*
X33920Y52748D01*
X36030Y51530D01*
X38382Y50900D01*
X40818D01*
X43170Y51530D01*
X45280Y52748D01*
X47002Y54470D01*
X48220Y56580D01*
X48850Y58932D01*
Y61368D01*
X48220Y63720D01*
X47002Y65830D01*
X45280Y67552D01*
X43170Y68770D01*
X40818Y69400D01*
D02*
G37*
G36*
X571428Y68550D02*
X568572D01*
X565812Y67811D01*
X563338Y66382D01*
X561318Y64362D01*
X559889Y61888D01*
X559150Y59128D01*
Y56272D01*
X559889Y53512D01*
X561318Y51038D01*
X563338Y49018D01*
X565812Y47589D01*
X568572Y46850D01*
X571428D01*
X574188Y47589D01*
X576662Y49018D01*
X578682Y51038D01*
X580111Y53512D01*
X580850Y56272D01*
Y59128D01*
X580111Y61888D01*
X578682Y64362D01*
X576662Y66382D01*
X574188Y67811D01*
X571428Y68550D01*
D02*
G37*
G36*
X580850Y43150D02*
X559150D01*
Y21450D01*
X580850D01*
Y43150D01*
D02*
G37*
%LPD*%
D24*
X65000Y85550D02*
D03*
X39600Y60150D02*
D03*
D25*
X90400D02*
D03*
D26*
X575000Y177300D02*
D03*
X510000D02*
D03*
X445000D02*
D03*
X385000D02*
D03*
X325000D02*
D03*
X265000D02*
D03*
X205000D02*
D03*
X145000D02*
D03*
X85000D02*
D03*
X25000D02*
D03*
D27*
X575000Y202700D02*
D03*
X510000D02*
D03*
X445000D02*
D03*
X385000D02*
D03*
X325000D02*
D03*
X265000D02*
D03*
X205000D02*
D03*
X145000D02*
D03*
X85000D02*
D03*
X25000D02*
D03*
D28*
X570000Y57700D02*
D03*
D29*
Y32300D02*
D03*
D30*
X530000Y15000D02*
X540000Y5000D01*
X530000Y15000D02*
Y45000D01*
X362232Y50000D02*
X525000D01*
X530000Y45000D01*
X360000Y47768D02*
X362232Y50000D01*
X360000Y17232D02*
Y47768D01*
X357768Y15000D02*
X360000Y17232D01*
X137232Y15000D02*
X357768D01*
X135000Y17232D02*
X137232Y15000D01*
X135000Y17232D02*
Y50000D01*
X124850Y60150D02*
X135000Y50000D01*
X157232Y35000D02*
X202768D01*
X155000Y37232D02*
Y75000D01*
Y37232D02*
X157232Y35000D01*
X434407Y70000D02*
X439407Y75000D01*
X380000Y70000D02*
X434407D01*
X439407Y75000D02*
X440000D01*
X540000Y5000D02*
Y60000D01*
X325000Y55000D02*
X330000Y50000D01*
X340000D01*
X207232Y55000D02*
X325000D01*
X205000Y52768D02*
X207232Y55000D01*
X205000Y37232D02*
Y52768D01*
X202768Y35000D02*
X205000Y37232D01*
X125000Y85000D02*
X145000D01*
X155000Y75000D01*
X380000Y30000D02*
X390000Y40000D01*
X380000Y5000D02*
Y30000D01*
X420000Y5000D02*
X427905Y12905D01*
X490000D01*
X301238Y155000D02*
X301831D01*
X180000Y45000D02*
Y155000D01*
X296238Y160000D02*
X301238Y155000D01*
X185000Y160000D02*
X296238D01*
X180000Y155000D02*
X185000Y160000D01*
X180000Y45000D02*
X181125D01*
X250000Y100000D02*
X265000Y115000D01*
X410000D01*
X425000Y130000D01*
X215000Y95000D02*
Y130000D01*
X225000Y140000D02*
X355000D01*
X215000Y130000D02*
X225000Y140000D01*
X355000D02*
X365000Y130000D01*
D31*
X124850Y60150D02*
D03*
X440000Y75000D02*
D03*
X540000Y60000D02*
D03*
X125000Y85000D02*
D03*
X340000Y50000D02*
D03*
X390000Y40000D02*
D03*
X380000Y5000D02*
D03*
Y70000D02*
D03*
X540000Y5000D02*
D03*
X490000Y12905D02*
D03*
X420000Y5000D02*
D03*
X181125Y45000D02*
D03*
X301831Y155000D02*
D03*
X250000Y100000D02*
D03*
X425000Y130000D02*
D03*
X215000Y95000D02*
D03*
X365000Y130000D02*
D03*
M02*
