G04*
G04 #@! TF.GenerationSoftware,Altium Limited,Altium Designer,24.1.2 (44)*
G04*
G04 Layer_Color=65535*
%FSLAX44Y44*%
%MOMM*%
G71*
G04*
G04 #@! TF.SameCoordinates,D1532E8E-0FCC-4109-960E-C101D303889C*
G04*
G04*
G04 #@! TF.FilePolarity,Positive*
G04*
G01*
G75*
%ADD10C,0.2000*%
%ADD11C,0.2500*%
%ADD12C,0.6000*%
%ADD13C,0.2540*%
D10*
X563800Y203000D02*
G03*
X563800Y177000I11186J-13000D01*
G01*
X586200D02*
G03*
X586200Y203000I-11186J13000D01*
G01*
X498800D02*
G03*
X498800Y177000I11186J-13000D01*
G01*
X521200D02*
G03*
X521200Y203000I-11186J13000D01*
G01*
X433800D02*
G03*
X433800Y177000I11186J-13000D01*
G01*
X456200D02*
G03*
X456200Y203000I-11186J13000D01*
G01*
X373800D02*
G03*
X373800Y177000I11186J-13000D01*
G01*
X396200D02*
G03*
X396200Y203000I-11186J13000D01*
G01*
X313800D02*
G03*
X313800Y177000I11186J-13000D01*
G01*
X336200D02*
G03*
X336200Y203000I-11186J13000D01*
G01*
X253800D02*
G03*
X253800Y177000I11186J-13000D01*
G01*
X276200D02*
G03*
X276200Y203000I-11186J13000D01*
G01*
X193800D02*
G03*
X193800Y177000I11186J-13000D01*
G01*
X216200D02*
G03*
X216200Y203000I-11186J13000D01*
G01*
X133800D02*
G03*
X133800Y177000I11186J-13000D01*
G01*
X156200D02*
G03*
X156200Y203000I-11186J13000D01*
G01*
X73800D02*
G03*
X73800Y177000I11186J-13000D01*
G01*
X96200D02*
G03*
X96200Y203000I-11186J13000D01*
G01*
X13800D02*
G03*
X13800Y177000I11186J-13000D01*
G01*
X36200D02*
G03*
X36200Y203000I-11186J13000D01*
G01*
X349000Y36250D02*
X351000D01*
X349000Y23750D02*
X351000D01*
X113900Y11100D02*
Y108900D01*
X16100D02*
X113900D01*
X16100Y11100D02*
Y108900D01*
Y11100D02*
X113900D01*
X349000Y58750D02*
X351000D01*
X349000Y71250D02*
X351000D01*
X581250Y139000D02*
Y141000D01*
X568750Y139000D02*
Y141000D01*
X516250Y139000D02*
Y141000D01*
X503750Y139000D02*
Y141000D01*
X451250Y139000D02*
Y141000D01*
X438750Y139000D02*
Y141000D01*
X391250Y139000D02*
Y141000D01*
X378750Y139000D02*
Y141000D01*
X331250Y139000D02*
Y141000D01*
X318750Y139000D02*
Y141000D01*
X271250Y139000D02*
Y141000D01*
X258750Y139000D02*
Y141000D01*
X211250Y139000D02*
Y141000D01*
X198750Y139000D02*
Y141000D01*
X151250Y139000D02*
Y141000D01*
X138750Y139000D02*
Y141000D01*
X91250Y139000D02*
Y141000D01*
X78750Y139000D02*
Y141000D01*
X195000Y66000D02*
X295000D01*
X195000Y34000D02*
X295000D01*
Y66000D01*
X195000Y34000D02*
Y66000D01*
X31250Y139000D02*
Y141000D01*
X18750Y139000D02*
Y141000D01*
X433210Y20475D02*
Y69525D01*
Y20475D02*
X446790D01*
Y69525D01*
X433210D02*
X446790D01*
X556800Y17100D02*
X583200D01*
Y72900D01*
X556800D02*
X583200D01*
X556800Y17100D02*
Y72900D01*
D11*
X576250Y215750D02*
G03*
X576250Y215750I-1250J0D01*
G01*
X511250D02*
G03*
X511250Y215750I-1250J0D01*
G01*
X446250D02*
G03*
X446250Y215750I-1250J0D01*
G01*
X386250D02*
G03*
X386250Y215750I-1250J0D01*
G01*
X326250D02*
G03*
X326250Y215750I-1250J0D01*
G01*
X266250D02*
G03*
X266250Y215750I-1250J0D01*
G01*
X206250D02*
G03*
X206250Y215750I-1250J0D01*
G01*
X146250D02*
G03*
X146250Y215750I-1250J0D01*
G01*
X86250D02*
G03*
X86250Y215750I-1250J0D01*
G01*
X26250D02*
G03*
X26250Y215750I-1250J0D01*
G01*
X299200Y77250D02*
G03*
X299200Y77250I-1250J0D01*
G01*
X399268Y64050D02*
G03*
X399268Y64050I-1250J0D01*
G01*
X571250Y10750D02*
G03*
X571250Y10750I-1250J0D01*
G01*
D12*
X288000Y56000D02*
G03*
X288000Y56000I-3000J0D01*
G01*
D13*
X40002Y152496D02*
X49998D01*
Y147498D01*
X48332Y145831D01*
X45000D01*
X43334Y147498D01*
Y152496D01*
Y149164D02*
X40002Y145831D01*
Y142499D02*
Y139167D01*
Y140833D01*
X49998D01*
X48332Y142499D01*
Y134169D02*
X49998Y132502D01*
Y129170D01*
X48332Y127504D01*
X41668D01*
X40002Y129170D01*
Y132502D01*
X41668Y134169D01*
X48332D01*
X334170Y45002D02*
Y54998D01*
X339169D01*
X340835Y53332D01*
Y50000D01*
X339169Y48334D01*
X334170D01*
X337502D02*
X340835Y45002D01*
X344167D02*
X347499D01*
X345833D01*
Y54998D01*
X344167Y53332D01*
X352498Y45002D02*
X355830D01*
X354164D01*
Y54998D01*
X352498Y53332D01*
X520000Y18332D02*
X518334Y19998D01*
X515002D01*
X513335Y18332D01*
Y11668D01*
X515002Y10002D01*
X518334D01*
X520000Y11668D01*
X523332Y10002D02*
X526665D01*
X524998D01*
Y19998D01*
X523332Y18332D01*
X120002Y107496D02*
X129998D01*
Y102498D01*
X128332Y100831D01*
X125000D01*
X123334Y102498D01*
Y107496D01*
Y104164D02*
X120002Y100831D01*
Y97499D02*
Y94167D01*
Y95833D01*
X129998D01*
X128332Y97499D01*
Y89169D02*
X129998Y87502D01*
Y84170D01*
X128332Y82504D01*
X126666D01*
X125000Y84170D01*
Y85836D01*
Y84170D01*
X123334Y82504D01*
X121668D01*
X120002Y84170D01*
Y87502D01*
X121668Y89169D01*
X327504Y80002D02*
Y89998D01*
X332502D01*
X334169Y88332D01*
Y85000D01*
X332502Y83334D01*
X327504D01*
X330836D02*
X334169Y80002D01*
X337501D02*
X340833D01*
X339167D01*
Y89998D01*
X337501Y88332D01*
X352496Y80002D02*
X345831D01*
X352496Y86666D01*
Y88332D01*
X350830Y89998D01*
X347498D01*
X345831Y88332D01*
X599998Y196665D02*
X590002D01*
Y191666D01*
X591668Y190000D01*
X598332D01*
X599998Y191666D01*
Y196665D01*
X590002Y186668D02*
Y183335D01*
Y185002D01*
X599998D01*
X598332Y186668D01*
X544998Y198331D02*
X535002D01*
Y193332D01*
X536668Y191666D01*
X543332D01*
X544998Y193332D01*
Y198331D01*
X535002Y181669D02*
Y188334D01*
X541666Y181669D01*
X543332D01*
X544998Y183335D01*
Y186668D01*
X543332Y188334D01*
X479998Y198331D02*
X470002D01*
Y193332D01*
X471668Y191666D01*
X478332D01*
X479998Y193332D01*
Y198331D01*
X478332Y188334D02*
X479998Y186668D01*
Y183335D01*
X478332Y181669D01*
X476666D01*
X475000Y183335D01*
Y185002D01*
Y183335D01*
X473334Y181669D01*
X471668D01*
X470002Y183335D01*
Y186668D01*
X471668Y188334D01*
X419998Y198331D02*
X410002D01*
Y193332D01*
X411668Y191666D01*
X418332D01*
X419998Y193332D01*
Y198331D01*
X410002Y183335D02*
X419998D01*
X415000Y188334D01*
Y181669D01*
X359998Y198331D02*
X350002D01*
Y193332D01*
X351668Y191666D01*
X358332D01*
X359998Y193332D01*
Y198331D01*
Y181669D02*
Y188334D01*
X355000D01*
X356666Y185002D01*
Y183335D01*
X355000Y181669D01*
X351668D01*
X350002Y183335D01*
Y186668D01*
X351668Y188334D01*
X299998Y195631D02*
X290002D01*
Y190632D01*
X291668Y188966D01*
X298332D01*
X299998Y190632D01*
Y195631D01*
Y178969D02*
X298332Y182302D01*
X295000Y185634D01*
X291668D01*
X290002Y183968D01*
Y180635D01*
X291668Y178969D01*
X293334D01*
X295000Y180635D01*
Y185634D01*
X239998Y198331D02*
X230002D01*
Y193332D01*
X231668Y191666D01*
X238332D01*
X239998Y193332D01*
Y198331D01*
Y188334D02*
Y181669D01*
X238332D01*
X231668Y188334D01*
X230002D01*
X179998Y198331D02*
X170002D01*
Y193332D01*
X171668Y191666D01*
X178332D01*
X179998Y193332D01*
Y198331D01*
X178332Y188334D02*
X179998Y186668D01*
Y183335D01*
X178332Y181669D01*
X176666D01*
X175000Y183335D01*
X173334Y181669D01*
X171668D01*
X170002Y183335D01*
Y186668D01*
X171668Y188334D01*
X173334D01*
X175000Y186668D01*
X176666Y188334D01*
X178332D01*
X175000Y186668D02*
Y183335D01*
X119998Y198331D02*
X110002D01*
Y193332D01*
X111668Y191666D01*
X118332D01*
X119998Y193332D01*
Y198331D01*
X111668Y188334D02*
X110002Y186668D01*
Y183335D01*
X111668Y181669D01*
X118332D01*
X119998Y183335D01*
Y186668D01*
X118332Y188334D01*
X116666D01*
X115000Y186668D01*
Y181669D01*
X59998Y202496D02*
X50002D01*
Y197498D01*
X51668Y195831D01*
X58332D01*
X59998Y197498D01*
Y202496D01*
X50002Y192499D02*
Y189167D01*
Y190833D01*
X59998D01*
X58332Y192499D01*
Y184168D02*
X59998Y182502D01*
Y179170D01*
X58332Y177504D01*
X51668D01*
X50002Y179170D01*
Y182502D01*
X51668Y184168D01*
X58332D01*
X585002Y146664D02*
X594998D01*
Y141666D01*
X593332Y140000D01*
X590000D01*
X588334Y141666D01*
Y146664D01*
Y143332D02*
X585002Y140000D01*
Y136668D02*
Y133336D01*
Y135002D01*
X594998D01*
X593332Y136668D01*
X525002Y148331D02*
X534998D01*
Y143332D01*
X533332Y141666D01*
X530000D01*
X528334Y143332D01*
Y148331D01*
Y144998D02*
X525002Y141666D01*
Y131669D02*
Y138334D01*
X531666Y131669D01*
X533332D01*
X534998Y133336D01*
Y136668D01*
X533332Y138334D01*
X460002Y148331D02*
X469998D01*
Y143332D01*
X468332Y141666D01*
X465000D01*
X463334Y143332D01*
Y148331D01*
Y144998D02*
X460002Y141666D01*
X468332Y138334D02*
X469998Y136668D01*
Y133335D01*
X468332Y131669D01*
X466666D01*
X465000Y133335D01*
Y135002D01*
Y133335D01*
X463334Y131669D01*
X461668D01*
X460002Y133335D01*
Y136668D01*
X461668Y138334D01*
X400002Y148331D02*
X409998D01*
Y143332D01*
X408332Y141666D01*
X405000D01*
X403334Y143332D01*
Y148331D01*
Y144998D02*
X400002Y141666D01*
Y133335D02*
X409998D01*
X405000Y138334D01*
Y131669D01*
X340002Y148331D02*
X349998D01*
Y143332D01*
X348332Y141666D01*
X345000D01*
X343334Y143332D01*
Y148331D01*
Y144998D02*
X340002Y141666D01*
X349998Y131669D02*
Y138334D01*
X345000D01*
X346666Y135002D01*
Y133336D01*
X345000Y131669D01*
X341668D01*
X340002Y133336D01*
Y136668D01*
X341668Y138334D01*
X280002Y148331D02*
X289998D01*
Y143332D01*
X288332Y141666D01*
X285000D01*
X283334Y143332D01*
Y148331D01*
Y144998D02*
X280002Y141666D01*
X289998Y131669D02*
X288332Y135002D01*
X285000Y138334D01*
X281668D01*
X280002Y136668D01*
Y133335D01*
X281668Y131669D01*
X283334D01*
X285000Y133335D01*
Y138334D01*
X220002Y148331D02*
X229998D01*
Y143332D01*
X228332Y141666D01*
X225000D01*
X223334Y143332D01*
Y148331D01*
Y144998D02*
X220002Y141666D01*
X229998Y138334D02*
Y131669D01*
X228332D01*
X221668Y138334D01*
X220002D01*
X170002Y148331D02*
X179998D01*
Y143332D01*
X178332Y141666D01*
X175000D01*
X173334Y143332D01*
Y148331D01*
Y144998D02*
X170002Y141666D01*
X178332Y138334D02*
X179998Y136668D01*
Y133335D01*
X178332Y131669D01*
X176666D01*
X175000Y133335D01*
X173334Y131669D01*
X171668D01*
X170002Y133335D01*
Y136668D01*
X171668Y138334D01*
X173334D01*
X175000Y136668D01*
X176666Y138334D01*
X178332D01*
X175000Y136668D02*
Y133335D01*
X100002Y148331D02*
X109998D01*
Y143332D01*
X108332Y141666D01*
X105000D01*
X103334Y143332D01*
Y148331D01*
Y144998D02*
X100002Y141666D01*
X101668Y138334D02*
X100002Y136668D01*
Y133335D01*
X101668Y131669D01*
X108332D01*
X109998Y133335D01*
Y136668D01*
X108332Y138334D01*
X106666D01*
X105000Y136668D01*
Y131669D01*
X193335Y104998D02*
Y96668D01*
X195002Y95002D01*
X198334D01*
X200000Y96668D01*
Y104998D01*
X203332Y95002D02*
X206665D01*
X204998D01*
Y104998D01*
X203332Y103332D01*
X398004Y93231D02*
Y84900D01*
X399670Y83234D01*
X403002D01*
X404669Y84900D01*
Y93231D01*
X414665Y83234D02*
X408001D01*
X414665Y89899D01*
Y91565D01*
X412999Y93231D01*
X409667D01*
X408001Y91565D01*
X563927Y92469D02*
X560594D01*
X562260D01*
Y84138D01*
X560594Y82472D01*
X558928D01*
X557262Y84138D01*
X567259Y82472D02*
X570591D01*
X568925D01*
Y92469D01*
X567259Y90803D01*
X515412Y84199D02*
X513746Y85865D01*
X510414D01*
X508748Y84199D01*
Y77534D01*
X510414Y75868D01*
X513746D01*
X515412Y77534D01*
X525409Y75868D02*
X518745D01*
X525409Y82533D01*
Y84199D01*
X523743Y85865D01*
X520411D01*
X518745Y84199D01*
M02*
