G04*
G04 #@! TF.GenerationSoftware,Altium Limited,Altium Designer,24.1.2 (44)*
G04*
G04 Layer_Color=16711935*
%FSLAX44Y44*%
%MOMM*%
G71*
G04*
G04 #@! TF.SameCoordinates,D1532E8E-0FCC-4109-960E-C101D303889C*
G04*
G04*
G04 #@! TF.FilePolarity,Positive*
G04*
G01*
G75*
%ADD10C,0.2000*%
G36*
X52010Y61873D02*
X52084Y61864D01*
X52167Y61855D01*
X52260Y61836D01*
X52361Y61818D01*
X52583Y61762D01*
X52814Y61670D01*
X52934Y61614D01*
X53045Y61550D01*
X53156Y61466D01*
X53267Y61383D01*
X53277Y61374D01*
X53295Y61356D01*
X53323Y61328D01*
X53351Y61291D01*
X53397Y61245D01*
X53443Y61180D01*
X53499Y61115D01*
X53554Y61032D01*
X53609Y60939D01*
X53665Y60847D01*
X53767Y60625D01*
X53850Y60366D01*
X53878Y60227D01*
X53896Y60080D01*
X53110Y59978D01*
Y59987D01*
X53101Y60006D01*
X53092Y60043D01*
X53082Y60089D01*
X53073Y60144D01*
X53055Y60209D01*
X53008Y60348D01*
X52944Y60514D01*
X52860Y60671D01*
X52768Y60819D01*
X52657Y60949D01*
X52639Y60958D01*
X52602Y60995D01*
X52528Y61041D01*
X52435Y61087D01*
X52324Y61143D01*
X52186Y61189D01*
X52028Y61226D01*
X51862Y61235D01*
X51807D01*
X51769Y61226D01*
X51668Y61217D01*
X51538Y61189D01*
X51391Y61143D01*
X51233Y61078D01*
X51076Y60986D01*
X50928Y60856D01*
X50910Y60838D01*
X50863Y60782D01*
X50808Y60699D01*
X50734Y60588D01*
X50660Y60449D01*
X50605Y60292D01*
X50558Y60107D01*
X50540Y59904D01*
Y59895D01*
Y59876D01*
Y59848D01*
X50549Y59811D01*
X50558Y59710D01*
X50586Y59590D01*
X50623Y59442D01*
X50688Y59294D01*
X50780Y59146D01*
X50901Y59007D01*
X50919Y58989D01*
X50965Y58952D01*
X51039Y58896D01*
X51141Y58831D01*
X51270Y58767D01*
X51427Y58711D01*
X51603Y58674D01*
X51797Y58656D01*
X51880D01*
X51945Y58665D01*
X52028Y58674D01*
X52121Y58693D01*
X52232Y58711D01*
X52352Y58739D01*
X52260Y58046D01*
X52213D01*
X52176Y58055D01*
X52056D01*
X51954Y58036D01*
X51834Y58018D01*
X51696Y57990D01*
X51538Y57944D01*
X51391Y57879D01*
X51233Y57796D01*
X51224D01*
X51215Y57787D01*
X51169Y57750D01*
X51104Y57685D01*
X51030Y57602D01*
X50956Y57481D01*
X50891Y57343D01*
X50845Y57186D01*
X50827Y57093D01*
Y56992D01*
Y56982D01*
Y56973D01*
Y56918D01*
X50845Y56844D01*
X50863Y56742D01*
X50901Y56631D01*
X50947Y56511D01*
X51021Y56391D01*
X51122Y56280D01*
X51132Y56270D01*
X51178Y56233D01*
X51242Y56187D01*
X51326Y56132D01*
X51437Y56086D01*
X51566Y56039D01*
X51714Y56002D01*
X51880Y55993D01*
X51954D01*
X52038Y56012D01*
X52149Y56030D01*
X52269Y56067D01*
X52389Y56113D01*
X52518Y56187D01*
X52639Y56280D01*
X52648Y56289D01*
X52685Y56335D01*
X52740Y56400D01*
X52805Y56492D01*
X52870Y56613D01*
X52934Y56760D01*
X52990Y56936D01*
X53027Y57140D01*
X53813Y57001D01*
Y56992D01*
X53804Y56964D01*
X53794Y56927D01*
X53785Y56871D01*
X53767Y56807D01*
X53739Y56733D01*
X53683Y56557D01*
X53591Y56354D01*
X53480Y56150D01*
X53341Y55956D01*
X53166Y55780D01*
X53156Y55771D01*
X53138Y55762D01*
X53110Y55743D01*
X53073Y55716D01*
X53027Y55679D01*
X52962Y55642D01*
X52898Y55605D01*
X52814Y55559D01*
X52629Y55484D01*
X52417Y55410D01*
X52167Y55364D01*
X52038Y55346D01*
X51807D01*
X51705Y55355D01*
X51585Y55374D01*
X51437Y55401D01*
X51270Y55448D01*
X51104Y55503D01*
X50937Y55577D01*
X50928D01*
X50919Y55586D01*
X50863Y55614D01*
X50780Y55669D01*
X50688Y55734D01*
X50577Y55827D01*
X50466Y55928D01*
X50355Y56048D01*
X50262Y56187D01*
X50253Y56206D01*
X50226Y56252D01*
X50188Y56335D01*
X50142Y56437D01*
X50096Y56557D01*
X50059Y56696D01*
X50031Y56853D01*
X50022Y57010D01*
Y57028D01*
Y57084D01*
X50031Y57158D01*
X50050Y57260D01*
X50078Y57380D01*
X50124Y57509D01*
X50179Y57639D01*
X50253Y57768D01*
X50262Y57787D01*
X50290Y57824D01*
X50346Y57888D01*
X50420Y57962D01*
X50512Y58046D01*
X50623Y58138D01*
X50753Y58221D01*
X50910Y58304D01*
X50901D01*
X50882Y58314D01*
X50854Y58323D01*
X50817Y58332D01*
X50715Y58369D01*
X50586Y58425D01*
X50438Y58499D01*
X50290Y58591D01*
X50152Y58711D01*
X50022Y58850D01*
X50013Y58868D01*
X49976Y58924D01*
X49920Y59016D01*
X49865Y59137D01*
X49809Y59284D01*
X49754Y59460D01*
X49717Y59664D01*
X49708Y59885D01*
Y59895D01*
Y59922D01*
Y59969D01*
X49717Y60024D01*
X49726Y60098D01*
X49745Y60181D01*
X49763Y60274D01*
X49782Y60375D01*
X49856Y60597D01*
X49911Y60718D01*
X49967Y60828D01*
X50041Y60949D01*
X50124Y61069D01*
X50216Y61189D01*
X50327Y61300D01*
X50336Y61309D01*
X50355Y61328D01*
X50392Y61356D01*
X50438Y61392D01*
X50494Y61439D01*
X50568Y61485D01*
X50651Y61540D01*
X50753Y61587D01*
X50854Y61642D01*
X50974Y61698D01*
X51095Y61744D01*
X51233Y61790D01*
X51381Y61827D01*
X51538Y61855D01*
X51696Y61873D01*
X51871Y61883D01*
X51954D01*
X52010Y61873D01*
D02*
G37*
G36*
X65000Y55374D02*
X62032D01*
X61958Y55383D01*
X61875D01*
X61681Y55392D01*
X61477Y55420D01*
X61255Y55448D01*
X61052Y55494D01*
X60950Y55521D01*
X60867Y55549D01*
X60858D01*
X60849Y55559D01*
X60793Y55586D01*
X60710Y55623D01*
X60608Y55688D01*
X60497Y55771D01*
X60377Y55882D01*
X60266Y56012D01*
X60155Y56159D01*
Y56169D01*
X60146Y56178D01*
X60109Y56233D01*
X60072Y56326D01*
X60017Y56446D01*
X59970Y56585D01*
X59924Y56751D01*
X59896Y56927D01*
X59887Y57121D01*
Y57130D01*
Y57149D01*
Y57186D01*
X59896Y57232D01*
Y57297D01*
X59906Y57361D01*
X59943Y57519D01*
X59998Y57703D01*
X60072Y57898D01*
X60183Y58092D01*
X60257Y58184D01*
X60331Y58277D01*
X60340Y58286D01*
X60349Y58295D01*
X60377Y58323D01*
X60414Y58351D01*
X60460Y58388D01*
X60516Y58425D01*
X60590Y58471D01*
X60664Y58526D01*
X60756Y58573D01*
X60858Y58619D01*
X60969Y58674D01*
X61089Y58720D01*
X61228Y58757D01*
X61367Y58804D01*
X61524Y58831D01*
X61690Y58859D01*
X61672Y58868D01*
X61635Y58887D01*
X61579Y58924D01*
X61505Y58961D01*
X61339Y59062D01*
X61255Y59127D01*
X61182Y59183D01*
X61163Y59201D01*
X61117Y59247D01*
X61043Y59321D01*
X60950Y59414D01*
X60849Y59543D01*
X60729Y59682D01*
X60608Y59848D01*
X60479Y60033D01*
X59379Y61771D01*
X60433D01*
X61274Y60440D01*
Y60431D01*
X61293Y60412D01*
X61311Y60385D01*
X61339Y60348D01*
X61403Y60246D01*
X61487Y60117D01*
X61588Y59978D01*
X61690Y59830D01*
X61792Y59691D01*
X61884Y59562D01*
X61894Y59553D01*
X61921Y59516D01*
X61967Y59460D01*
X62032Y59395D01*
X62171Y59257D01*
X62245Y59192D01*
X62319Y59137D01*
X62328Y59127D01*
X62347Y59118D01*
X62383Y59099D01*
X62439Y59072D01*
X62494Y59044D01*
X62559Y59016D01*
X62707Y58970D01*
X62716D01*
X62735Y58961D01*
X62772D01*
X62818Y58952D01*
X62883Y58942D01*
X62957D01*
X63058Y58933D01*
X64149D01*
Y61771D01*
X65000D01*
Y55374D01*
D02*
G37*
G36*
X56707Y56770D02*
X56716Y56779D01*
X56762Y56816D01*
X56818Y56871D01*
X56910Y56936D01*
X57012Y57019D01*
X57141Y57112D01*
X57289Y57213D01*
X57456Y57315D01*
X57465D01*
X57474Y57324D01*
X57530Y57361D01*
X57622Y57408D01*
X57733Y57463D01*
X57862Y57528D01*
X58001Y57593D01*
X58140Y57657D01*
X58278Y57713D01*
Y56954D01*
X58269D01*
X58251Y56936D01*
X58214Y56927D01*
X58168Y56899D01*
X58112Y56871D01*
X58047Y56834D01*
X57890Y56742D01*
X57705Y56640D01*
X57520Y56511D01*
X57326Y56363D01*
X57132Y56206D01*
X57123Y56196D01*
X57113Y56187D01*
X57086Y56159D01*
X57049Y56132D01*
X56966Y56039D01*
X56855Y55928D01*
X56744Y55799D01*
X56624Y55651D01*
X56522Y55503D01*
X56429Y55346D01*
X55921D01*
Y61771D01*
X56707D01*
Y56770D01*
D02*
G37*
G36*
X581398Y187541D02*
X581389Y187374D01*
X581379Y187189D01*
X581361Y187005D01*
X581333Y186820D01*
X581305Y186662D01*
Y186653D01*
X581296Y186635D01*
Y186607D01*
X581278Y186570D01*
X581250Y186468D01*
X581204Y186339D01*
X581139Y186191D01*
X581056Y186034D01*
X580963Y185877D01*
X580843Y185729D01*
X580834Y185719D01*
X580825Y185710D01*
X580797Y185682D01*
X580769Y185645D01*
X580677Y185553D01*
X580547Y185442D01*
X580390Y185322D01*
X580205Y185192D01*
X579992Y185072D01*
X579752Y184970D01*
X579743D01*
X579724Y184961D01*
X579687Y184943D01*
X579632Y184933D01*
X579567Y184906D01*
X579493Y184887D01*
X579410Y184869D01*
X579308Y184841D01*
X579207Y184813D01*
X579086Y184795D01*
X578828Y184749D01*
X578541Y184721D01*
X578227Y184712D01*
X578217D01*
X578199D01*
X578153D01*
X578106D01*
X578042Y184721D01*
X577968D01*
X577792Y184730D01*
X577589Y184758D01*
X577376Y184786D01*
X577154Y184832D01*
X576932Y184887D01*
X576923D01*
X576904Y184897D01*
X576877Y184906D01*
X576840Y184915D01*
X576738Y184952D01*
X576609Y185007D01*
X576461Y185063D01*
X576313Y185137D01*
X576156Y185229D01*
X576008Y185322D01*
X575989Y185331D01*
X575943Y185368D01*
X575878Y185424D01*
X575795Y185497D01*
X575703Y185581D01*
X575610Y185682D01*
X575508Y185784D01*
X575425Y185904D01*
X575416Y185923D01*
X575388Y185960D01*
X575351Y186024D01*
X575305Y186117D01*
X575249Y186228D01*
X575203Y186357D01*
X575148Y186505D01*
X575102Y186672D01*
Y186690D01*
X575092Y186718D01*
X575083Y186746D01*
X575074Y186838D01*
X575055Y186968D01*
X575037Y187115D01*
X575018Y187291D01*
X575009Y187485D01*
X575000Y187698D01*
Y190000D01*
X581398D01*
Y187541D01*
D02*
G37*
G36*
X579817Y183260D02*
X579835Y183242D01*
X579845Y183205D01*
X579872Y183158D01*
X579900Y183103D01*
X579937Y183038D01*
X580029Y182881D01*
X580131Y182696D01*
X580261Y182511D01*
X580409Y182317D01*
X580566Y182123D01*
X580575Y182114D01*
X580584Y182104D01*
X580612Y182077D01*
X580640Y182040D01*
X580732Y181956D01*
X580843Y181845D01*
X580973Y181735D01*
X581120Y181614D01*
X581268Y181513D01*
X581426Y181420D01*
Y180912D01*
X575000D01*
Y181698D01*
X580002D01*
X579992Y181707D01*
X579955Y181753D01*
X579900Y181808D01*
X579835Y181901D01*
X579752Y182003D01*
X579660Y182132D01*
X579558Y182280D01*
X579456Y182446D01*
Y182456D01*
X579447Y182465D01*
X579410Y182520D01*
X579364Y182613D01*
X579308Y182724D01*
X579244Y182853D01*
X579179Y182992D01*
X579114Y183131D01*
X579059Y183269D01*
X579817D01*
Y183260D01*
D02*
G37*
G36*
X516398Y187541D02*
X516389Y187374D01*
X516379Y187189D01*
X516361Y187005D01*
X516333Y186820D01*
X516305Y186662D01*
Y186653D01*
X516296Y186635D01*
Y186607D01*
X516278Y186570D01*
X516250Y186468D01*
X516204Y186339D01*
X516139Y186191D01*
X516056Y186034D01*
X515963Y185877D01*
X515843Y185729D01*
X515834Y185719D01*
X515825Y185710D01*
X515797Y185682D01*
X515769Y185645D01*
X515677Y185553D01*
X515547Y185442D01*
X515390Y185322D01*
X515205Y185192D01*
X514992Y185072D01*
X514752Y184970D01*
X514743D01*
X514724Y184961D01*
X514687Y184943D01*
X514632Y184933D01*
X514567Y184906D01*
X514493Y184887D01*
X514410Y184869D01*
X514308Y184841D01*
X514207Y184813D01*
X514086Y184795D01*
X513828Y184749D01*
X513541Y184721D01*
X513227Y184712D01*
X513217D01*
X513199D01*
X513153D01*
X513106D01*
X513042Y184721D01*
X512968D01*
X512792Y184730D01*
X512589Y184758D01*
X512376Y184786D01*
X512154Y184832D01*
X511932Y184887D01*
X511923D01*
X511904Y184897D01*
X511877Y184906D01*
X511840Y184915D01*
X511738Y184952D01*
X511609Y185007D01*
X511461Y185063D01*
X511313Y185137D01*
X511156Y185229D01*
X511008Y185322D01*
X510989Y185331D01*
X510943Y185368D01*
X510878Y185424D01*
X510795Y185497D01*
X510703Y185581D01*
X510610Y185682D01*
X510508Y185784D01*
X510425Y185904D01*
X510416Y185923D01*
X510388Y185960D01*
X510351Y186024D01*
X510305Y186117D01*
X510249Y186228D01*
X510203Y186357D01*
X510148Y186505D01*
X510102Y186672D01*
Y186690D01*
X510092Y186718D01*
X510083Y186746D01*
X510074Y186838D01*
X510055Y186968D01*
X510037Y187115D01*
X510018Y187291D01*
X510009Y187485D01*
X510000Y187698D01*
Y190000D01*
X516398D01*
Y187541D01*
D02*
G37*
G36*
X510176Y183972D02*
X510259Y183963D01*
X510351Y183944D01*
X510444Y183926D01*
X510545Y183889D01*
X510555D01*
X510564Y183880D01*
X510619Y183861D01*
X510703Y183824D01*
X510813Y183769D01*
X510943Y183695D01*
X511091Y183602D01*
X511239Y183500D01*
X511396Y183371D01*
X511405D01*
X511414Y183353D01*
X511470Y183306D01*
X511553Y183223D01*
X511673Y183103D01*
X511812Y182964D01*
X511978Y182789D01*
X512163Y182576D01*
X512357Y182345D01*
X512367Y182335D01*
X512394Y182299D01*
X512441Y182243D01*
X512496Y182178D01*
X512570Y182095D01*
X512653Y181993D01*
X512746Y181892D01*
X512848Y181772D01*
X513069Y181540D01*
X513291Y181309D01*
X513402Y181198D01*
X513513Y181097D01*
X513615Y181004D01*
X513717Y180930D01*
X513726D01*
X513735Y180912D01*
X513763Y180893D01*
X513800Y180875D01*
X513901Y180810D01*
X514022Y180736D01*
X514170Y180671D01*
X514327Y180607D01*
X514502Y180570D01*
X514669Y180551D01*
X514678D01*
X514687D01*
X514743Y180560D01*
X514835Y180570D01*
X514937Y180597D01*
X515066Y180634D01*
X515196Y180699D01*
X515325Y180782D01*
X515455Y180893D01*
X515473Y180912D01*
X515510Y180958D01*
X515556Y181023D01*
X515621Y181124D01*
X515677Y181254D01*
X515732Y181402D01*
X515769Y181577D01*
X515778Y181772D01*
Y181827D01*
X515769Y181864D01*
X515760Y181975D01*
X515732Y182104D01*
X515695Y182243D01*
X515630Y182400D01*
X515547Y182548D01*
X515436Y182687D01*
X515418Y182705D01*
X515372Y182742D01*
X515298Y182798D01*
X515187Y182853D01*
X515057Y182918D01*
X514891Y182973D01*
X514706Y183010D01*
X514493Y183029D01*
X514576Y183833D01*
X514586D01*
X514613Y183824D01*
X514660D01*
X514724Y183815D01*
X514798Y183796D01*
X514882Y183778D01*
X514983Y183750D01*
X515085Y183722D01*
X515307Y183648D01*
X515529Y183537D01*
X515640Y183473D01*
X515751Y183389D01*
X515852Y183306D01*
X515945Y183214D01*
X515954Y183205D01*
X515963Y183186D01*
X515991Y183158D01*
X516019Y183112D01*
X516056Y183057D01*
X516093Y182992D01*
X516139Y182918D01*
X516185Y182826D01*
X516231Y182724D01*
X516278Y182613D01*
X516315Y182493D01*
X516352Y182363D01*
X516379Y182225D01*
X516407Y182077D01*
X516416Y181919D01*
X516426Y181753D01*
Y181661D01*
X516416Y181596D01*
X516407Y181522D01*
X516398Y181429D01*
X516379Y181328D01*
X516361Y181226D01*
X516296Y180986D01*
X516204Y180745D01*
X516148Y180625D01*
X516083Y180505D01*
X516000Y180394D01*
X515908Y180292D01*
X515899Y180283D01*
X515889Y180264D01*
X515852Y180246D01*
X515815Y180209D01*
X515769Y180163D01*
X515704Y180117D01*
X515640Y180070D01*
X515556Y180015D01*
X515381Y179922D01*
X515159Y179830D01*
X515048Y179793D01*
X514919Y179774D01*
X514789Y179756D01*
X514650Y179747D01*
X514632D01*
X514586D01*
X514512Y179756D01*
X514410Y179765D01*
X514299Y179784D01*
X514170Y179821D01*
X514031Y179858D01*
X513892Y179913D01*
X513874Y179922D01*
X513828Y179941D01*
X513754Y179978D01*
X513652Y180033D01*
X513541Y180107D01*
X513402Y180200D01*
X513264Y180311D01*
X513106Y180440D01*
X513088Y180459D01*
X513032Y180505D01*
X512986Y180551D01*
X512940Y180597D01*
X512884Y180653D01*
X512811Y180727D01*
X512737Y180801D01*
X512653Y180893D01*
X512561Y180986D01*
X512459Y181097D01*
X512357Y181217D01*
X512237Y181346D01*
X512117Y181494D01*
X511988Y181642D01*
X511978Y181651D01*
X511960Y181670D01*
X511932Y181707D01*
X511895Y181753D01*
X511840Y181808D01*
X511784Y181873D01*
X511664Y182021D01*
X511525Y182178D01*
X511387Y182326D01*
X511267Y182456D01*
X511220Y182511D01*
X511174Y182557D01*
X511165Y182567D01*
X511137Y182594D01*
X511100Y182631D01*
X511045Y182678D01*
X510980Y182724D01*
X510915Y182779D01*
X510758Y182890D01*
Y179737D01*
X510000D01*
Y183981D01*
X510009D01*
X510046D01*
X510102D01*
X510176Y183972D01*
D02*
G37*
G36*
X451509Y187541D02*
X451499Y187374D01*
X451490Y187189D01*
X451472Y187005D01*
X451444Y186820D01*
X451416Y186662D01*
Y186653D01*
X451407Y186635D01*
Y186607D01*
X451389Y186570D01*
X451361Y186468D01*
X451315Y186339D01*
X451250Y186191D01*
X451167Y186034D01*
X451074Y185877D01*
X450954Y185729D01*
X450945Y185719D01*
X450936Y185710D01*
X450908Y185682D01*
X450880Y185645D01*
X450788Y185553D01*
X450658Y185442D01*
X450501Y185322D01*
X450316Y185192D01*
X450103Y185072D01*
X449863Y184970D01*
X449854D01*
X449835Y184961D01*
X449798Y184943D01*
X449743Y184933D01*
X449678Y184906D01*
X449604Y184887D01*
X449521Y184869D01*
X449419Y184841D01*
X449318Y184813D01*
X449197Y184795D01*
X448938Y184749D01*
X448652Y184721D01*
X448338Y184712D01*
X448328D01*
X448310D01*
X448264D01*
X448217D01*
X448153Y184721D01*
X448079D01*
X447903Y184730D01*
X447700Y184758D01*
X447487Y184786D01*
X447265Y184832D01*
X447043Y184887D01*
X447034D01*
X447015Y184897D01*
X446988Y184906D01*
X446951Y184915D01*
X446849Y184952D01*
X446720Y185007D01*
X446572Y185063D01*
X446424Y185137D01*
X446267Y185229D01*
X446119Y185322D01*
X446100Y185331D01*
X446054Y185368D01*
X445989Y185424D01*
X445906Y185497D01*
X445813Y185581D01*
X445721Y185682D01*
X445619Y185784D01*
X445536Y185904D01*
X445527Y185923D01*
X445499Y185960D01*
X445462Y186024D01*
X445416Y186117D01*
X445360Y186228D01*
X445314Y186357D01*
X445259Y186505D01*
X445213Y186672D01*
Y186690D01*
X445203Y186718D01*
X445194Y186746D01*
X445185Y186838D01*
X445166Y186968D01*
X445148Y187115D01*
X445129Y187291D01*
X445120Y187485D01*
X445111Y187698D01*
Y190000D01*
X451509D01*
Y187541D01*
D02*
G37*
G36*
X446904Y183075D02*
X446895D01*
X446877Y183066D01*
X446840Y183057D01*
X446794Y183047D01*
X446738Y183038D01*
X446673Y183020D01*
X446535Y182973D01*
X446368Y182909D01*
X446211Y182826D01*
X446063Y182733D01*
X445934Y182622D01*
X445924Y182604D01*
X445887Y182567D01*
X445841Y182493D01*
X445795Y182400D01*
X445740Y182289D01*
X445693Y182151D01*
X445656Y181993D01*
X445647Y181827D01*
Y181772D01*
X445656Y181735D01*
X445666Y181633D01*
X445693Y181503D01*
X445740Y181355D01*
X445804Y181198D01*
X445897Y181041D01*
X446026Y180893D01*
X446045Y180875D01*
X446100Y180828D01*
X446183Y180773D01*
X446294Y180699D01*
X446433Y180625D01*
X446590Y180570D01*
X446775Y180523D01*
X446978Y180505D01*
X446988D01*
X447006D01*
X447034D01*
X447071Y180514D01*
X447173Y180523D01*
X447293Y180551D01*
X447441Y180588D01*
X447589Y180653D01*
X447737Y180745D01*
X447875Y180865D01*
X447894Y180884D01*
X447931Y180930D01*
X447986Y181004D01*
X448051Y181106D01*
X448116Y181235D01*
X448171Y181392D01*
X448208Y181568D01*
X448227Y181762D01*
Y181845D01*
X448217Y181910D01*
X448208Y181993D01*
X448190Y182086D01*
X448171Y182197D01*
X448143Y182317D01*
X448837Y182225D01*
Y182178D01*
X448828Y182141D01*
Y182021D01*
X448846Y181919D01*
X448865Y181799D01*
X448892Y181660D01*
X448938Y181503D01*
X449003Y181355D01*
X449086Y181198D01*
Y181189D01*
X449096Y181180D01*
X449133Y181133D01*
X449197Y181069D01*
X449281Y180995D01*
X449401Y180921D01*
X449539Y180856D01*
X449697Y180810D01*
X449789Y180791D01*
X449891D01*
X449900D01*
X449909D01*
X449965D01*
X450039Y180810D01*
X450140Y180828D01*
X450251Y180865D01*
X450372Y180912D01*
X450492Y180986D01*
X450603Y181087D01*
X450612Y181097D01*
X450649Y181143D01*
X450695Y181208D01*
X450751Y181291D01*
X450797Y181402D01*
X450843Y181531D01*
X450880Y181679D01*
X450889Y181845D01*
Y181919D01*
X450871Y182003D01*
X450852Y182114D01*
X450815Y182234D01*
X450769Y182354D01*
X450695Y182483D01*
X450603Y182604D01*
X450593Y182613D01*
X450547Y182650D01*
X450482Y182705D01*
X450390Y182770D01*
X450270Y182835D01*
X450122Y182899D01*
X449946Y182955D01*
X449743Y182992D01*
X449882Y183778D01*
X449891D01*
X449919Y183769D01*
X449955Y183759D01*
X450011Y183750D01*
X450076Y183732D01*
X450150Y183704D01*
X450325Y183648D01*
X450529Y183556D01*
X450732Y183445D01*
X450926Y183306D01*
X451102Y183131D01*
X451111Y183121D01*
X451120Y183103D01*
X451139Y183075D01*
X451167Y183038D01*
X451204Y182992D01*
X451241Y182927D01*
X451278Y182862D01*
X451324Y182779D01*
X451398Y182594D01*
X451472Y182382D01*
X451518Y182132D01*
X451536Y182003D01*
Y181772D01*
X451527Y181670D01*
X451509Y181550D01*
X451481Y181402D01*
X451435Y181235D01*
X451379Y181069D01*
X451305Y180902D01*
Y180893D01*
X451296Y180884D01*
X451268Y180828D01*
X451213Y180745D01*
X451148Y180653D01*
X451056Y180542D01*
X450954Y180431D01*
X450834Y180320D01*
X450695Y180228D01*
X450677Y180218D01*
X450630Y180191D01*
X450547Y180154D01*
X450446Y180107D01*
X450325Y180061D01*
X450187Y180024D01*
X450029Y179996D01*
X449872Y179987D01*
X449854D01*
X449798D01*
X449724Y179996D01*
X449623Y180015D01*
X449502Y180043D01*
X449373Y180089D01*
X449244Y180144D01*
X449114Y180218D01*
X449096Y180228D01*
X449059Y180255D01*
X448994Y180311D01*
X448920Y180385D01*
X448837Y180477D01*
X448744Y180588D01*
X448661Y180718D01*
X448578Y180875D01*
Y180865D01*
X448569Y180847D01*
X448559Y180819D01*
X448550Y180782D01*
X448513Y180681D01*
X448458Y180551D01*
X448384Y180403D01*
X448291Y180255D01*
X448171Y180117D01*
X448032Y179987D01*
X448014Y179978D01*
X447958Y179941D01*
X447866Y179885D01*
X447746Y179830D01*
X447598Y179774D01*
X447422Y179719D01*
X447219Y179682D01*
X446997Y179673D01*
X446988D01*
X446960D01*
X446914D01*
X446858Y179682D01*
X446784Y179691D01*
X446701Y179710D01*
X446609Y179728D01*
X446507Y179747D01*
X446285Y179821D01*
X446165Y179876D01*
X446054Y179932D01*
X445934Y180006D01*
X445813Y180089D01*
X445693Y180181D01*
X445582Y180292D01*
X445573Y180301D01*
X445555Y180320D01*
X445527Y180357D01*
X445490Y180403D01*
X445444Y180459D01*
X445397Y180533D01*
X445342Y180616D01*
X445296Y180718D01*
X445240Y180819D01*
X445185Y180939D01*
X445139Y181060D01*
X445092Y181198D01*
X445055Y181346D01*
X445028Y181503D01*
X445009Y181660D01*
X445000Y181836D01*
Y181919D01*
X445009Y181975D01*
X445018Y182049D01*
X445028Y182132D01*
X445046Y182225D01*
X445065Y182326D01*
X445120Y182548D01*
X445213Y182779D01*
X445268Y182899D01*
X445333Y183010D01*
X445416Y183121D01*
X445499Y183232D01*
X445508Y183242D01*
X445527Y183260D01*
X445555Y183288D01*
X445592Y183316D01*
X445638Y183362D01*
X445703Y183408D01*
X445767Y183463D01*
X445850Y183519D01*
X445943Y183574D01*
X446035Y183630D01*
X446257Y183732D01*
X446516Y183815D01*
X446655Y183843D01*
X446803Y183861D01*
X446904Y183075D01*
D02*
G37*
G36*
X391398Y187541D02*
X391389Y187374D01*
X391379Y187189D01*
X391361Y187005D01*
X391333Y186820D01*
X391305Y186662D01*
Y186653D01*
X391296Y186635D01*
Y186607D01*
X391278Y186570D01*
X391250Y186468D01*
X391204Y186339D01*
X391139Y186191D01*
X391056Y186034D01*
X390963Y185877D01*
X390843Y185729D01*
X390834Y185719D01*
X390825Y185710D01*
X390797Y185682D01*
X390769Y185645D01*
X390677Y185553D01*
X390547Y185442D01*
X390390Y185322D01*
X390205Y185192D01*
X389992Y185072D01*
X389752Y184970D01*
X389743D01*
X389724Y184961D01*
X389687Y184943D01*
X389632Y184933D01*
X389567Y184906D01*
X389493Y184887D01*
X389410Y184869D01*
X389308Y184841D01*
X389207Y184813D01*
X389086Y184795D01*
X388828Y184749D01*
X388541Y184721D01*
X388227Y184712D01*
X388217D01*
X388199D01*
X388153D01*
X388106D01*
X388042Y184721D01*
X387968D01*
X387792Y184730D01*
X387589Y184758D01*
X387376Y184786D01*
X387154Y184832D01*
X386932Y184887D01*
X386923D01*
X386904Y184897D01*
X386877Y184906D01*
X386840Y184915D01*
X386738Y184952D01*
X386609Y185007D01*
X386461Y185063D01*
X386313Y185137D01*
X386156Y185229D01*
X386008Y185322D01*
X385989Y185331D01*
X385943Y185368D01*
X385878Y185424D01*
X385795Y185497D01*
X385703Y185581D01*
X385610Y185682D01*
X385508Y185784D01*
X385425Y185904D01*
X385416Y185923D01*
X385388Y185960D01*
X385351Y186024D01*
X385305Y186117D01*
X385249Y186228D01*
X385203Y186357D01*
X385148Y186505D01*
X385102Y186672D01*
Y186690D01*
X385092Y186718D01*
X385083Y186746D01*
X385074Y186838D01*
X385055Y186968D01*
X385037Y187115D01*
X385018Y187291D01*
X385009Y187485D01*
X385000Y187698D01*
Y190000D01*
X391398D01*
Y187541D01*
D02*
G37*
G36*
Y181208D02*
Y180570D01*
X387256D01*
Y179701D01*
X386535D01*
Y180570D01*
X385000D01*
Y181355D01*
X386535D01*
Y184138D01*
X387256D01*
X391398Y181208D01*
D02*
G37*
G36*
X331509Y187541D02*
X331499Y187374D01*
X331490Y187189D01*
X331472Y187005D01*
X331444Y186820D01*
X331416Y186662D01*
Y186653D01*
X331407Y186635D01*
Y186607D01*
X331389Y186570D01*
X331361Y186468D01*
X331315Y186339D01*
X331250Y186191D01*
X331167Y186034D01*
X331074Y185877D01*
X330954Y185729D01*
X330945Y185719D01*
X330936Y185710D01*
X330908Y185682D01*
X330880Y185645D01*
X330788Y185553D01*
X330658Y185442D01*
X330501Y185322D01*
X330316Y185192D01*
X330103Y185072D01*
X329863Y184970D01*
X329854D01*
X329835Y184961D01*
X329798Y184943D01*
X329743Y184933D01*
X329678Y184906D01*
X329604Y184887D01*
X329521Y184869D01*
X329419Y184841D01*
X329318Y184813D01*
X329197Y184795D01*
X328938Y184749D01*
X328652Y184721D01*
X328338Y184712D01*
X328328D01*
X328310D01*
X328264D01*
X328217D01*
X328153Y184721D01*
X328079D01*
X327903Y184730D01*
X327700Y184758D01*
X327487Y184786D01*
X327265Y184832D01*
X327043Y184887D01*
X327034D01*
X327015Y184897D01*
X326988Y184906D01*
X326951Y184915D01*
X326849Y184952D01*
X326720Y185007D01*
X326572Y185063D01*
X326424Y185137D01*
X326267Y185229D01*
X326119Y185322D01*
X326100Y185331D01*
X326054Y185368D01*
X325989Y185424D01*
X325906Y185497D01*
X325813Y185581D01*
X325721Y185682D01*
X325619Y185784D01*
X325536Y185904D01*
X325527Y185923D01*
X325499Y185960D01*
X325462Y186024D01*
X325416Y186117D01*
X325360Y186228D01*
X325314Y186357D01*
X325259Y186505D01*
X325213Y186672D01*
Y186690D01*
X325203Y186718D01*
X325194Y186746D01*
X325185Y186838D01*
X325166Y186968D01*
X325148Y187115D01*
X325129Y187291D01*
X325120Y187485D01*
X325111Y187698D01*
Y190000D01*
X331509D01*
Y187541D01*
D02*
G37*
G36*
X326849Y183047D02*
X326840D01*
X326821D01*
X326794Y183038D01*
X326747Y183029D01*
X326646Y183001D01*
X326507Y182964D01*
X326368Y182909D01*
X326211Y182835D01*
X326072Y182742D01*
X325943Y182631D01*
X325934Y182613D01*
X325897Y182576D01*
X325850Y182502D01*
X325795Y182400D01*
X325740Y182289D01*
X325693Y182151D01*
X325656Y181993D01*
X325647Y181818D01*
Y181762D01*
X325656Y181725D01*
X325666Y181614D01*
X325703Y181485D01*
X325749Y181328D01*
X325823Y181171D01*
X325934Y181004D01*
X325998Y180930D01*
X326072Y180856D01*
X326082Y180847D01*
X326091Y180838D01*
X326119Y180819D01*
X326146Y180791D01*
X326248Y180727D01*
X326377Y180653D01*
X326535Y180588D01*
X326729Y180523D01*
X326960Y180477D01*
X327080Y180459D01*
X327210D01*
X327219D01*
X327237D01*
X327274D01*
X327321Y180468D01*
X327376D01*
X327441Y180477D01*
X327589Y180505D01*
X327764Y180551D01*
X327940Y180616D01*
X328106Y180708D01*
X328264Y180838D01*
X328273D01*
X328282Y180856D01*
X328328Y180902D01*
X328393Y180986D01*
X328467Y181097D01*
X328532Y181245D01*
X328596Y181411D01*
X328643Y181605D01*
X328661Y181716D01*
Y181892D01*
X328652Y181966D01*
X328643Y182058D01*
X328615Y182169D01*
X328587Y182280D01*
X328541Y182400D01*
X328485Y182520D01*
X328476Y182530D01*
X328458Y182567D01*
X328411Y182622D01*
X328365Y182696D01*
X328301Y182770D01*
X328217Y182844D01*
X328134Y182927D01*
X328032Y182992D01*
X328134Y183732D01*
X331426Y183112D01*
Y179932D01*
X330677D01*
Y182493D01*
X328948Y182835D01*
X328957Y182826D01*
X328966Y182807D01*
X328985Y182779D01*
X329012Y182733D01*
X329040Y182678D01*
X329077Y182613D01*
X329151Y182465D01*
X329225Y182280D01*
X329290Y182077D01*
X329336Y181855D01*
X329355Y181744D01*
Y181540D01*
X329345Y181485D01*
X329336Y181411D01*
X329327Y181328D01*
X329308Y181235D01*
X329281Y181133D01*
X329216Y180912D01*
X329170Y180791D01*
X329105Y180671D01*
X329040Y180551D01*
X328966Y180431D01*
X328874Y180320D01*
X328772Y180209D01*
X328763Y180200D01*
X328744Y180181D01*
X328717Y180154D01*
X328670Y180117D01*
X328606Y180070D01*
X328541Y180024D01*
X328458Y179969D01*
X328365Y179913D01*
X328264Y179867D01*
X328153Y179811D01*
X328023Y179765D01*
X327894Y179719D01*
X327755Y179682D01*
X327598Y179654D01*
X327441Y179636D01*
X327274Y179627D01*
X327265D01*
X327237D01*
X327191D01*
X327126Y179636D01*
X327052Y179645D01*
X326969Y179654D01*
X326867Y179673D01*
X326766Y179691D01*
X326525Y179747D01*
X326276Y179839D01*
X326146Y179895D01*
X326026Y179969D01*
X325897Y180043D01*
X325776Y180135D01*
X325767Y180144D01*
X325740Y180163D01*
X325703Y180200D01*
X325656Y180246D01*
X325601Y180311D01*
X325527Y180385D01*
X325462Y180477D01*
X325388Y180579D01*
X325314Y180690D01*
X325249Y180819D01*
X325185Y180958D01*
X325120Y181106D01*
X325074Y181263D01*
X325037Y181439D01*
X325009Y181624D01*
X325000Y181818D01*
Y181901D01*
X325009Y181966D01*
X325018Y182040D01*
X325028Y182123D01*
X325037Y182225D01*
X325065Y182326D01*
X325120Y182557D01*
X325203Y182789D01*
X325259Y182909D01*
X325323Y183029D01*
X325397Y183140D01*
X325481Y183251D01*
X325490Y183260D01*
X325499Y183279D01*
X325536Y183297D01*
X325573Y183334D01*
X325619Y183380D01*
X325675Y183426D01*
X325749Y183482D01*
X325832Y183528D01*
X325915Y183584D01*
X326017Y183639D01*
X326239Y183741D01*
X326498Y183824D01*
X326636Y183852D01*
X326784Y183870D01*
X326849Y183047D01*
D02*
G37*
G36*
X271509Y187541D02*
X271500Y187374D01*
X271490Y187189D01*
X271472Y187005D01*
X271444Y186820D01*
X271416Y186662D01*
Y186653D01*
X271407Y186635D01*
Y186607D01*
X271388Y186570D01*
X271361Y186468D01*
X271315Y186339D01*
X271250Y186191D01*
X271167Y186034D01*
X271074Y185877D01*
X270954Y185729D01*
X270945Y185719D01*
X270935Y185710D01*
X270908Y185682D01*
X270880Y185645D01*
X270788Y185553D01*
X270658Y185442D01*
X270501Y185322D01*
X270316Y185192D01*
X270103Y185072D01*
X269863Y184970D01*
X269854D01*
X269835Y184961D01*
X269798Y184943D01*
X269743Y184933D01*
X269678Y184906D01*
X269604Y184887D01*
X269521Y184869D01*
X269419Y184841D01*
X269317Y184813D01*
X269197Y184795D01*
X268939Y184749D01*
X268652Y184721D01*
X268337Y184712D01*
X268328D01*
X268310D01*
X268263D01*
X268217D01*
X268153Y184721D01*
X268079D01*
X267903Y184730D01*
X267700Y184758D01*
X267487Y184786D01*
X267265Y184832D01*
X267043Y184887D01*
X267034D01*
X267015Y184897D01*
X266988Y184906D01*
X266951Y184915D01*
X266849Y184952D01*
X266719Y185007D01*
X266572Y185063D01*
X266424Y185137D01*
X266266Y185229D01*
X266119Y185322D01*
X266100Y185331D01*
X266054Y185368D01*
X265989Y185424D01*
X265906Y185497D01*
X265813Y185581D01*
X265721Y185682D01*
X265619Y185784D01*
X265536Y185904D01*
X265527Y185923D01*
X265499Y185960D01*
X265462Y186024D01*
X265416Y186117D01*
X265360Y186228D01*
X265314Y186357D01*
X265259Y186505D01*
X265212Y186672D01*
Y186690D01*
X265203Y186718D01*
X265194Y186746D01*
X265185Y186838D01*
X265166Y186968D01*
X265148Y187115D01*
X265129Y187291D01*
X265120Y187485D01*
X265111Y187698D01*
Y190000D01*
X271509D01*
Y187541D01*
D02*
G37*
G36*
X268273Y183898D02*
X268402D01*
X268550Y183889D01*
X268726Y183870D01*
X268920Y183852D01*
X269133Y183824D01*
X269345Y183787D01*
X269576Y183741D01*
X269798Y183685D01*
X270020Y183621D01*
X270233Y183537D01*
X270436Y183445D01*
X270630Y183343D01*
X270797Y183223D01*
X270806Y183214D01*
X270825Y183195D01*
X270861Y183158D01*
X270917Y183112D01*
X270972Y183057D01*
X271028Y182983D01*
X271102Y182890D01*
X271167Y182798D01*
X271231Y182687D01*
X271305Y182567D01*
X271361Y182428D01*
X271425Y182289D01*
X271472Y182132D01*
X271509Y181966D01*
X271527Y181790D01*
X271537Y181605D01*
Y181531D01*
X271527Y181476D01*
Y181411D01*
X271518Y181337D01*
X271481Y181161D01*
X271435Y180967D01*
X271361Y180764D01*
X271250Y180560D01*
X271185Y180459D01*
X271111Y180366D01*
X271102Y180357D01*
X271093Y180348D01*
X271065Y180320D01*
X271037Y180292D01*
X270991Y180246D01*
X270935Y180209D01*
X270806Y180107D01*
X270640Y180006D01*
X270436Y179913D01*
X270205Y179830D01*
X269946Y179774D01*
X269881Y180560D01*
X269891D01*
X269900Y180570D01*
X269956Y180579D01*
X270039Y180607D01*
X270140Y180644D01*
X270251Y180681D01*
X270362Y180736D01*
X270464Y180801D01*
X270547Y180865D01*
X270566Y180884D01*
X270603Y180921D01*
X270658Y180986D01*
X270723Y181078D01*
X270778Y181198D01*
X270834Y181328D01*
X270871Y181485D01*
X270889Y181651D01*
Y181716D01*
X270880Y181790D01*
X270861Y181873D01*
X270834Y181984D01*
X270797Y182095D01*
X270751Y182206D01*
X270677Y182317D01*
X270667Y182335D01*
X270630Y182382D01*
X270566Y182446D01*
X270473Y182530D01*
X270362Y182622D01*
X270233Y182724D01*
X270066Y182816D01*
X269881Y182909D01*
X269872D01*
X269854Y182918D01*
X269826Y182927D01*
X269789Y182946D01*
X269734Y182955D01*
X269669Y182973D01*
X269595Y182992D01*
X269502Y183010D01*
X269401Y183038D01*
X269290Y183057D01*
X269170Y183075D01*
X269040Y183084D01*
X268892Y183103D01*
X268744Y183112D01*
X268578Y183121D01*
X268412D01*
X268421Y183112D01*
X268476Y183075D01*
X268550Y183010D01*
X268643Y182927D01*
X268754Y182835D01*
X268855Y182715D01*
X268957Y182585D01*
X269049Y182437D01*
Y182428D01*
X269059Y182419D01*
X269086Y182363D01*
X269114Y182280D01*
X269160Y182169D01*
X269197Y182040D01*
X269225Y181892D01*
X269253Y181735D01*
X269262Y181568D01*
Y181494D01*
X269253Y181439D01*
X269244Y181365D01*
X269234Y181291D01*
X269216Y181198D01*
X269188Y181106D01*
X269123Y180893D01*
X269077Y180782D01*
X269012Y180671D01*
X268948Y180560D01*
X268874Y180440D01*
X268781Y180329D01*
X268680Y180228D01*
X268670Y180218D01*
X268652Y180200D01*
X268624Y180172D01*
X268578Y180144D01*
X268513Y180098D01*
X268448Y180052D01*
X268365Y180006D01*
X268273Y179950D01*
X268171Y179895D01*
X268060Y179848D01*
X267931Y179802D01*
X267801Y179756D01*
X267663Y179728D01*
X267505Y179701D01*
X267348Y179682D01*
X267182Y179673D01*
X267173D01*
X267154D01*
X267126D01*
X267080D01*
X267025Y179682D01*
X266969D01*
X266821Y179710D01*
X266646Y179737D01*
X266461Y179784D01*
X266257Y179848D01*
X266063Y179941D01*
X266054D01*
X266045Y179950D01*
X266017Y179969D01*
X265980Y179987D01*
X265887Y180043D01*
X265767Y180126D01*
X265638Y180228D01*
X265508Y180348D01*
X265379Y180496D01*
X265268Y180653D01*
Y180662D01*
X265259Y180671D01*
X265240Y180699D01*
X265231Y180736D01*
X265185Y180828D01*
X265138Y180949D01*
X265083Y181106D01*
X265046Y181282D01*
X265009Y181476D01*
X265000Y181688D01*
Y181735D01*
X265009Y181781D01*
Y181855D01*
X265018Y181938D01*
X265037Y182030D01*
X265065Y182141D01*
X265092Y182252D01*
X265129Y182382D01*
X265175Y182511D01*
X265231Y182641D01*
X265305Y182779D01*
X265388Y182909D01*
X265481Y183038D01*
X265592Y183168D01*
X265721Y183288D01*
X265730Y183297D01*
X265758Y183316D01*
X265795Y183343D01*
X265860Y183380D01*
X265943Y183436D01*
X266035Y183482D01*
X266155Y183537D01*
X266285Y183593D01*
X266442Y183658D01*
X266618Y183713D01*
X266812Y183759D01*
X267025Y183806D01*
X267265Y183852D01*
X267524Y183880D01*
X267801Y183898D01*
X268097Y183907D01*
X268106D01*
X268116D01*
X268143D01*
X268180D01*
X268273Y183898D01*
D02*
G37*
G36*
X211398Y187541D02*
X211389Y187374D01*
X211379Y187189D01*
X211361Y187005D01*
X211333Y186820D01*
X211305Y186662D01*
Y186653D01*
X211296Y186635D01*
Y186607D01*
X211278Y186570D01*
X211250Y186468D01*
X211204Y186339D01*
X211139Y186191D01*
X211056Y186034D01*
X210963Y185877D01*
X210843Y185729D01*
X210834Y185719D01*
X210825Y185710D01*
X210797Y185682D01*
X210769Y185645D01*
X210677Y185553D01*
X210547Y185442D01*
X210390Y185322D01*
X210205Y185192D01*
X209993Y185072D01*
X209752Y184970D01*
X209743D01*
X209724Y184961D01*
X209687Y184943D01*
X209632Y184933D01*
X209567Y184906D01*
X209493Y184887D01*
X209410Y184869D01*
X209308Y184841D01*
X209207Y184813D01*
X209086Y184795D01*
X208827Y184749D01*
X208541Y184721D01*
X208227Y184712D01*
X208217D01*
X208199D01*
X208153D01*
X208106D01*
X208042Y184721D01*
X207968D01*
X207792Y184730D01*
X207589Y184758D01*
X207376Y184786D01*
X207154Y184832D01*
X206932Y184887D01*
X206923D01*
X206904Y184897D01*
X206877Y184906D01*
X206840Y184915D01*
X206738Y184952D01*
X206609Y185007D01*
X206461Y185063D01*
X206313Y185137D01*
X206155Y185229D01*
X206008Y185322D01*
X205989Y185331D01*
X205943Y185368D01*
X205878Y185424D01*
X205795Y185497D01*
X205702Y185581D01*
X205610Y185682D01*
X205508Y185784D01*
X205425Y185904D01*
X205416Y185923D01*
X205388Y185960D01*
X205351Y186024D01*
X205305Y186117D01*
X205250Y186228D01*
X205203Y186357D01*
X205148Y186505D01*
X205102Y186672D01*
Y186690D01*
X205092Y186718D01*
X205083Y186746D01*
X205074Y186838D01*
X205055Y186968D01*
X205037Y187115D01*
X205018Y187291D01*
X205009Y187485D01*
X205000Y187698D01*
Y190000D01*
X211398D01*
Y187541D01*
D02*
G37*
G36*
X211315Y179673D02*
X210695D01*
X210686Y179682D01*
X210667Y179701D01*
X210630Y179737D01*
X210575Y179774D01*
X210510Y179830D01*
X210436Y179904D01*
X210344Y179978D01*
X210233Y180061D01*
X210122Y180144D01*
X209993Y180246D01*
X209844Y180348D01*
X209697Y180449D01*
X209530Y180560D01*
X209354Y180671D01*
X209160Y180782D01*
X208966Y180893D01*
X208957Y180902D01*
X208920Y180921D01*
X208864Y180949D01*
X208781Y180995D01*
X208680Y181041D01*
X208569Y181097D01*
X208439Y181161D01*
X208291Y181226D01*
X208125Y181300D01*
X207958Y181383D01*
X207773Y181457D01*
X207579Y181531D01*
X207182Y181679D01*
X206756Y181818D01*
X206747D01*
X206719Y181827D01*
X206673Y181836D01*
X206618Y181855D01*
X206544Y181873D01*
X206451Y181892D01*
X206350Y181919D01*
X206239Y181938D01*
X206109Y181966D01*
X205971Y181993D01*
X205675Y182040D01*
X205351Y182086D01*
X205000Y182114D01*
Y182918D01*
X205009D01*
X205037D01*
X205074D01*
X205129Y182909D01*
X205203D01*
X205296Y182899D01*
X205397Y182890D01*
X205508Y182881D01*
X205638Y182862D01*
X205767Y182844D01*
X205924Y182816D01*
X206082Y182789D01*
X206248Y182761D01*
X206433Y182724D01*
X206812Y182631D01*
X206821D01*
X206858Y182622D01*
X206914Y182604D01*
X206997Y182576D01*
X207089Y182548D01*
X207200Y182511D01*
X207330Y182474D01*
X207468Y182419D01*
X207626Y182363D01*
X207783Y182308D01*
X208134Y182169D01*
X208504Y182003D01*
X208874Y181818D01*
X208883Y181808D01*
X208920Y181790D01*
X208966Y181762D01*
X209040Y181725D01*
X209123Y181679D01*
X209225Y181614D01*
X209336Y181550D01*
X209456Y181476D01*
X209724Y181300D01*
X210002Y181115D01*
X210288Y180902D01*
X210556Y180681D01*
Y183815D01*
X211315D01*
Y179673D01*
D02*
G37*
G36*
X151509Y187541D02*
X151500Y187374D01*
X151490Y187189D01*
X151472Y187005D01*
X151444Y186820D01*
X151416Y186662D01*
Y186653D01*
X151407Y186635D01*
Y186607D01*
X151389Y186570D01*
X151361Y186468D01*
X151315Y186339D01*
X151250Y186191D01*
X151167Y186034D01*
X151074Y185877D01*
X150954Y185729D01*
X150945Y185719D01*
X150935Y185710D01*
X150908Y185682D01*
X150880Y185645D01*
X150788Y185553D01*
X150658Y185442D01*
X150501Y185322D01*
X150316Y185192D01*
X150103Y185072D01*
X149863Y184970D01*
X149854D01*
X149835Y184961D01*
X149798Y184943D01*
X149743Y184933D01*
X149678Y184906D01*
X149604Y184887D01*
X149521Y184869D01*
X149419Y184841D01*
X149318Y184813D01*
X149197Y184795D01*
X148939Y184749D01*
X148652Y184721D01*
X148337Y184712D01*
X148328D01*
X148310D01*
X148264D01*
X148217D01*
X148153Y184721D01*
X148079D01*
X147903Y184730D01*
X147700Y184758D01*
X147487Y184786D01*
X147265Y184832D01*
X147043Y184887D01*
X147034D01*
X147015Y184897D01*
X146988Y184906D01*
X146951Y184915D01*
X146849Y184952D01*
X146720Y185007D01*
X146572Y185063D01*
X146424Y185137D01*
X146266Y185229D01*
X146119Y185322D01*
X146100Y185331D01*
X146054Y185368D01*
X145989Y185424D01*
X145906Y185497D01*
X145814Y185581D01*
X145721Y185682D01*
X145619Y185784D01*
X145536Y185904D01*
X145527Y185923D01*
X145499Y185960D01*
X145462Y186024D01*
X145416Y186117D01*
X145360Y186228D01*
X145314Y186357D01*
X145259Y186505D01*
X145212Y186672D01*
Y186690D01*
X145203Y186718D01*
X145194Y186746D01*
X145185Y186838D01*
X145166Y186968D01*
X145148Y187115D01*
X145129Y187291D01*
X145120Y187485D01*
X145111Y187698D01*
Y190000D01*
X151509D01*
Y187541D01*
D02*
G37*
G36*
X147052Y183870D02*
X147108D01*
X147173Y183861D01*
X147320Y183843D01*
X147487Y183806D01*
X147653Y183750D01*
X147829Y183667D01*
X147995Y183565D01*
X148005D01*
X148014Y183547D01*
X148060Y183510D01*
X148134Y183436D01*
X148227Y183334D01*
X148319Y183205D01*
X148421Y183047D01*
X148504Y182872D01*
X148569Y182659D01*
Y182668D01*
X148578Y182678D01*
X148587Y182705D01*
X148606Y182742D01*
X148643Y182826D01*
X148698Y182936D01*
X148772Y183057D01*
X148864Y183177D01*
X148966Y183288D01*
X149077Y183389D01*
X149096Y183399D01*
X149133Y183426D01*
X149207Y183463D01*
X149299Y183500D01*
X149419Y183547D01*
X149558Y183584D01*
X149715Y183611D01*
X149881Y183621D01*
X149891D01*
X149909D01*
X149946D01*
X150002Y183611D01*
X150057Y183602D01*
X150131Y183593D01*
X150288Y183556D01*
X150473Y183500D01*
X150667Y183408D01*
X150769Y183353D01*
X150871Y183288D01*
X150963Y183205D01*
X151056Y183121D01*
X151065Y183112D01*
X151074Y183094D01*
X151102Y183066D01*
X151130Y183029D01*
X151167Y182983D01*
X151204Y182918D01*
X151250Y182844D01*
X151296Y182770D01*
X151342Y182678D01*
X151389Y182576D01*
X151426Y182465D01*
X151462Y182345D01*
X151518Y182086D01*
X151527Y181938D01*
X151537Y181790D01*
Y181707D01*
X151527Y181651D01*
X151518Y181577D01*
X151509Y181494D01*
X151500Y181402D01*
X151472Y181309D01*
X151416Y181087D01*
X151333Y180865D01*
X151278Y180755D01*
X151213Y180644D01*
X151130Y180542D01*
X151046Y180440D01*
X151037Y180431D01*
X151028Y180422D01*
X151000Y180394D01*
X150963Y180357D01*
X150908Y180320D01*
X150852Y180274D01*
X150714Y180181D01*
X150538Y180089D01*
X150335Y180006D01*
X150103Y179941D01*
X149983Y179932D01*
X149854Y179922D01*
X149845D01*
X149835D01*
X149780D01*
X149697Y179932D01*
X149595Y179950D01*
X149466Y179978D01*
X149336Y180024D01*
X149207Y180079D01*
X149077Y180163D01*
X149059Y180172D01*
X149022Y180209D01*
X148966Y180264D01*
X148892Y180338D01*
X148809Y180440D01*
X148726Y180560D01*
X148643Y180699D01*
X148569Y180865D01*
Y180856D01*
X148559Y180838D01*
X148550Y180810D01*
X148532Y180773D01*
X148485Y180662D01*
X148421Y180533D01*
X148328Y180394D01*
X148227Y180246D01*
X148097Y180107D01*
X147949Y179978D01*
X147940D01*
X147931Y179969D01*
X147875Y179932D01*
X147783Y179876D01*
X147663Y179821D01*
X147515Y179765D01*
X147339Y179710D01*
X147145Y179673D01*
X146932Y179664D01*
X146923D01*
X146895D01*
X146849D01*
X146793Y179673D01*
X146729Y179682D01*
X146646Y179691D01*
X146553Y179710D01*
X146451Y179737D01*
X146239Y179802D01*
X146119Y179848D01*
X146008Y179913D01*
X145887Y179978D01*
X145777Y180052D01*
X145666Y180144D01*
X145555Y180246D01*
X145545Y180255D01*
X145527Y180274D01*
X145499Y180301D01*
X145471Y180348D01*
X145425Y180412D01*
X145379Y180477D01*
X145333Y180560D01*
X145277Y180653D01*
X145222Y180755D01*
X145176Y180875D01*
X145129Y181004D01*
X145083Y181133D01*
X145055Y181282D01*
X145028Y181439D01*
X145009Y181596D01*
X145000Y181772D01*
Y181864D01*
X145009Y181929D01*
X145018Y182012D01*
X145028Y182104D01*
X145046Y182206D01*
X145074Y182317D01*
X145139Y182567D01*
X145185Y182696D01*
X145231Y182816D01*
X145296Y182946D01*
X145370Y183075D01*
X145453Y183195D01*
X145555Y183306D01*
X145564Y183316D01*
X145582Y183334D01*
X145610Y183362D01*
X145656Y183399D01*
X145712Y183436D01*
X145777Y183491D01*
X145850Y183537D01*
X145943Y183593D01*
X146035Y183648D01*
X146146Y183695D01*
X146377Y183787D01*
X146516Y183824D01*
X146655Y183852D01*
X146803Y183870D01*
X146951Y183880D01*
X146960D01*
X146978D01*
X147015D01*
X147052Y183870D01*
D02*
G37*
G36*
X91509Y187541D02*
X91500Y187374D01*
X91490Y187189D01*
X91472Y187005D01*
X91444Y186820D01*
X91416Y186662D01*
Y186653D01*
X91407Y186635D01*
Y186607D01*
X91389Y186570D01*
X91361Y186468D01*
X91315Y186339D01*
X91250Y186191D01*
X91167Y186034D01*
X91074Y185877D01*
X90954Y185729D01*
X90945Y185719D01*
X90936Y185710D01*
X90908Y185682D01*
X90880Y185645D01*
X90788Y185553D01*
X90658Y185442D01*
X90501Y185322D01*
X90316Y185192D01*
X90104Y185072D01*
X89863Y184970D01*
X89854D01*
X89835Y184961D01*
X89798Y184943D01*
X89743Y184933D01*
X89678Y184906D01*
X89604Y184887D01*
X89521Y184869D01*
X89419Y184841D01*
X89318Y184813D01*
X89197Y184795D01*
X88939Y184749D01*
X88652Y184721D01*
X88337Y184712D01*
X88328D01*
X88310D01*
X88264D01*
X88217D01*
X88153Y184721D01*
X88079D01*
X87903Y184730D01*
X87700Y184758D01*
X87487Y184786D01*
X87265Y184832D01*
X87043Y184887D01*
X87034D01*
X87015Y184897D01*
X86988Y184906D01*
X86951Y184915D01*
X86849Y184952D01*
X86720Y185007D01*
X86572Y185063D01*
X86424Y185137D01*
X86266Y185229D01*
X86119Y185322D01*
X86100Y185331D01*
X86054Y185368D01*
X85989Y185424D01*
X85906Y185497D01*
X85814Y185581D01*
X85721Y185682D01*
X85619Y185784D01*
X85536Y185904D01*
X85527Y185923D01*
X85499Y185960D01*
X85462Y186024D01*
X85416Y186117D01*
X85360Y186228D01*
X85314Y186357D01*
X85259Y186505D01*
X85212Y186672D01*
Y186690D01*
X85203Y186718D01*
X85194Y186746D01*
X85185Y186838D01*
X85166Y186968D01*
X85148Y187115D01*
X85129Y187291D01*
X85120Y187485D01*
X85111Y187698D01*
Y190000D01*
X91509D01*
Y187541D01*
D02*
G37*
G36*
X89530Y183861D02*
X89613Y183852D01*
X89715Y183843D01*
X89817Y183824D01*
X89937Y183796D01*
X90177Y183732D01*
X90307Y183685D01*
X90445Y183630D01*
X90575Y183565D01*
X90695Y183482D01*
X90825Y183399D01*
X90936Y183297D01*
X90945Y183288D01*
X90963Y183269D01*
X90991Y183242D01*
X91028Y183195D01*
X91074Y183140D01*
X91130Y183066D01*
X91176Y182992D01*
X91241Y182899D01*
X91296Y182807D01*
X91342Y182696D01*
X91444Y182446D01*
X91481Y182317D01*
X91509Y182169D01*
X91527Y182021D01*
X91537Y181864D01*
Y181799D01*
X91527Y181753D01*
Y181707D01*
X91518Y181642D01*
X91490Y181485D01*
X91453Y181309D01*
X91389Y181115D01*
X91305Y180921D01*
X91194Y180727D01*
Y180718D01*
X91176Y180708D01*
X91158Y180681D01*
X91130Y180644D01*
X91056Y180551D01*
X90954Y180431D01*
X90815Y180311D01*
X90649Y180172D01*
X90455Y180052D01*
X90233Y179941D01*
X90224D01*
X90205Y179932D01*
X90168Y179913D01*
X90122Y179895D01*
X90057Y179876D01*
X89974Y179848D01*
X89882Y179830D01*
X89780Y179802D01*
X89660Y179774D01*
X89521Y179747D01*
X89373Y179728D01*
X89216Y179710D01*
X89040Y179691D01*
X88855Y179673D01*
X88652Y179664D01*
X88439D01*
X88430D01*
X88384D01*
X88319D01*
X88236D01*
X88134Y179673D01*
X88014D01*
X87875Y179682D01*
X87737Y179701D01*
X87422Y179728D01*
X87089Y179774D01*
X86775Y179839D01*
X86618Y179885D01*
X86479Y179932D01*
X86470D01*
X86451Y179941D01*
X86414Y179959D01*
X86359Y179978D01*
X86304Y180006D01*
X86229Y180043D01*
X86072Y180135D01*
X85897Y180246D01*
X85712Y180375D01*
X85536Y180542D01*
X85379Y180727D01*
Y180736D01*
X85360Y180755D01*
X85342Y180782D01*
X85323Y180819D01*
X85296Y180875D01*
X85259Y180930D01*
X85222Y181004D01*
X85194Y181078D01*
X85120Y181254D01*
X85055Y181466D01*
X85018Y181698D01*
X85000Y181956D01*
Y182030D01*
X85009Y182077D01*
Y182141D01*
X85018Y182215D01*
X85055Y182391D01*
X85102Y182585D01*
X85176Y182789D01*
X85277Y182992D01*
X85342Y183094D01*
X85416Y183186D01*
X85425Y183195D01*
X85434Y183205D01*
X85462Y183232D01*
X85490Y183260D01*
X85536Y183297D01*
X85592Y183343D01*
X85721Y183436D01*
X85887Y183528D01*
X86091Y183621D01*
X86322Y183695D01*
X86590Y183750D01*
X86655Y182992D01*
X86646D01*
X86627Y182983D01*
X86609D01*
X86572Y182973D01*
X86470Y182946D01*
X86359Y182909D01*
X86229Y182862D01*
X86100Y182798D01*
X85980Y182724D01*
X85878Y182631D01*
X85869Y182622D01*
X85841Y182585D01*
X85804Y182520D01*
X85767Y182446D01*
X85721Y182345D01*
X85684Y182225D01*
X85656Y182086D01*
X85647Y181938D01*
Y181873D01*
X85656Y181808D01*
X85666Y181725D01*
X85684Y181624D01*
X85712Y181522D01*
X85749Y181411D01*
X85804Y181309D01*
X85814Y181300D01*
X85832Y181263D01*
X85869Y181208D01*
X85924Y181152D01*
X85989Y181078D01*
X86063Y181004D01*
X86146Y180930D01*
X86248Y180856D01*
X86257Y180847D01*
X86304Y180828D01*
X86368Y180791D01*
X86451Y180755D01*
X86562Y180708D01*
X86692Y180662D01*
X86840Y180616D01*
X87006Y180570D01*
X87015D01*
X87025Y180560D01*
X87052D01*
X87089Y180551D01*
X87182Y180533D01*
X87302Y180505D01*
X87450Y180486D01*
X87607Y180468D01*
X87783Y180459D01*
X87968Y180449D01*
X87977D01*
X88005D01*
X88051D01*
X88125D01*
X88106Y180459D01*
X88060Y180496D01*
X87996Y180551D01*
X87903Y180616D01*
X87810Y180708D01*
X87709Y180819D01*
X87607Y180949D01*
X87515Y181097D01*
X87505Y181115D01*
X87478Y181171D01*
X87441Y181254D01*
X87404Y181355D01*
X87358Y181494D01*
X87320Y181642D01*
X87293Y181808D01*
X87283Y181984D01*
Y182058D01*
X87293Y182114D01*
X87302Y182188D01*
X87311Y182262D01*
X87330Y182354D01*
X87358Y182446D01*
X87422Y182659D01*
X87469Y182770D01*
X87524Y182881D01*
X87589Y183001D01*
X87672Y183112D01*
X87755Y183223D01*
X87857Y183325D01*
X87866Y183334D01*
X87885Y183353D01*
X87912Y183371D01*
X87958Y183408D01*
X88023Y183454D01*
X88088Y183500D01*
X88171Y183547D01*
X88264Y183593D01*
X88365Y183648D01*
X88476Y183695D01*
X88606Y183741D01*
X88735Y183787D01*
X88883Y183824D01*
X89040Y183843D01*
X89197Y183861D01*
X89373Y183870D01*
X89382D01*
X89419D01*
X89466D01*
X89530Y183861D01*
D02*
G37*
G36*
X31509Y187541D02*
X31500Y187374D01*
X31490Y187189D01*
X31472Y187005D01*
X31444Y186820D01*
X31416Y186662D01*
Y186653D01*
X31407Y186635D01*
Y186607D01*
X31389Y186570D01*
X31361Y186468D01*
X31315Y186339D01*
X31250Y186191D01*
X31167Y186034D01*
X31074Y185877D01*
X30954Y185729D01*
X30945Y185719D01*
X30935Y185710D01*
X30908Y185682D01*
X30880Y185645D01*
X30788Y185553D01*
X30658Y185442D01*
X30501Y185322D01*
X30316Y185192D01*
X30103Y185072D01*
X29863Y184970D01*
X29854D01*
X29835Y184961D01*
X29798Y184943D01*
X29743Y184933D01*
X29678Y184906D01*
X29604Y184887D01*
X29521Y184869D01*
X29419Y184841D01*
X29318Y184813D01*
X29197Y184795D01*
X28939Y184749D01*
X28652Y184721D01*
X28338Y184712D01*
X28328D01*
X28310D01*
X28263D01*
X28217D01*
X28153Y184721D01*
X28079D01*
X27903Y184730D01*
X27700Y184758D01*
X27487Y184786D01*
X27265Y184832D01*
X27043Y184887D01*
X27034D01*
X27015Y184897D01*
X26988Y184906D01*
X26951Y184915D01*
X26849Y184952D01*
X26720Y185007D01*
X26572Y185063D01*
X26424Y185137D01*
X26267Y185229D01*
X26119Y185322D01*
X26100Y185331D01*
X26054Y185368D01*
X25989Y185424D01*
X25906Y185497D01*
X25814Y185581D01*
X25721Y185682D01*
X25619Y185784D01*
X25536Y185904D01*
X25527Y185923D01*
X25499Y185960D01*
X25462Y186024D01*
X25416Y186117D01*
X25360Y186228D01*
X25314Y186357D01*
X25259Y186505D01*
X25213Y186672D01*
Y186690D01*
X25203Y186718D01*
X25194Y186746D01*
X25185Y186838D01*
X25166Y186968D01*
X25148Y187115D01*
X25129Y187291D01*
X25120Y187485D01*
X25111Y187698D01*
Y190000D01*
X31509D01*
Y187541D01*
D02*
G37*
G36*
X29928Y183260D02*
X29946Y183242D01*
X29955Y183205D01*
X29983Y183158D01*
X30011Y183103D01*
X30048Y183038D01*
X30140Y182881D01*
X30242Y182696D01*
X30371Y182511D01*
X30519Y182317D01*
X30677Y182123D01*
X30686Y182114D01*
X30695Y182104D01*
X30723Y182077D01*
X30751Y182040D01*
X30843Y181956D01*
X30954Y181845D01*
X31084Y181735D01*
X31231Y181614D01*
X31379Y181513D01*
X31537Y181420D01*
Y180912D01*
X25111D01*
Y181698D01*
X30113D01*
X30103Y181707D01*
X30066Y181753D01*
X30011Y181808D01*
X29946Y181901D01*
X29863Y182003D01*
X29771Y182132D01*
X29669Y182280D01*
X29567Y182446D01*
Y182456D01*
X29558Y182465D01*
X29521Y182520D01*
X29475Y182613D01*
X29419Y182724D01*
X29355Y182853D01*
X29290Y182992D01*
X29225Y183131D01*
X29170Y183269D01*
X29928D01*
Y183260D01*
D02*
G37*
G36*
X28550Y178887D02*
X28661D01*
X28781Y178878D01*
X28920Y178868D01*
X29207Y178841D01*
X29512Y178794D01*
X29817Y178739D01*
X29955Y178702D01*
X30094Y178665D01*
X30103D01*
X30122Y178656D01*
X30159Y178637D01*
X30205Y178619D01*
X30270Y178600D01*
X30335Y178563D01*
X30492Y178489D01*
X30658Y178397D01*
X30834Y178277D01*
X31010Y178138D01*
X31157Y177972D01*
Y177962D01*
X31176Y177953D01*
X31194Y177925D01*
X31213Y177888D01*
X31250Y177842D01*
X31278Y177787D01*
X31352Y177648D01*
X31416Y177482D01*
X31481Y177287D01*
X31518Y177056D01*
X31537Y176807D01*
Y176723D01*
X31527Y176622D01*
X31509Y176502D01*
X31481Y176363D01*
X31444Y176215D01*
X31398Y176058D01*
X31324Y175910D01*
Y175901D01*
X31315Y175891D01*
X31287Y175845D01*
X31241Y175771D01*
X31176Y175679D01*
X31084Y175577D01*
X30982Y175466D01*
X30862Y175364D01*
X30723Y175263D01*
X30704Y175253D01*
X30658Y175216D01*
X30575Y175179D01*
X30455Y175115D01*
X30316Y175059D01*
X30159Y174985D01*
X29974Y174921D01*
X29771Y174865D01*
X29761D01*
X29743Y174856D01*
X29715Y174847D01*
X29669Y174837D01*
X29613Y174828D01*
X29549Y174819D01*
X29465Y174800D01*
X29373Y174791D01*
X29271Y174773D01*
X29160Y174763D01*
X29031Y174754D01*
X28902Y174736D01*
X28754Y174726D01*
X28606D01*
X28439Y174717D01*
X28263D01*
X28254D01*
X28217D01*
X28153D01*
X28079D01*
X27977Y174726D01*
X27866D01*
X27746Y174736D01*
X27616Y174745D01*
X27320Y174773D01*
X27015Y174819D01*
X26720Y174874D01*
X26581Y174911D01*
X26442Y174958D01*
X26433D01*
X26414Y174967D01*
X26377Y174985D01*
X26331Y175004D01*
X26267Y175022D01*
X26202Y175059D01*
X26045Y175133D01*
X25878Y175226D01*
X25693Y175346D01*
X25527Y175485D01*
X25370Y175651D01*
Y175660D01*
X25351Y175669D01*
X25333Y175697D01*
X25314Y175734D01*
X25287Y175780D01*
X25250Y175827D01*
X25185Y175965D01*
X25120Y176132D01*
X25055Y176326D01*
X25018Y176557D01*
X25000Y176807D01*
Y176899D01*
X25009Y176964D01*
X25018Y177038D01*
X25037Y177130D01*
X25055Y177232D01*
X25083Y177343D01*
X25120Y177454D01*
X25157Y177574D01*
X25213Y177694D01*
X25277Y177814D01*
X25351Y177935D01*
X25444Y178055D01*
X25545Y178166D01*
X25656Y178267D01*
X25666Y178277D01*
X25693Y178295D01*
X25740Y178323D01*
X25814Y178369D01*
X25897Y178415D01*
X26008Y178462D01*
X26137Y178526D01*
X26285Y178582D01*
X26451Y178637D01*
X26646Y178693D01*
X26858Y178748D01*
X27099Y178794D01*
X27357Y178841D01*
X27635Y178868D01*
X27940Y178887D01*
X28263Y178896D01*
X28273D01*
X28310D01*
X28375D01*
X28449D01*
X28550Y178887D01*
D02*
G37*
G36*
X445029Y47811D02*
Y47801D01*
Y47764D01*
Y47718D01*
Y47653D01*
X445020Y47570D01*
Y47478D01*
X445011Y47367D01*
X445002Y47256D01*
X444974Y47006D01*
X444937Y46747D01*
X444882Y46498D01*
X444845Y46378D01*
X444808Y46266D01*
Y46257D01*
X444798Y46239D01*
X444780Y46211D01*
X444761Y46174D01*
X444706Y46072D01*
X444623Y45943D01*
X444512Y45795D01*
X444382Y45647D01*
X444216Y45490D01*
X444012Y45351D01*
X444003D01*
X443985Y45333D01*
X443957Y45324D01*
X443911Y45296D01*
X443855Y45268D01*
X443781Y45240D01*
X443707Y45212D01*
X443615Y45176D01*
X443513Y45139D01*
X443402Y45111D01*
X443282Y45083D01*
X443143Y45055D01*
X443005Y45037D01*
X442857Y45018D01*
X442524Y45000D01*
X442441D01*
X442376Y45009D01*
X442302D01*
X442210Y45018D01*
X442108Y45028D01*
X442006Y45037D01*
X441775Y45074D01*
X441525Y45129D01*
X441285Y45203D01*
X441054Y45305D01*
X441045D01*
X441026Y45324D01*
X440998Y45342D01*
X440961Y45360D01*
X440860Y45434D01*
X440740Y45536D01*
X440601Y45666D01*
X440471Y45813D01*
X440342Y45998D01*
X440240Y46202D01*
Y46211D01*
X440231Y46230D01*
X440222Y46266D01*
X440203Y46313D01*
X440185Y46368D01*
X440166Y46442D01*
X440139Y46525D01*
X440120Y46627D01*
X440102Y46738D01*
X440074Y46858D01*
X440055Y46988D01*
X440037Y47126D01*
X440018Y47284D01*
X440009Y47450D01*
X440000Y47626D01*
Y47811D01*
Y51509D01*
X440850D01*
Y47811D01*
Y47801D01*
Y47774D01*
Y47727D01*
Y47672D01*
X440860Y47607D01*
Y47524D01*
X440869Y47348D01*
X440887Y47145D01*
X440915Y46941D01*
X440952Y46747D01*
X440971Y46664D01*
X440998Y46581D01*
X441008Y46562D01*
X441026Y46516D01*
X441072Y46451D01*
X441128Y46359D01*
X441193Y46266D01*
X441285Y46165D01*
X441396Y46063D01*
X441525Y45980D01*
X441544Y45971D01*
X441590Y45943D01*
X441673Y45915D01*
X441784Y45878D01*
X441914Y45832D01*
X442080Y45804D01*
X442256Y45777D01*
X442450Y45767D01*
X442542D01*
X442598Y45777D01*
X442681D01*
X442764Y45786D01*
X442968Y45823D01*
X443190Y45869D01*
X443402Y45943D01*
X443606Y46045D01*
X443698Y46109D01*
X443781Y46183D01*
X443791Y46193D01*
X443800Y46202D01*
X443818Y46230D01*
X443846Y46266D01*
X443874Y46322D01*
X443911Y46378D01*
X443948Y46461D01*
X443985Y46544D01*
X444022Y46646D01*
X444049Y46766D01*
X444086Y46905D01*
X444114Y47052D01*
X444142Y47219D01*
X444160Y47394D01*
X444179Y47598D01*
Y47811D01*
Y51509D01*
X445029D01*
Y47811D01*
D02*
G37*
G36*
X448395Y51527D02*
X448469Y51518D01*
X448561Y51509D01*
X448663Y51490D01*
X448765Y51472D01*
X449005Y51407D01*
X449245Y51315D01*
X449366Y51259D01*
X449486Y51194D01*
X449597Y51111D01*
X449698Y51019D01*
X449708Y51009D01*
X449726Y51000D01*
X449745Y50963D01*
X449782Y50926D01*
X449828Y50880D01*
X449874Y50815D01*
X449920Y50751D01*
X449976Y50667D01*
X450068Y50492D01*
X450161Y50270D01*
X450198Y50159D01*
X450216Y50030D01*
X450235Y49900D01*
X450244Y49761D01*
Y49743D01*
Y49697D01*
X450235Y49623D01*
X450225Y49521D01*
X450207Y49410D01*
X450170Y49281D01*
X450133Y49142D01*
X450078Y49003D01*
X450068Y48985D01*
X450050Y48938D01*
X450013Y48864D01*
X449957Y48763D01*
X449883Y48652D01*
X449791Y48513D01*
X449680Y48375D01*
X449551Y48217D01*
X449532Y48199D01*
X449486Y48143D01*
X449440Y48097D01*
X449393Y48051D01*
X449338Y47996D01*
X449264Y47922D01*
X449190Y47847D01*
X449098Y47764D01*
X449005Y47672D01*
X448894Y47570D01*
X448774Y47469D01*
X448644Y47348D01*
X448497Y47228D01*
X448349Y47099D01*
X448339Y47089D01*
X448321Y47071D01*
X448284Y47043D01*
X448238Y47006D01*
X448182Y46951D01*
X448117Y46895D01*
X447970Y46775D01*
X447812Y46636D01*
X447664Y46498D01*
X447535Y46378D01*
X447480Y46331D01*
X447433Y46285D01*
X447424Y46276D01*
X447396Y46248D01*
X447359Y46211D01*
X447313Y46156D01*
X447267Y46091D01*
X447211Y46026D01*
X447100Y45869D01*
X450253D01*
Y45111D01*
X446009D01*
Y45120D01*
Y45157D01*
Y45212D01*
X446019Y45286D01*
X446028Y45370D01*
X446046Y45462D01*
X446065Y45555D01*
X446102Y45656D01*
Y45666D01*
X446111Y45675D01*
X446130Y45730D01*
X446167Y45813D01*
X446222Y45924D01*
X446296Y46054D01*
X446389Y46202D01*
X446490Y46350D01*
X446620Y46507D01*
Y46516D01*
X446638Y46525D01*
X446684Y46581D01*
X446768Y46664D01*
X446888Y46784D01*
X447026Y46923D01*
X447202Y47089D01*
X447415Y47274D01*
X447646Y47469D01*
X447655Y47478D01*
X447692Y47505D01*
X447748Y47552D01*
X447812Y47607D01*
X447896Y47681D01*
X447997Y47764D01*
X448099Y47857D01*
X448219Y47958D01*
X448450Y48180D01*
X448681Y48402D01*
X448792Y48513D01*
X448894Y48624D01*
X448987Y48726D01*
X449061Y48828D01*
Y48837D01*
X449079Y48846D01*
X449098Y48874D01*
X449116Y48911D01*
X449181Y49012D01*
X449255Y49133D01*
X449319Y49281D01*
X449384Y49438D01*
X449421Y49613D01*
X449440Y49780D01*
Y49789D01*
Y49798D01*
X449430Y49854D01*
X449421Y49946D01*
X449393Y50048D01*
X449356Y50177D01*
X449292Y50307D01*
X449208Y50436D01*
X449098Y50566D01*
X449079Y50584D01*
X449033Y50621D01*
X448968Y50667D01*
X448866Y50732D01*
X448737Y50788D01*
X448589Y50843D01*
X448413Y50880D01*
X448219Y50889D01*
X448164D01*
X448127Y50880D01*
X448016Y50871D01*
X447886Y50843D01*
X447748Y50806D01*
X447590Y50741D01*
X447443Y50658D01*
X447304Y50547D01*
X447285Y50529D01*
X447248Y50483D01*
X447193Y50409D01*
X447137Y50298D01*
X447073Y50168D01*
X447017Y50002D01*
X446980Y49817D01*
X446962Y49604D01*
X446157Y49687D01*
Y49697D01*
X446167Y49724D01*
Y49771D01*
X446176Y49835D01*
X446194Y49909D01*
X446213Y49992D01*
X446241Y50094D01*
X446268Y50196D01*
X446342Y50418D01*
X446453Y50640D01*
X446518Y50751D01*
X446601Y50862D01*
X446684Y50963D01*
X446777Y51056D01*
X446786Y51065D01*
X446805Y51074D01*
X446832Y51102D01*
X446879Y51130D01*
X446934Y51167D01*
X446999Y51204D01*
X447073Y51250D01*
X447165Y51296D01*
X447267Y51342D01*
X447378Y51389D01*
X447498Y51426D01*
X447627Y51463D01*
X447766Y51490D01*
X447914Y51518D01*
X448071Y51527D01*
X448238Y51536D01*
X448330D01*
X448395Y51527D01*
D02*
G37*
G36*
X569889Y51758D02*
X564887D01*
X564897Y51749D01*
X564934Y51703D01*
X564989Y51647D01*
X565054Y51555D01*
X565137Y51453D01*
X565229Y51324D01*
X565331Y51176D01*
X565433Y51009D01*
Y51000D01*
X565442Y50991D01*
X565479Y50936D01*
X565525Y50843D01*
X565581Y50732D01*
X565645Y50603D01*
X565710Y50464D01*
X565775Y50325D01*
X565830Y50187D01*
X565072D01*
Y50196D01*
X565054Y50214D01*
X565045Y50251D01*
X565017Y50298D01*
X564989Y50353D01*
X564952Y50418D01*
X564860Y50575D01*
X564758Y50760D01*
X564628Y50945D01*
X564481Y51139D01*
X564323Y51333D01*
X564314Y51342D01*
X564305Y51352D01*
X564277Y51379D01*
X564249Y51416D01*
X564157Y51500D01*
X564046Y51610D01*
X563917Y51721D01*
X563769Y51842D01*
X563621Y51943D01*
X563464Y52036D01*
Y52544D01*
X569889D01*
Y51758D01*
D02*
G37*
G36*
X568059Y48513D02*
X568133D01*
X568308Y48495D01*
X568512Y48476D01*
X568724Y48439D01*
X568918Y48384D01*
X569103Y48319D01*
X569113D01*
X569122Y48310D01*
X569177Y48282D01*
X569251Y48236D01*
X569353Y48171D01*
X569455Y48079D01*
X569566Y47977D01*
X569677Y47847D01*
X569769Y47700D01*
X569778Y47681D01*
X569806Y47626D01*
X569843Y47542D01*
X569880Y47422D01*
X569926Y47274D01*
X569963Y47108D01*
X569991Y46923D01*
X570000Y46719D01*
Y46636D01*
X569991Y46581D01*
X569982Y46507D01*
X569972Y46433D01*
X569935Y46239D01*
X569880Y46035D01*
X569797Y45823D01*
X569741Y45712D01*
X569677Y45610D01*
X569603Y45518D01*
X569519Y45425D01*
X569510Y45416D01*
X569501Y45407D01*
X569464Y45388D01*
X569427Y45360D01*
X569381Y45324D01*
X569316Y45286D01*
X569242Y45250D01*
X569159Y45203D01*
X569066Y45166D01*
X568955Y45129D01*
X568844Y45092D01*
X568715Y45055D01*
X568576Y45037D01*
X568419Y45009D01*
X568262Y45000D01*
X568086D01*
X567975Y45767D01*
X567985D01*
X568003D01*
X568040D01*
X568096Y45777D01*
X568151Y45786D01*
X568216D01*
X568373Y45813D01*
X568539Y45841D01*
X568706Y45897D01*
X568854Y45952D01*
X568918Y45989D01*
X568974Y46035D01*
X568983Y46045D01*
X569011Y46082D01*
X569057Y46137D01*
X569103Y46211D01*
X569159Y46313D01*
X569196Y46424D01*
X569233Y46562D01*
X569242Y46710D01*
Y46766D01*
X569233Y46821D01*
X569224Y46905D01*
X569205Y46988D01*
X569187Y47080D01*
X569150Y47173D01*
X569103Y47265D01*
X569094Y47274D01*
X569076Y47302D01*
X569039Y47339D01*
X569002Y47394D01*
X568937Y47441D01*
X568872Y47496D01*
X568798Y47542D01*
X568706Y47579D01*
X568697D01*
X568660Y47598D01*
X568595Y47607D01*
X568512Y47626D01*
X568401Y47644D01*
X568262Y47653D01*
X568096Y47672D01*
X567901D01*
X563491D01*
Y48522D01*
X567855D01*
X567864D01*
X567892D01*
X567929D01*
X567985D01*
X568059Y48513D01*
D02*
G37*
%LPC*%
G36*
X64149Y58203D02*
X62245D01*
X62134Y58193D01*
X62004Y58184D01*
X61856Y58175D01*
X61709Y58156D01*
X61561Y58129D01*
X61431Y58092D01*
X61413Y58082D01*
X61376Y58064D01*
X61320Y58036D01*
X61246Y57999D01*
X61163Y57944D01*
X61080Y57879D01*
X60997Y57796D01*
X60932Y57703D01*
X60923Y57694D01*
X60904Y57657D01*
X60876Y57602D01*
X60840Y57528D01*
X60812Y57445D01*
X60784Y57352D01*
X60766Y57241D01*
X60756Y57130D01*
Y57121D01*
Y57112D01*
X60766Y57056D01*
X60775Y56973D01*
X60793Y56862D01*
X60840Y56751D01*
X60895Y56622D01*
X60978Y56501D01*
X61089Y56381D01*
X61108Y56372D01*
X61154Y56335D01*
X61228Y56289D01*
X61348Y56233D01*
X61487Y56178D01*
X61672Y56132D01*
X61884Y56095D01*
X62134Y56086D01*
X64149D01*
Y58203D01*
D02*
G37*
G36*
X580640Y189149D02*
X575758D01*
Y187633D01*
X575767Y187568D01*
X575776Y187430D01*
X575786Y187273D01*
X575804Y187106D01*
X575832Y186940D01*
X575869Y186801D01*
X575878Y186783D01*
X575887Y186736D01*
X575915Y186672D01*
X575952Y186588D01*
X576008Y186496D01*
X576063Y186404D01*
X576128Y186311D01*
X576202Y186219D01*
X576220Y186209D01*
X576257Y186172D01*
X576322Y186117D01*
X576414Y186052D01*
X576535Y185978D01*
X576673Y185895D01*
X576830Y185821D01*
X577006Y185756D01*
X577015D01*
X577034Y185747D01*
X577062Y185738D01*
X577099Y185729D01*
X577145Y185719D01*
X577210Y185701D01*
X577274Y185682D01*
X577348Y185664D01*
X577533Y185636D01*
X577746Y185608D01*
X577986Y185590D01*
X578245Y185581D01*
X578254D01*
X578291D01*
X578338D01*
X578411Y185590D01*
X578495D01*
X578587Y185599D01*
X578698Y185608D01*
X578809Y185618D01*
X579059Y185664D01*
X579318Y185719D01*
X579558Y185803D01*
X579678Y185858D01*
X579780Y185914D01*
X579789D01*
X579808Y185932D01*
X579835Y185951D01*
X579872Y185969D01*
X579965Y186043D01*
X580076Y186135D01*
X580196Y186256D01*
X580316Y186394D01*
X580418Y186551D01*
X580501Y186718D01*
X580510Y186736D01*
X580519Y186783D01*
X580547Y186866D01*
X580575Y186986D01*
X580593Y187134D01*
X580621Y187319D01*
X580630Y187430D01*
Y187550D01*
X580640Y187670D01*
Y189149D01*
D02*
G37*
G36*
X515640Y189149D02*
X510758D01*
Y187633D01*
X510767Y187568D01*
X510776Y187430D01*
X510786Y187273D01*
X510804Y187106D01*
X510832Y186940D01*
X510869Y186801D01*
X510878Y186783D01*
X510887Y186736D01*
X510915Y186672D01*
X510952Y186588D01*
X511008Y186496D01*
X511063Y186404D01*
X511128Y186311D01*
X511202Y186219D01*
X511220Y186209D01*
X511257Y186172D01*
X511322Y186117D01*
X511414Y186052D01*
X511535Y185978D01*
X511673Y185895D01*
X511830Y185821D01*
X512006Y185756D01*
X512015D01*
X512034Y185747D01*
X512062Y185738D01*
X512099Y185729D01*
X512145Y185719D01*
X512210Y185701D01*
X512274Y185682D01*
X512348Y185664D01*
X512533Y185636D01*
X512746Y185608D01*
X512986Y185590D01*
X513245Y185581D01*
X513254D01*
X513291D01*
X513338D01*
X513411Y185590D01*
X513495D01*
X513587Y185599D01*
X513698Y185608D01*
X513809Y185618D01*
X514059Y185664D01*
X514318Y185719D01*
X514558Y185803D01*
X514678Y185858D01*
X514780Y185914D01*
X514789D01*
X514808Y185932D01*
X514835Y185951D01*
X514872Y185969D01*
X514965Y186043D01*
X515076Y186135D01*
X515196Y186256D01*
X515316Y186394D01*
X515418Y186551D01*
X515501Y186718D01*
X515510Y186736D01*
X515519Y186783D01*
X515547Y186866D01*
X515575Y186986D01*
X515593Y187134D01*
X515621Y187319D01*
X515630Y187430D01*
Y187550D01*
X515640Y187670D01*
Y189149D01*
D02*
G37*
G36*
X450751Y189149D02*
X445869D01*
Y187633D01*
X445878Y187568D01*
X445887Y187430D01*
X445897Y187273D01*
X445915Y187106D01*
X445943Y186940D01*
X445980Y186801D01*
X445989Y186783D01*
X445998Y186736D01*
X446026Y186672D01*
X446063Y186588D01*
X446119Y186496D01*
X446174Y186404D01*
X446239Y186311D01*
X446313Y186219D01*
X446331Y186209D01*
X446368Y186172D01*
X446433Y186117D01*
X446525Y186052D01*
X446646Y185978D01*
X446784Y185895D01*
X446941Y185821D01*
X447117Y185756D01*
X447126D01*
X447145Y185747D01*
X447173Y185738D01*
X447210Y185729D01*
X447256Y185719D01*
X447321Y185701D01*
X447385Y185682D01*
X447459Y185664D01*
X447644Y185636D01*
X447857Y185608D01*
X448097Y185590D01*
X448356Y185581D01*
X448365D01*
X448402D01*
X448448D01*
X448522Y185590D01*
X448606D01*
X448698Y185599D01*
X448809Y185608D01*
X448920Y185618D01*
X449170Y185664D01*
X449428Y185719D01*
X449669Y185803D01*
X449789Y185858D01*
X449891Y185914D01*
X449900D01*
X449919Y185932D01*
X449946Y185951D01*
X449983Y185969D01*
X450076Y186043D01*
X450187Y186135D01*
X450307Y186256D01*
X450427Y186394D01*
X450529Y186551D01*
X450612Y186718D01*
X450621Y186736D01*
X450630Y186783D01*
X450658Y186866D01*
X450686Y186986D01*
X450704Y187134D01*
X450732Y187319D01*
X450741Y187430D01*
Y187550D01*
X450751Y187670D01*
Y189149D01*
D02*
G37*
G36*
X390640Y189149D02*
X385758D01*
Y187633D01*
X385767Y187568D01*
X385776Y187430D01*
X385786Y187273D01*
X385804Y187106D01*
X385832Y186940D01*
X385869Y186801D01*
X385878Y186783D01*
X385887Y186736D01*
X385915Y186672D01*
X385952Y186588D01*
X386008Y186496D01*
X386063Y186404D01*
X386128Y186311D01*
X386202Y186219D01*
X386220Y186209D01*
X386257Y186172D01*
X386322Y186117D01*
X386414Y186052D01*
X386535Y185978D01*
X386673Y185895D01*
X386830Y185821D01*
X387006Y185756D01*
X387015D01*
X387034Y185747D01*
X387062Y185738D01*
X387099Y185729D01*
X387145Y185719D01*
X387210Y185701D01*
X387274Y185682D01*
X387348Y185664D01*
X387533Y185636D01*
X387746Y185608D01*
X387986Y185590D01*
X388245Y185581D01*
X388254D01*
X388291D01*
X388338D01*
X388411Y185590D01*
X388495D01*
X388587Y185599D01*
X388698Y185608D01*
X388809Y185618D01*
X389059Y185664D01*
X389318Y185719D01*
X389558Y185803D01*
X389678Y185858D01*
X389780Y185914D01*
X389789D01*
X389808Y185932D01*
X389835Y185951D01*
X389872Y185969D01*
X389965Y186043D01*
X390076Y186135D01*
X390196Y186256D01*
X390316Y186394D01*
X390418Y186551D01*
X390501Y186718D01*
X390510Y186736D01*
X390519Y186783D01*
X390547Y186866D01*
X390575Y186986D01*
X390593Y187134D01*
X390621Y187319D01*
X390630Y187430D01*
Y187550D01*
X390640Y187670D01*
Y189149D01*
D02*
G37*
G36*
X387256Y183371D02*
Y181355D01*
X390122D01*
X387256Y183371D01*
D02*
G37*
G36*
X330751Y189149D02*
X325869D01*
Y187633D01*
X325878Y187568D01*
X325887Y187430D01*
X325897Y187273D01*
X325915Y187106D01*
X325943Y186940D01*
X325980Y186801D01*
X325989Y186783D01*
X325998Y186736D01*
X326026Y186672D01*
X326063Y186588D01*
X326119Y186496D01*
X326174Y186404D01*
X326239Y186311D01*
X326313Y186219D01*
X326331Y186209D01*
X326368Y186172D01*
X326433Y186117D01*
X326525Y186052D01*
X326646Y185978D01*
X326784Y185895D01*
X326941Y185821D01*
X327117Y185756D01*
X327126D01*
X327145Y185747D01*
X327173Y185738D01*
X327210Y185729D01*
X327256Y185719D01*
X327321Y185701D01*
X327385Y185682D01*
X327459Y185664D01*
X327644Y185636D01*
X327857Y185608D01*
X328097Y185590D01*
X328356Y185581D01*
X328365D01*
X328402D01*
X328448D01*
X328522Y185590D01*
X328606D01*
X328698Y185599D01*
X328809Y185608D01*
X328920Y185618D01*
X329170Y185664D01*
X329428Y185719D01*
X329669Y185803D01*
X329789Y185858D01*
X329891Y185914D01*
X329900D01*
X329919Y185932D01*
X329946Y185951D01*
X329983Y185969D01*
X330076Y186043D01*
X330187Y186135D01*
X330307Y186256D01*
X330427Y186394D01*
X330529Y186551D01*
X330612Y186718D01*
X330621Y186736D01*
X330630Y186783D01*
X330658Y186866D01*
X330686Y186986D01*
X330704Y187134D01*
X330732Y187319D01*
X330741Y187430D01*
Y187550D01*
X330751Y187670D01*
Y189149D01*
D02*
G37*
G36*
X270751Y189149D02*
X265869D01*
Y187633D01*
X265878Y187568D01*
X265887Y187430D01*
X265897Y187273D01*
X265915Y187106D01*
X265943Y186940D01*
X265980Y186801D01*
X265989Y186783D01*
X265998Y186736D01*
X266026Y186672D01*
X266063Y186588D01*
X266119Y186496D01*
X266174Y186404D01*
X266239Y186311D01*
X266313Y186219D01*
X266331Y186209D01*
X266368Y186172D01*
X266433Y186117D01*
X266525Y186052D01*
X266646Y185978D01*
X266784Y185895D01*
X266941Y185821D01*
X267117Y185756D01*
X267126D01*
X267145Y185747D01*
X267173Y185738D01*
X267209Y185729D01*
X267256Y185719D01*
X267320Y185701D01*
X267385Y185682D01*
X267459Y185664D01*
X267644Y185636D01*
X267857Y185608D01*
X268097Y185590D01*
X268356Y185581D01*
X268365D01*
X268402D01*
X268448D01*
X268522Y185590D01*
X268606D01*
X268698Y185599D01*
X268809Y185608D01*
X268920Y185618D01*
X269170Y185664D01*
X269429Y185719D01*
X269669Y185803D01*
X269789Y185858D01*
X269891Y185914D01*
X269900D01*
X269918Y185932D01*
X269946Y185951D01*
X269983Y185969D01*
X270076Y186043D01*
X270187Y186135D01*
X270307Y186256D01*
X270427Y186394D01*
X270529Y186551D01*
X270612Y186718D01*
X270621Y186736D01*
X270630Y186783D01*
X270658Y186866D01*
X270686Y186986D01*
X270704Y187134D01*
X270732Y187319D01*
X270741Y187430D01*
Y187550D01*
X270751Y187670D01*
Y189149D01*
D02*
G37*
G36*
X267182Y183001D02*
X267163D01*
X267117D01*
X267034Y182992D01*
X266932Y182983D01*
X266812Y182964D01*
X266682Y182927D01*
X266544Y182890D01*
X266405Y182835D01*
X266387Y182826D01*
X266340Y182798D01*
X266276Y182761D01*
X266192Y182705D01*
X266109Y182641D01*
X266008Y182557D01*
X265924Y182465D01*
X265841Y182354D01*
X265832Y182335D01*
X265813Y182299D01*
X265777Y182234D01*
X265749Y182151D01*
X265712Y182058D01*
X265675Y181947D01*
X265656Y181827D01*
X265647Y181698D01*
Y181651D01*
X265656Y181614D01*
X265665Y181522D01*
X265693Y181402D01*
X265749Y181272D01*
X265813Y181124D01*
X265915Y180976D01*
X265971Y180902D01*
X266045Y180838D01*
X266054D01*
X266063Y180819D01*
X266119Y180782D01*
X266211Y180727D01*
X266331Y180653D01*
X266488Y180588D01*
X266673Y180533D01*
X266886Y180496D01*
X267136Y180477D01*
X267145D01*
X267163D01*
X267200D01*
X267246Y180486D01*
X267302D01*
X267367Y180496D01*
X267515Y180523D01*
X267681Y180560D01*
X267857Y180625D01*
X268023Y180718D01*
X268180Y180838D01*
X268199Y180856D01*
X268245Y180902D01*
X268300Y180976D01*
X268375Y181078D01*
X268448Y181208D01*
X268504Y181355D01*
X268550Y181531D01*
X268569Y181725D01*
Y181781D01*
X268559Y181818D01*
X268550Y181910D01*
X268522Y182040D01*
X268476Y182178D01*
X268402Y182335D01*
X268310Y182483D01*
X268180Y182631D01*
X268162Y182650D01*
X268116Y182687D01*
X268032Y182752D01*
X267912Y182816D01*
X267773Y182881D01*
X267598Y182946D01*
X267404Y182983D01*
X267182Y183001D01*
D02*
G37*
G36*
X210640Y189149D02*
X205758D01*
Y187633D01*
X205767Y187568D01*
X205777Y187430D01*
X205786Y187273D01*
X205804Y187106D01*
X205832Y186940D01*
X205869Y186801D01*
X205878Y186783D01*
X205887Y186736D01*
X205915Y186672D01*
X205952Y186588D01*
X206008Y186496D01*
X206063Y186404D01*
X206128Y186311D01*
X206202Y186219D01*
X206220Y186209D01*
X206257Y186172D01*
X206322Y186117D01*
X206414Y186052D01*
X206535Y185978D01*
X206673Y185895D01*
X206831Y185821D01*
X207006Y185756D01*
X207015D01*
X207034Y185747D01*
X207062Y185738D01*
X207099Y185729D01*
X207145Y185719D01*
X207209Y185701D01*
X207274Y185682D01*
X207348Y185664D01*
X207533Y185636D01*
X207746Y185608D01*
X207986Y185590D01*
X208245Y185581D01*
X208254D01*
X208291D01*
X208337D01*
X208412Y185590D01*
X208495D01*
X208587Y185599D01*
X208698Y185608D01*
X208809Y185618D01*
X209059Y185664D01*
X209317Y185719D01*
X209558Y185803D01*
X209678Y185858D01*
X209780Y185914D01*
X209789D01*
X209808Y185932D01*
X209835Y185951D01*
X209872Y185969D01*
X209965Y186043D01*
X210076Y186135D01*
X210196Y186256D01*
X210316Y186394D01*
X210418Y186551D01*
X210501Y186718D01*
X210510Y186736D01*
X210520Y186783D01*
X210547Y186866D01*
X210575Y186986D01*
X210593Y187134D01*
X210621Y187319D01*
X210630Y187430D01*
Y187550D01*
X210640Y187670D01*
Y189149D01*
D02*
G37*
G36*
X150751Y189149D02*
X145869D01*
Y187633D01*
X145878Y187568D01*
X145887Y187430D01*
X145897Y187273D01*
X145915Y187106D01*
X145943Y186940D01*
X145980Y186801D01*
X145989Y186783D01*
X145998Y186736D01*
X146026Y186672D01*
X146063Y186588D01*
X146119Y186496D01*
X146174Y186404D01*
X146239Y186311D01*
X146313Y186219D01*
X146331Y186209D01*
X146368Y186172D01*
X146433Y186117D01*
X146525Y186052D01*
X146646Y185978D01*
X146784Y185895D01*
X146941Y185821D01*
X147117Y185756D01*
X147126D01*
X147145Y185747D01*
X147173Y185738D01*
X147210Y185729D01*
X147256Y185719D01*
X147320Y185701D01*
X147385Y185682D01*
X147459Y185664D01*
X147644Y185636D01*
X147857Y185608D01*
X148097Y185590D01*
X148356Y185581D01*
X148365D01*
X148402D01*
X148448D01*
X148522Y185590D01*
X148606D01*
X148698Y185599D01*
X148809Y185608D01*
X148920Y185618D01*
X149170Y185664D01*
X149429Y185719D01*
X149669Y185803D01*
X149789Y185858D01*
X149891Y185914D01*
X149900D01*
X149918Y185932D01*
X149946Y185951D01*
X149983Y185969D01*
X150076Y186043D01*
X150187Y186135D01*
X150307Y186256D01*
X150427Y186394D01*
X150529Y186551D01*
X150612Y186718D01*
X150621Y186736D01*
X150630Y186783D01*
X150658Y186866D01*
X150686Y186986D01*
X150704Y187134D01*
X150732Y187319D01*
X150741Y187430D01*
Y187550D01*
X150751Y187670D01*
Y189149D01*
D02*
G37*
G36*
X149900Y182816D02*
X149891D01*
X149881D01*
X149826Y182807D01*
X149743Y182798D01*
X149641Y182779D01*
X149521Y182742D01*
X149401Y182696D01*
X149271Y182622D01*
X149160Y182530D01*
X149151Y182520D01*
X149114Y182474D01*
X149068Y182409D01*
X149022Y182326D01*
X148966Y182215D01*
X148920Y182086D01*
X148883Y181938D01*
X148874Y181772D01*
Y181753D01*
X148883Y181698D01*
X148892Y181614D01*
X148911Y181503D01*
X148948Y181383D01*
X148994Y181263D01*
X149068Y181133D01*
X149160Y181023D01*
X149170Y181013D01*
X149216Y180976D01*
X149271Y180930D01*
X149354Y180875D01*
X149456Y180819D01*
X149576Y180773D01*
X149715Y180736D01*
X149863Y180727D01*
X149872D01*
X149881D01*
X149937D01*
X150020Y180745D01*
X150122Y180764D01*
X150233Y180801D01*
X150353Y180856D01*
X150473Y180930D01*
X150594Y181032D01*
X150603Y181041D01*
X150640Y181087D01*
X150686Y181152D01*
X150741Y181235D01*
X150797Y181346D01*
X150843Y181466D01*
X150880Y181614D01*
X150889Y181772D01*
Y181845D01*
X150871Y181929D01*
X150852Y182040D01*
X150815Y182160D01*
X150769Y182289D01*
X150695Y182409D01*
X150594Y182530D01*
X150584Y182539D01*
X150547Y182576D01*
X150483Y182622D01*
X150399Y182668D01*
X150298Y182724D01*
X150177Y182770D01*
X150048Y182807D01*
X149900Y182816D01*
D02*
G37*
G36*
X146951Y183075D02*
X146932D01*
X146895D01*
X146831Y183066D01*
X146747Y183057D01*
X146646Y183038D01*
X146535Y183010D01*
X146424Y182973D01*
X146304Y182927D01*
X146294Y182918D01*
X146248Y182899D01*
X146193Y182862D01*
X146128Y182807D01*
X146045Y182742D01*
X145961Y182659D01*
X145887Y182567D01*
X145814Y182456D01*
X145804Y182437D01*
X145786Y182400D01*
X145758Y182335D01*
X145730Y182252D01*
X145702Y182151D01*
X145675Y182030D01*
X145656Y181901D01*
X145647Y181772D01*
Y181716D01*
X145656Y181679D01*
X145666Y181568D01*
X145693Y181439D01*
X145739Y181291D01*
X145795Y181133D01*
X145887Y180986D01*
X146008Y180838D01*
X146026Y180819D01*
X146072Y180782D01*
X146156Y180718D01*
X146257Y180653D01*
X146387Y180588D01*
X146544Y180523D01*
X146729Y180486D01*
X146923Y180468D01*
X146932D01*
X146951D01*
X146978D01*
X147015Y180477D01*
X147117Y180486D01*
X147256Y180514D01*
X147395Y180560D01*
X147552Y180625D01*
X147709Y180718D01*
X147857Y180847D01*
X147875Y180865D01*
X147912Y180912D01*
X147977Y180995D01*
X148051Y181106D01*
X148116Y181245D01*
X148180Y181411D01*
X148217Y181596D01*
X148236Y181799D01*
Y181855D01*
X148227Y181892D01*
X148217Y181993D01*
X148190Y182123D01*
X148143Y182271D01*
X148079Y182419D01*
X147986Y182576D01*
X147866Y182715D01*
X147847Y182733D01*
X147801Y182770D01*
X147718Y182826D01*
X147616Y182890D01*
X147478Y182964D01*
X147320Y183020D01*
X147145Y183057D01*
X146951Y183075D01*
D02*
G37*
G36*
X90751Y189149D02*
X85869D01*
Y187633D01*
X85878Y187568D01*
X85887Y187430D01*
X85897Y187273D01*
X85915Y187106D01*
X85943Y186940D01*
X85980Y186801D01*
X85989Y186783D01*
X85998Y186736D01*
X86026Y186672D01*
X86063Y186588D01*
X86119Y186496D01*
X86174Y186404D01*
X86239Y186311D01*
X86313Y186219D01*
X86331Y186209D01*
X86368Y186172D01*
X86433Y186117D01*
X86525Y186052D01*
X86646Y185978D01*
X86784Y185895D01*
X86941Y185821D01*
X87117Y185756D01*
X87126D01*
X87145Y185747D01*
X87173Y185738D01*
X87210Y185729D01*
X87256Y185719D01*
X87320Y185701D01*
X87385Y185682D01*
X87459Y185664D01*
X87644Y185636D01*
X87857Y185608D01*
X88097Y185590D01*
X88356Y185581D01*
X88365D01*
X88402D01*
X88448D01*
X88523Y185590D01*
X88606D01*
X88698Y185599D01*
X88809Y185608D01*
X88920Y185618D01*
X89170Y185664D01*
X89429Y185719D01*
X89669Y185803D01*
X89789Y185858D01*
X89891Y185914D01*
X89900D01*
X89918Y185932D01*
X89946Y185951D01*
X89983Y185969D01*
X90076Y186043D01*
X90187Y186135D01*
X90307Y186256D01*
X90427Y186394D01*
X90529Y186551D01*
X90612Y186718D01*
X90621Y186736D01*
X90631Y186783D01*
X90658Y186866D01*
X90686Y186986D01*
X90704Y187134D01*
X90732Y187319D01*
X90741Y187430D01*
Y187550D01*
X90751Y187670D01*
Y189149D01*
D02*
G37*
G36*
X89345Y183066D02*
X89336D01*
X89318D01*
X89290D01*
X89244Y183057D01*
X89188D01*
X89133Y183047D01*
X88994Y183020D01*
X88837Y182973D01*
X88670Y182918D01*
X88504Y182826D01*
X88356Y182705D01*
X88337Y182687D01*
X88301Y182641D01*
X88236Y182557D01*
X88171Y182456D01*
X88097Y182317D01*
X88032Y182160D01*
X87996Y181984D01*
X87977Y181790D01*
Y181735D01*
X87986Y181698D01*
X87996Y181596D01*
X88023Y181476D01*
X88069Y181328D01*
X88134Y181180D01*
X88227Y181032D01*
X88356Y180893D01*
X88375Y180875D01*
X88430Y180838D01*
X88513Y180782D01*
X88633Y180708D01*
X88781Y180644D01*
X88957Y180588D01*
X89170Y180551D01*
X89410Y180533D01*
X89419D01*
X89438D01*
X89475D01*
X89521Y180542D01*
X89586D01*
X89650Y180551D01*
X89798Y180579D01*
X89974Y180616D01*
X90159Y180681D01*
X90335Y180773D01*
X90492Y180893D01*
X90501D01*
X90510Y180912D01*
X90556Y180958D01*
X90621Y181032D01*
X90695Y181133D01*
X90760Y181263D01*
X90825Y181411D01*
X90871Y181577D01*
X90889Y181670D01*
Y181818D01*
X90880Y181855D01*
X90871Y181956D01*
X90834Y182077D01*
X90788Y182225D01*
X90704Y182382D01*
X90603Y182539D01*
X90529Y182613D01*
X90455Y182687D01*
X90445D01*
X90436Y182705D01*
X90409Y182724D01*
X90381Y182742D01*
X90288Y182807D01*
X90159Y182872D01*
X90002Y182946D01*
X89808Y183010D01*
X89586Y183047D01*
X89345Y183066D01*
D02*
G37*
G36*
X30751Y189149D02*
X25869D01*
Y187633D01*
X25878Y187568D01*
X25887Y187430D01*
X25897Y187273D01*
X25915Y187106D01*
X25943Y186940D01*
X25980Y186801D01*
X25989Y186783D01*
X25998Y186736D01*
X26026Y186672D01*
X26063Y186588D01*
X26119Y186496D01*
X26174Y186404D01*
X26239Y186311D01*
X26313Y186219D01*
X26331Y186209D01*
X26368Y186172D01*
X26433Y186117D01*
X26525Y186052D01*
X26646Y185978D01*
X26784Y185895D01*
X26941Y185821D01*
X27117Y185756D01*
X27126D01*
X27145Y185747D01*
X27173Y185738D01*
X27209Y185729D01*
X27256Y185719D01*
X27320Y185701D01*
X27385Y185682D01*
X27459Y185664D01*
X27644Y185636D01*
X27857Y185608D01*
X28097Y185590D01*
X28356Y185581D01*
X28365D01*
X28402D01*
X28449D01*
X28522Y185590D01*
X28606D01*
X28698Y185599D01*
X28809Y185608D01*
X28920Y185618D01*
X29170Y185664D01*
X29429Y185719D01*
X29669Y185803D01*
X29789Y185858D01*
X29891Y185914D01*
X29900D01*
X29918Y185932D01*
X29946Y185951D01*
X29983Y185969D01*
X30076Y186043D01*
X30187Y186135D01*
X30307Y186256D01*
X30427Y186394D01*
X30529Y186551D01*
X30612Y186718D01*
X30621Y186736D01*
X30630Y186783D01*
X30658Y186866D01*
X30686Y186986D01*
X30704Y187134D01*
X30732Y187319D01*
X30741Y187430D01*
Y187550D01*
X30751Y187670D01*
Y189149D01*
D02*
G37*
G36*
X28263Y178092D02*
X28245D01*
X28199D01*
X28116D01*
X28005Y178083D01*
X27885D01*
X27736Y178073D01*
X27579Y178064D01*
X27413Y178046D01*
X27052Y177999D01*
X26877Y177972D01*
X26710Y177935D01*
X26553Y177898D01*
X26405Y177842D01*
X26276Y177787D01*
X26165Y177722D01*
X26156D01*
X26146Y177703D01*
X26082Y177657D01*
X25998Y177574D01*
X25906Y177472D01*
X25814Y177334D01*
X25730Y177176D01*
X25666Y177001D01*
X25656Y176908D01*
X25647Y176807D01*
Y176751D01*
X25656Y176714D01*
X25675Y176622D01*
X25712Y176492D01*
X25777Y176354D01*
X25869Y176196D01*
X25924Y176122D01*
X25998Y176049D01*
X26072Y175975D01*
X26165Y175901D01*
X26174D01*
X26193Y175882D01*
X26220Y175864D01*
X26267Y175845D01*
X26331Y175808D01*
X26414Y175780D01*
X26507Y175743D01*
X26618Y175706D01*
X26756Y175679D01*
X26904Y175642D01*
X27080Y175605D01*
X27265Y175577D01*
X27487Y175558D01*
X27718Y175540D01*
X27977Y175522D01*
X28263D01*
X28273D01*
X28282D01*
X28328D01*
X28412D01*
X28522Y175531D01*
X28643D01*
X28791Y175540D01*
X28948Y175549D01*
X29123Y175568D01*
X29475Y175614D01*
X29650Y175642D01*
X29817Y175679D01*
X29974Y175716D01*
X30122Y175771D01*
X30251Y175827D01*
X30362Y175891D01*
X30371D01*
X30381Y175910D01*
X30408Y175928D01*
X30445Y175956D01*
X30529Y176039D01*
X30630Y176141D01*
X30723Y176280D01*
X30806Y176437D01*
X30843Y176520D01*
X30871Y176612D01*
X30880Y176714D01*
X30889Y176816D01*
Y176871D01*
X30880Y176908D01*
X30862Y177010D01*
X30834Y177130D01*
X30778Y177269D01*
X30695Y177417D01*
X30640Y177491D01*
X30584Y177565D01*
X30510Y177630D01*
X30427Y177694D01*
X30418D01*
X30399Y177713D01*
X30362Y177731D01*
X30316Y177759D01*
X30242Y177787D01*
X30159Y177824D01*
X30057Y177851D01*
X29937Y177888D01*
X29798Y177925D01*
X29641Y177962D01*
X29465Y177999D01*
X29271Y178027D01*
X29049Y178055D01*
X28809Y178073D01*
X28550Y178083D01*
X28263Y178092D01*
D02*
G37*
%LPD*%
D10*
X114900Y10100D02*
Y109900D01*
X15100D02*
X114900D01*
X15100Y10100D02*
Y109900D01*
Y10100D02*
X114900D01*
X398518Y15475D02*
Y74525D01*
Y15475D02*
X481482D01*
Y74525D01*
X398518D02*
X481482D01*
X555800Y16100D02*
X584200D01*
Y73900D01*
X555800D02*
X584200D01*
X555800Y16100D02*
Y73900D01*
M02*
