G04*
G04 #@! TF.GenerationSoftware,Altium Limited,Altium Designer,24.1.2 (44)*
G04*
G04 Layer_Color=2752767*
%FSLAX44Y44*%
%MOMM*%
G71*
G04*
G04 #@! TF.SameCoordinates,D1532E8E-0FCC-4109-960E-C101D303889C*
G04*
G04*
G04 #@! TF.FilePolarity,Positive*
G04*
G01*
G75*
%ADD35C,0.1270*%
%ADD36C,0.1693*%
D35*
X65000Y80470D02*
X59920Y90630D01*
X70080D01*
X65000Y80470D01*
X39600Y55070D02*
X34520Y65230D01*
X44680D01*
X39600Y55070D01*
X90400D02*
X85320Y65230D01*
X95480D01*
X90400Y55070D01*
X569920Y172220D02*
Y182380D01*
X580080D01*
Y172220D01*
X569920D01*
Y197620D02*
Y207780D01*
X580080D01*
Y197620D01*
X569920D01*
X504920Y172220D02*
Y182380D01*
X515080D01*
Y172220D01*
X504920D01*
Y197620D02*
Y207780D01*
X515080D01*
Y197620D01*
X504920D01*
X439920Y172220D02*
Y182380D01*
X450080D01*
Y172220D01*
X439920D01*
Y197620D02*
Y207780D01*
X450080D01*
Y197620D01*
X439920D01*
X379920Y172220D02*
Y182380D01*
X390080D01*
Y172220D01*
X379920D01*
Y197620D02*
Y207780D01*
X390080D01*
Y197620D01*
X379920D01*
X319920Y172220D02*
Y182380D01*
X330080D01*
Y172220D01*
X319920D01*
Y197620D02*
Y207780D01*
X330080D01*
Y197620D01*
X319920D01*
X259920Y172220D02*
Y182380D01*
X270080D01*
Y172220D01*
X259920D01*
Y197620D02*
Y207780D01*
X270080D01*
Y197620D01*
X259920D01*
X199920Y172220D02*
Y182380D01*
X210080D01*
Y172220D01*
X199920D01*
Y197620D02*
Y207780D01*
X210080D01*
Y197620D01*
X199920D01*
X139920Y172220D02*
Y182380D01*
X150080D01*
Y172220D01*
X139920D01*
Y197620D02*
Y207780D01*
X150080D01*
Y197620D01*
X139920D01*
X79920Y172220D02*
Y182380D01*
X90080D01*
Y172220D01*
X79920D01*
Y197620D02*
Y207780D01*
X90080D01*
Y197620D01*
X79920D01*
X19920Y172220D02*
Y182380D01*
X30080D01*
Y172220D01*
X19920D01*
Y197620D02*
Y207780D01*
X30080D01*
Y197620D01*
X19920D01*
X124850Y55070D02*
X127390Y57610D01*
X129930D01*
X127390Y60150D01*
X129930Y62690D01*
X127390D01*
X124850Y65230D01*
X122310Y62690D01*
X119770D01*
X122310Y60150D01*
X119770Y57610D01*
X122310D01*
X124850Y55070D01*
X440000Y69920D02*
X442540Y72460D01*
X445080D01*
X442540Y75000D01*
X445080Y77540D01*
X442540D01*
X440000Y80080D01*
X437460Y77540D01*
X434920D01*
X437460Y75000D01*
X434920Y72460D01*
X437460D01*
X440000Y69920D01*
X540000Y54920D02*
X542540Y57460D01*
X545080D01*
X542540Y60000D01*
X545080Y62540D01*
X542540D01*
X540000Y65080D01*
X537460Y62540D01*
X534920D01*
X537460Y60000D01*
X534920Y57460D01*
X537460D01*
X540000Y54920D01*
X125000Y79920D02*
X127540Y82460D01*
X130080D01*
X127540Y85000D01*
X130080Y87540D01*
X127540D01*
X125000Y90080D01*
X122460Y87540D01*
X119920D01*
X122460Y85000D01*
X119920Y82460D01*
X122460D01*
X125000Y79920D01*
X340000Y44920D02*
X342540Y47460D01*
X345080D01*
X342540Y50000D01*
X345080Y52540D01*
X342540D01*
X340000Y55080D01*
X337460Y52540D01*
X334920D01*
X337460Y50000D01*
X334920Y47460D01*
X337460D01*
X340000Y44920D01*
X390000Y34920D02*
X392540Y37460D01*
X395080D01*
X392540Y40000D01*
X395080Y42540D01*
X392540D01*
X390000Y45080D01*
X387460Y42540D01*
X384920D01*
X387460Y40000D01*
X384920Y37460D01*
X387460D01*
X390000Y34920D01*
X380000Y-80D02*
X382540Y2460D01*
X385080D01*
X382540Y5000D01*
X385080Y7540D01*
X382540D01*
X380000Y10080D01*
X377460Y7540D01*
X374920D01*
X377460Y5000D01*
X374920Y2460D01*
X377460D01*
X380000Y-80D01*
Y64920D02*
X382540Y67460D01*
X385080D01*
X382540Y70000D01*
X385080Y72540D01*
X382540D01*
X380000Y75080D01*
X377460Y72540D01*
X374920D01*
X377460Y70000D01*
X374920Y67460D01*
X377460D01*
X380000Y64920D01*
X540000Y-80D02*
X542540Y2460D01*
X545080D01*
X542540Y5000D01*
X545080Y7540D01*
X542540D01*
X540000Y10080D01*
X537460Y7540D01*
X534920D01*
X537460Y5000D01*
X534920Y2460D01*
X537460D01*
X540000Y-80D01*
X490000Y7825D02*
X492540Y10365D01*
X495080D01*
X492540Y12905D01*
X495080Y15445D01*
X492540D01*
X490000Y17985D01*
X487460Y15445D01*
X484920D01*
X487460Y12905D01*
X484920Y10365D01*
X487460D01*
X490000Y7825D01*
X420000Y-80D02*
X422540Y2460D01*
X425080D01*
X422540Y5000D01*
X425080Y7540D01*
X422540D01*
X420000Y10080D01*
X417460Y7540D01*
X414920D01*
X417460Y5000D01*
X414920Y2460D01*
X417460D01*
X420000Y-80D01*
X181125Y39920D02*
X183665Y42460D01*
X186205D01*
X183665Y45000D01*
X186205Y47540D01*
X183665D01*
X181125Y50080D01*
X178585Y47540D01*
X176045D01*
X178585Y45000D01*
X176045Y42460D01*
X178585D01*
X181125Y39920D01*
X301831Y149920D02*
X304371Y152460D01*
X306911D01*
X304371Y155000D01*
X306911Y157540D01*
X304371D01*
X301831Y160080D01*
X299291Y157540D01*
X296751D01*
X299291Y155000D01*
X296751Y152460D01*
X299291D01*
X301831Y149920D01*
X250000Y94920D02*
X252540Y97460D01*
X255080D01*
X252540Y100000D01*
X255080Y102540D01*
X252540D01*
X250000Y105080D01*
X247460Y102540D01*
X244920D01*
X247460Y100000D01*
X244920Y97460D01*
X247460D01*
X250000Y94920D01*
X425000Y124920D02*
X427540Y127460D01*
X430080D01*
X427540Y130000D01*
X430080Y132540D01*
X427540D01*
X425000Y135080D01*
X422460Y132540D01*
X419920D01*
X422460Y130000D01*
X419920Y127460D01*
X422460D01*
X425000Y124920D01*
X215000Y89920D02*
X217540Y92460D01*
X220080D01*
X217540Y95000D01*
X220080Y97540D01*
X217540D01*
X215000Y100080D01*
X212460Y97540D01*
X209920D01*
X212460Y95000D01*
X209920Y92460D01*
X212460D01*
X215000Y89920D01*
X365000Y124920D02*
X367540Y127460D01*
X370080D01*
X367540Y130000D01*
X370080Y132540D01*
X367540D01*
X365000Y135080D01*
X362460Y132540D01*
X359920D01*
X362460Y130000D01*
X359920Y127460D01*
X362460D01*
X365000Y124920D01*
D36*
X575080Y57700D02*
G03*
X575080Y57700I-5080J0D01*
G01*
Y32300D02*
G03*
X575080Y32300I-5080J0D01*
G01*
M02*
