G04*
G04 #@! TF.GenerationSoftware,Altium Limited,Altium Designer,24.1.2 (44)*
G04*
G04 Layer_Color=8388736*
%FSLAX44Y44*%
%MOMM*%
G71*
G04*
G04 #@! TF.SameCoordinates,D1532E8E-0FCC-4109-960E-C101D303889C*
G04*
G04*
G04 #@! TF.FilePolarity,Positive*
G04*
G01*
G75*
%ADD10C,0.2000*%
%ADD32C,0.1500*%
D10*
X113900Y11100D02*
Y108900D01*
X16100D02*
X113900D01*
X16100Y11100D02*
Y108900D01*
Y11100D02*
X113900D01*
X420525Y20475D02*
Y69525D01*
Y20475D02*
X459475D01*
Y69525D01*
X420525D02*
X459475D01*
X556800Y17100D02*
X583200D01*
Y72900D01*
X556800D02*
X583200D01*
X556800Y17100D02*
Y72900D01*
D32*
X592150Y190000D02*
G03*
X592150Y190000I-17150J0D01*
G01*
X527150D02*
G03*
X527150Y190000I-17150J0D01*
G01*
X462150D02*
G03*
X462150Y190000I-17150J0D01*
G01*
X402150D02*
G03*
X402150Y190000I-17150J0D01*
G01*
X342150D02*
G03*
X342150Y190000I-17150J0D01*
G01*
X282150D02*
G03*
X282150Y190000I-17150J0D01*
G01*
X222150D02*
G03*
X222150Y190000I-17150J0D01*
G01*
X162150D02*
G03*
X162150Y190000I-17150J0D01*
G01*
X102150D02*
G03*
X102150Y190000I-17150J0D01*
G01*
X42150D02*
G03*
X42150Y190000I-17150J0D01*
G01*
M02*
