G04*
G04 #@! TF.GenerationSoftware,Altium Limited,Altium Designer,24.1.2 (44)*
G04*
G04 Layer_Physical_Order=2*
G04 Layer_Color=16711680*
%FSLAX44Y44*%
%MOMM*%
G71*
G04*
G04 #@! TF.SameCoordinates,AFA97B25-1DD1-4B85-BE4B-D495E369A306*
G04*
G04*
G04 #@! TF.FilePolarity,Positive*
G04*
G01*
G75*
%ADD20R,2.0000X1.6000*%
%ADD21O,2.0000X1.6000*%
%ADD22C,0.6000*%
G36*
X190000Y10000D02*
X10000D01*
Y190000D01*
X190000D01*
Y10000D01*
D02*
G37*
%LPC*%
G36*
X163000Y126400D02*
X137000D01*
Y104400D01*
X163000D01*
Y126400D01*
D02*
G37*
G36*
X152000Y100631D02*
X151270D01*
Y91270D01*
X162464D01*
X162269Y92752D01*
X161207Y95316D01*
X159517Y97517D01*
X157316Y99207D01*
X154752Y100269D01*
X152000Y100631D01*
D02*
G37*
G36*
X148730D02*
X148000D01*
X145248Y100269D01*
X142684Y99207D01*
X140483Y97517D01*
X138793Y95316D01*
X137731Y92752D01*
X137536Y91270D01*
X148730D01*
Y100631D01*
D02*
G37*
G36*
X162464Y88730D02*
X151270D01*
Y79369D01*
X152000D01*
X154752Y79731D01*
X157316Y80793D01*
X159517Y82483D01*
X161207Y84684D01*
X162269Y87248D01*
X162464Y88730D01*
D02*
G37*
G36*
X148730D02*
X137536D01*
X137731Y87248D01*
X138793Y84684D01*
X140483Y82483D01*
X142684Y80793D01*
X145248Y79731D01*
X148000Y79369D01*
X148730D01*
Y88730D01*
D02*
G37*
G36*
X81270Y35470D02*
Y31270D01*
X85470D01*
X84697Y33138D01*
X83138Y34697D01*
X81270Y35470D01*
D02*
G37*
G36*
X78730D02*
X76862Y34697D01*
X75303Y33138D01*
X74530Y31270D01*
X78730D01*
Y35470D01*
D02*
G37*
G36*
X85470Y28730D02*
X81270D01*
Y24530D01*
X83138Y25303D01*
X84697Y26862D01*
X85470Y28730D01*
D02*
G37*
G36*
X78730D02*
X74530D01*
X75303Y26862D01*
X76862Y25303D01*
X78730Y24530D01*
Y28730D01*
D02*
G37*
%LPD*%
D20*
X150000Y115400D02*
D03*
D21*
Y90000D02*
D03*
D22*
X80000Y30000D02*
D03*
M02*
