G04*
G04 #@! TF.GenerationSoftware,Altium Limited,Altium Designer,24.1.2 (44)*
G04*
G04 Layer_Physical_Order=1*
G04 Layer_Color=255*
%FSLAX44Y44*%
%MOMM*%
G71*
G04*
G04 #@! TF.SameCoordinates,AFA97B25-1DD1-4B85-BE4B-D495E369A306*
G04*
G04*
G04 #@! TF.FilePolarity,Positive*
G04*
G01*
G75*
%ADD13R,0.8000X0.8000*%
%ADD14R,1.3000X0.7000*%
%ADD19C,0.3810*%
%ADD20R,2.0000X1.6000*%
%ADD21O,2.0000X1.6000*%
%ADD22C,0.6000*%
D13*
X55000Y51750D02*
D03*
Y68250D02*
D03*
D14*
Y144000D02*
D03*
Y125000D02*
D03*
D19*
X64203Y30398D02*
G03*
X65899Y30000I1696J3412D01*
G01*
X55000Y37355D02*
G03*
X57117Y33942I3810J0D01*
G01*
X126039Y169169D02*
G03*
X123664Y170000I-2376J-2979D01*
G01*
X150000Y148169D02*
G03*
X148570Y151144I-3810J-0D01*
G01*
X65899Y30000D02*
X80000D01*
X64195Y30402D02*
X64203Y30398D01*
X57117Y33942D02*
X64195Y30402D01*
X55000Y37355D02*
Y51750D01*
Y68250D02*
Y125500D01*
Y160000D02*
X56116Y161115D01*
X56116Y161116D02*
X56116D01*
X65000Y170000D02*
X65004D01*
X65004Y170000D02*
X123664D01*
X56116Y161115D02*
X56116Y161116D01*
X56116D02*
X65000Y170000D01*
X65004D02*
X65004Y170000D01*
X55000Y158421D02*
Y160000D01*
X126044Y169165D02*
X148570Y151144D01*
X126039Y169169D02*
X126044Y169165D01*
X55000Y144500D02*
Y158421D01*
X150000Y115400D02*
Y148169D01*
D20*
Y115400D02*
D03*
D21*
Y90000D02*
D03*
D22*
X80000Y30000D02*
D03*
M02*
