G04*
G04 #@! TF.GenerationSoftware,Altium Limited,Altium Designer,24.1.2 (44)*
G04*
G04 Layer_Color=65535*
%FSLAX44Y44*%
%MOMM*%
G71*
G04*
G04 #@! TF.SameCoordinates,AFA97B25-1DD1-4B85-BE4B-D495E369A306*
G04*
G04*
G04 #@! TF.FilePolarity,Positive*
G04*
G01*
G75*
%ADD10C,0.2000*%
%ADD11C,0.2540*%
%ADD12R,1.4000X0.4000*%
G36*
X158110Y48130D02*
X159020D01*
Y48060D01*
X159580D01*
Y47990D01*
X160000D01*
Y47920D01*
X160420D01*
Y47850D01*
X160700D01*
Y47780D01*
X161050D01*
Y47710D01*
X161330D01*
Y47640D01*
X161610D01*
Y47570D01*
X161890D01*
Y47500D01*
X162100D01*
Y47430D01*
X162310D01*
Y47360D01*
X162520D01*
Y47290D01*
X162730D01*
Y47220D01*
X162940D01*
Y47150D01*
X163150D01*
Y47080D01*
X163360D01*
Y47010D01*
X163500D01*
Y46940D01*
X163710D01*
Y46870D01*
X163850D01*
Y46800D01*
X163990D01*
Y46730D01*
X164200D01*
Y46660D01*
X164340D01*
Y46590D01*
X164480D01*
Y46520D01*
X164620D01*
Y46450D01*
X164760D01*
Y46380D01*
X164900D01*
Y46310D01*
X165040D01*
Y46240D01*
X165180D01*
Y46170D01*
X165320D01*
Y46100D01*
X165460D01*
Y46030D01*
X165600D01*
Y45960D01*
X165670D01*
Y45890D01*
X165810D01*
Y45820D01*
X165950D01*
Y45750D01*
X166090D01*
Y45680D01*
X166160D01*
Y45610D01*
X166300D01*
Y45540D01*
X166440D01*
Y45470D01*
X166510D01*
Y45400D01*
X166650D01*
Y45330D01*
X166720D01*
Y45260D01*
X166860D01*
Y45190D01*
X166930D01*
Y45120D01*
X167070D01*
Y45050D01*
X167140D01*
Y44980D01*
X167280D01*
Y44910D01*
X167350D01*
Y44840D01*
X167420D01*
Y44770D01*
X167560D01*
Y44700D01*
X167630D01*
Y44630D01*
X167700D01*
Y44560D01*
X167840D01*
Y44490D01*
X167910D01*
Y44420D01*
X167980D01*
Y44350D01*
X168050D01*
Y44280D01*
X168190D01*
Y44210D01*
X168260D01*
Y44140D01*
X168330D01*
Y44070D01*
X168400D01*
Y44000D01*
X168470D01*
Y43930D01*
X168610D01*
Y43860D01*
X168680D01*
Y43790D01*
X168750D01*
Y43720D01*
X168820D01*
Y43650D01*
X168890D01*
Y43580D01*
X168960D01*
Y43510D01*
X169030D01*
Y43440D01*
X169100D01*
Y43370D01*
X169240D01*
Y43300D01*
X169310D01*
Y43230D01*
X169380D01*
Y43160D01*
X169450D01*
Y43090D01*
X169520D01*
Y43020D01*
X169590D01*
Y42950D01*
X169660D01*
Y42880D01*
X169730D01*
Y42810D01*
X169800D01*
Y42670D01*
X169870D01*
Y42600D01*
X169940D01*
Y42530D01*
X170010D01*
Y42460D01*
X170080D01*
Y42390D01*
X170150D01*
Y42320D01*
X170220D01*
Y42250D01*
X170290D01*
Y42180D01*
X170360D01*
Y42110D01*
X170430D01*
Y41970D01*
X170500D01*
Y41900D01*
X170570D01*
Y41830D01*
X170640D01*
Y41760D01*
X170710D01*
Y41690D01*
X170780D01*
Y41620D01*
X170850D01*
Y41480D01*
X170920D01*
Y41410D01*
X170990D01*
Y41340D01*
X171060D01*
Y41200D01*
X171130D01*
Y41130D01*
X171200D01*
Y41060D01*
X171270D01*
Y40920D01*
X171340D01*
Y40850D01*
X171410D01*
Y40780D01*
X171480D01*
Y40640D01*
X171550D01*
Y40570D01*
X171620D01*
Y40430D01*
X171690D01*
Y40360D01*
X171760D01*
Y40220D01*
X171830D01*
Y40150D01*
X171900D01*
Y40010D01*
X171970D01*
Y39940D01*
X172040D01*
Y39800D01*
X172110D01*
Y39660D01*
X172180D01*
Y39590D01*
X172250D01*
Y39450D01*
X172320D01*
Y39310D01*
X172390D01*
Y39240D01*
X172460D01*
Y39100D01*
X172530D01*
Y38960D01*
X172600D01*
Y38820D01*
X172670D01*
Y38680D01*
X172740D01*
Y38540D01*
X172810D01*
Y38400D01*
X172880D01*
Y38260D01*
X172950D01*
Y38120D01*
X173020D01*
Y37980D01*
X173090D01*
Y37840D01*
X173160D01*
Y37700D01*
X173230D01*
Y37560D01*
X173300D01*
Y37350D01*
X173370D01*
Y37210D01*
X173440D01*
Y37070D01*
X173510D01*
Y36860D01*
X173580D01*
Y36650D01*
X173650D01*
Y36510D01*
X173720D01*
Y36300D01*
X173790D01*
Y36090D01*
X173860D01*
Y35880D01*
X173930D01*
Y35600D01*
X174000D01*
Y35390D01*
X174070D01*
Y35110D01*
X174140D01*
Y34830D01*
X174210D01*
Y34550D01*
X174280D01*
Y34270D01*
X174350D01*
Y33920D01*
X174420D01*
Y33570D01*
X174490D01*
Y33080D01*
X174560D01*
Y32590D01*
X174630D01*
Y32030D01*
X175820D01*
Y30350D01*
X175750D01*
Y29650D01*
X175680D01*
Y29090D01*
X175610D01*
Y28600D01*
X175540D01*
Y28180D01*
X175470D01*
Y27830D01*
X175400D01*
Y27550D01*
X175330D01*
Y27270D01*
X175260D01*
Y26920D01*
X175190D01*
Y26710D01*
X175120D01*
Y26430D01*
X175050D01*
Y26220D01*
X174980D01*
Y25940D01*
X174910D01*
Y25730D01*
X174840D01*
Y25520D01*
X174770D01*
Y25310D01*
X174700D01*
Y25100D01*
X174630D01*
Y24960D01*
X174560D01*
Y24750D01*
X174490D01*
Y24610D01*
X174420D01*
Y24400D01*
X174350D01*
Y24260D01*
X174280D01*
Y24120D01*
X174210D01*
Y23980D01*
X174140D01*
Y23840D01*
X174070D01*
Y23630D01*
X174000D01*
Y23490D01*
X173930D01*
Y23350D01*
X173860D01*
Y23210D01*
X173790D01*
Y23070D01*
X173720D01*
Y22930D01*
X173650D01*
Y22790D01*
X173580D01*
Y22650D01*
X173510D01*
Y22510D01*
X173440D01*
Y22440D01*
X173370D01*
Y22300D01*
X173300D01*
Y22160D01*
X173230D01*
Y22090D01*
X173160D01*
Y21950D01*
X173090D01*
Y21810D01*
X173020D01*
Y21740D01*
X172950D01*
Y21600D01*
X172880D01*
Y21530D01*
X172810D01*
Y21390D01*
X172740D01*
Y21320D01*
X172670D01*
Y21180D01*
X172600D01*
Y21040D01*
X172530D01*
Y20970D01*
X172460D01*
Y20900D01*
X172390D01*
Y20760D01*
X172320D01*
Y20690D01*
X172250D01*
Y20620D01*
X172180D01*
Y20480D01*
X172110D01*
Y20410D01*
X172040D01*
Y20340D01*
X171970D01*
Y20200D01*
X171900D01*
Y20130D01*
X171830D01*
Y20060D01*
X171760D01*
Y19990D01*
X171690D01*
Y19850D01*
X171620D01*
Y19780D01*
X171550D01*
Y19710D01*
X171480D01*
Y19640D01*
X171410D01*
Y19500D01*
X171340D01*
Y19430D01*
X171270D01*
Y19360D01*
X171200D01*
Y19290D01*
X171130D01*
Y19220D01*
X171060D01*
Y19150D01*
X170990D01*
Y19080D01*
X170920D01*
Y18940D01*
X170850D01*
Y18870D01*
X170780D01*
Y18800D01*
X170710D01*
Y18730D01*
X170640D01*
Y18660D01*
X170570D01*
Y18590D01*
X170500D01*
Y18520D01*
X170430D01*
Y18450D01*
X170360D01*
Y18380D01*
X170290D01*
Y18310D01*
X170220D01*
Y18240D01*
X170150D01*
Y18170D01*
X170080D01*
Y18100D01*
X170010D01*
Y18030D01*
X169940D01*
Y17960D01*
X169800D01*
Y17890D01*
X169730D01*
Y17820D01*
X169660D01*
Y17750D01*
X169590D01*
Y17680D01*
X169520D01*
Y17610D01*
X169450D01*
Y17540D01*
X169380D01*
Y17470D01*
X169240D01*
Y17400D01*
X169170D01*
Y17330D01*
X169100D01*
Y17260D01*
X169030D01*
Y17190D01*
X168960D01*
Y17120D01*
X168820D01*
Y17050D01*
X168750D01*
Y16980D01*
X168680D01*
Y16910D01*
X168610D01*
Y16840D01*
X168470D01*
Y16770D01*
X168400D01*
Y16700D01*
X168330D01*
Y16630D01*
X168190D01*
Y16560D01*
X168120D01*
Y16490D01*
X168050D01*
Y16420D01*
X167910D01*
Y16350D01*
X167840D01*
Y16280D01*
X167700D01*
Y16210D01*
X167630D01*
Y16140D01*
X167490D01*
Y16070D01*
X167420D01*
Y16000D01*
X167280D01*
Y15930D01*
X167140D01*
Y15860D01*
X167070D01*
Y15790D01*
X166930D01*
Y15720D01*
X166860D01*
Y15650D01*
X166720D01*
Y15580D01*
X166580D01*
Y15510D01*
X166510D01*
Y15440D01*
X166370D01*
Y15370D01*
X166230D01*
Y15300D01*
X166090D01*
Y15230D01*
X165950D01*
Y15160D01*
X165880D01*
Y15090D01*
X165740D01*
Y15020D01*
X165600D01*
Y14950D01*
X165460D01*
Y14880D01*
X165320D01*
Y14810D01*
X165180D01*
Y14740D01*
X165040D01*
Y14670D01*
X164830D01*
Y14600D01*
X164690D01*
Y14530D01*
X164550D01*
Y14460D01*
X164410D01*
Y14390D01*
X164270D01*
Y14320D01*
X164060D01*
Y14250D01*
X163850D01*
Y14180D01*
X163710D01*
Y14110D01*
X163500D01*
Y14040D01*
X163290D01*
Y13970D01*
X163150D01*
Y13900D01*
X162870D01*
Y13830D01*
X162660D01*
Y13760D01*
X162450D01*
Y13690D01*
X162170D01*
Y13620D01*
X161960D01*
Y13550D01*
X161680D01*
Y13480D01*
X161330D01*
Y13410D01*
X161050D01*
Y13340D01*
X160770D01*
Y13270D01*
X160350D01*
Y13200D01*
X160000D01*
Y13130D01*
X159580D01*
Y13060D01*
X158880D01*
Y12990D01*
X157830D01*
Y12920D01*
X156640D01*
Y12990D01*
X155450D01*
Y13060D01*
X154750D01*
Y13130D01*
X154260D01*
Y13200D01*
X153840D01*
Y13270D01*
X153420D01*
Y13340D01*
X153070D01*
Y13410D01*
X152790D01*
Y13480D01*
X152510D01*
Y13550D01*
X152230D01*
Y13620D01*
X151950D01*
Y13690D01*
X151740D01*
Y13760D01*
X151530D01*
Y13830D01*
X151320D01*
Y13900D01*
X151110D01*
Y13970D01*
X150900D01*
Y14040D01*
X150690D01*
Y14110D01*
X150480D01*
Y14180D01*
X150340D01*
Y14250D01*
X150130D01*
Y14320D01*
X149920D01*
Y14390D01*
X149780D01*
Y14460D01*
X149640D01*
Y14530D01*
X149500D01*
Y14600D01*
X149290D01*
Y14670D01*
X149150D01*
Y14740D01*
X149010D01*
Y14810D01*
X148870D01*
Y14880D01*
X148730D01*
Y14950D01*
X148590D01*
Y15020D01*
X148450D01*
Y15090D01*
X148310D01*
Y15160D01*
X148170D01*
Y15230D01*
X148100D01*
Y15300D01*
X147960D01*
Y15370D01*
X147820D01*
Y15440D01*
X147680D01*
Y15510D01*
X147540D01*
Y15580D01*
X147470D01*
Y15650D01*
X147330D01*
Y15720D01*
X147190D01*
Y15790D01*
X147120D01*
Y15860D01*
X146980D01*
Y15930D01*
X146910D01*
Y16000D01*
X146770D01*
Y16070D01*
X146630D01*
Y16140D01*
X146560D01*
Y16210D01*
X146420D01*
Y16280D01*
X146350D01*
Y16350D01*
X146280D01*
Y16420D01*
X146140D01*
Y16490D01*
X146070D01*
Y16560D01*
X145930D01*
Y16630D01*
X145860D01*
Y16700D01*
X145720D01*
Y16770D01*
X145650D01*
Y16840D01*
X145580D01*
Y16910D01*
X145510D01*
Y16980D01*
X145370D01*
Y17050D01*
X145300D01*
Y17120D01*
X145230D01*
Y17190D01*
X145160D01*
Y17260D01*
X145090D01*
Y17330D01*
X144950D01*
Y17400D01*
X144880D01*
Y17470D01*
X144810D01*
Y17540D01*
X144740D01*
Y17610D01*
X144670D01*
Y17680D01*
X144600D01*
Y17750D01*
X144530D01*
Y17820D01*
X144390D01*
Y17890D01*
X144320D01*
Y17960D01*
X144250D01*
Y18030D01*
X144180D01*
Y18100D01*
X144110D01*
Y18170D01*
X144040D01*
Y18240D01*
X143970D01*
Y18310D01*
X143900D01*
Y18380D01*
X143830D01*
Y18450D01*
X143760D01*
Y18520D01*
X143690D01*
Y18590D01*
X143620D01*
Y18660D01*
X143550D01*
Y18730D01*
X143480D01*
Y18800D01*
X143410D01*
Y18870D01*
X143340D01*
Y18940D01*
X143270D01*
Y19010D01*
X143200D01*
Y19150D01*
X143130D01*
Y19220D01*
X143060D01*
Y19290D01*
X142990D01*
Y19360D01*
X142920D01*
Y19430D01*
X142850D01*
Y19500D01*
X142780D01*
Y19570D01*
X142710D01*
Y19710D01*
X142640D01*
Y19780D01*
X142570D01*
Y19850D01*
X142500D01*
Y19920D01*
X142430D01*
Y19990D01*
X142360D01*
Y20130D01*
X142290D01*
Y20200D01*
X142220D01*
Y20270D01*
X142150D01*
Y20410D01*
X142080D01*
Y20480D01*
X142010D01*
Y20550D01*
X141940D01*
Y20690D01*
X141870D01*
Y20760D01*
X141800D01*
Y20900D01*
X141730D01*
Y20970D01*
X141660D01*
Y21040D01*
X141590D01*
Y21180D01*
X141520D01*
Y21250D01*
X141450D01*
Y21390D01*
X141380D01*
Y21460D01*
X141310D01*
Y21600D01*
X141240D01*
Y21740D01*
X141170D01*
Y21810D01*
X141100D01*
Y21950D01*
X141030D01*
Y22020D01*
X140960D01*
Y22160D01*
X140890D01*
Y22300D01*
X140820D01*
Y22370D01*
X140750D01*
Y22510D01*
X140680D01*
Y22650D01*
X140610D01*
Y22790D01*
X140540D01*
Y22930D01*
X140470D01*
Y23070D01*
X140400D01*
Y23210D01*
X140330D01*
Y23350D01*
X140260D01*
Y23490D01*
X140190D01*
Y23630D01*
X140120D01*
Y23770D01*
X140050D01*
Y23910D01*
X139980D01*
Y24120D01*
X139910D01*
Y24260D01*
X139840D01*
Y24400D01*
X139770D01*
Y24540D01*
X139700D01*
Y24750D01*
X139630D01*
Y24960D01*
X139560D01*
Y25100D01*
X139490D01*
Y25310D01*
X139420D01*
Y25520D01*
X139350D01*
Y25730D01*
X139280D01*
Y25940D01*
X139210D01*
Y26150D01*
X139140D01*
Y26430D01*
X139070D01*
Y26640D01*
X139000D01*
Y26920D01*
X138930D01*
Y27130D01*
X138860D01*
Y27480D01*
X138790D01*
Y27830D01*
X138720D01*
Y28110D01*
X138650D01*
Y28530D01*
X138580D01*
Y29020D01*
X138510D01*
Y29510D01*
X138440D01*
Y30350D01*
X138370D01*
Y32030D01*
X139490D01*
Y32520D01*
X139560D01*
Y33080D01*
X139630D01*
Y33500D01*
X139700D01*
Y33850D01*
X139770D01*
Y34200D01*
Y34270D01*
X139840D01*
Y34550D01*
X139910D01*
Y34830D01*
X139980D01*
Y35110D01*
X140050D01*
Y35390D01*
X140120D01*
Y35600D01*
X140190D01*
Y35880D01*
X140260D01*
Y36090D01*
X140330D01*
Y36300D01*
X140400D01*
Y36510D01*
X140470D01*
Y36650D01*
X140540D01*
Y36860D01*
X140610D01*
Y37070D01*
X140680D01*
Y37210D01*
X140750D01*
Y37420D01*
X140820D01*
Y37560D01*
X140890D01*
Y37700D01*
X140960D01*
Y37910D01*
X141030D01*
Y38050D01*
X141100D01*
Y38190D01*
X141170D01*
Y38330D01*
X141240D01*
Y38470D01*
X141310D01*
Y38610D01*
X141380D01*
Y38750D01*
X141450D01*
Y38890D01*
X141520D01*
Y39030D01*
X141590D01*
Y39170D01*
X141660D01*
Y39240D01*
X141730D01*
Y39380D01*
X141800D01*
Y39520D01*
X141870D01*
Y39590D01*
X141940D01*
Y39730D01*
X142010D01*
Y39870D01*
X142080D01*
Y39940D01*
X142150D01*
Y40080D01*
X142220D01*
Y40220D01*
X142290D01*
Y40290D01*
X142360D01*
Y40430D01*
X142430D01*
Y40500D01*
X142500D01*
Y40570D01*
X142570D01*
Y40710D01*
X142640D01*
Y40780D01*
X142710D01*
Y40920D01*
X142780D01*
Y40990D01*
X142850D01*
Y41060D01*
X142920D01*
Y41200D01*
X142990D01*
Y41270D01*
X143060D01*
Y41340D01*
X143130D01*
Y41480D01*
X143200D01*
Y41550D01*
X143270D01*
Y41620D01*
X143340D01*
Y41760D01*
X143410D01*
Y41830D01*
X143480D01*
Y41900D01*
X143550D01*
Y41970D01*
X143620D01*
Y42040D01*
X143690D01*
Y42110D01*
X143760D01*
Y42250D01*
X143830D01*
Y42320D01*
X143900D01*
Y42390D01*
X143970D01*
Y42460D01*
X144040D01*
Y42530D01*
X144110D01*
Y42600D01*
X144180D01*
Y42670D01*
X144250D01*
Y42740D01*
X144320D01*
Y42810D01*
X144390D01*
Y42880D01*
X144460D01*
Y42950D01*
X144530D01*
Y43020D01*
X144600D01*
Y43090D01*
X144670D01*
Y43160D01*
X144740D01*
Y43230D01*
X144810D01*
Y43300D01*
X144880D01*
Y43370D01*
X144950D01*
Y43440D01*
X145020D01*
Y43510D01*
X145090D01*
Y43580D01*
X145160D01*
Y43650D01*
X145230D01*
Y43720D01*
X145370D01*
Y43790D01*
X145440D01*
Y43860D01*
X145510D01*
Y43930D01*
X145580D01*
Y44000D01*
X145650D01*
Y44070D01*
X145720D01*
Y44140D01*
X145860D01*
Y44210D01*
X145930D01*
Y44280D01*
X146000D01*
Y44350D01*
X146070D01*
Y44420D01*
X146140D01*
Y44490D01*
X146280D01*
Y44560D01*
X146350D01*
Y44630D01*
X146420D01*
Y44700D01*
X146560D01*
Y44770D01*
X146630D01*
Y44840D01*
X146700D01*
Y44910D01*
X146840D01*
Y44980D01*
X146910D01*
Y45050D01*
X146980D01*
Y45120D01*
X147120D01*
Y45190D01*
X147260D01*
Y45260D01*
X147330D01*
Y45330D01*
X147470D01*
Y45400D01*
X147540D01*
Y45470D01*
X147680D01*
Y45540D01*
X147750D01*
Y45610D01*
X147890D01*
Y45680D01*
X148030D01*
Y45750D01*
X148100D01*
Y45820D01*
X148240D01*
Y45890D01*
X148380D01*
Y45960D01*
X148450D01*
Y46030D01*
X148590D01*
Y46100D01*
X148730D01*
Y46170D01*
X148870D01*
Y46240D01*
X149010D01*
Y46310D01*
X149150D01*
Y46380D01*
X149290D01*
Y46450D01*
X149430D01*
Y46520D01*
X149570D01*
Y46590D01*
X149710D01*
Y46660D01*
X149920D01*
Y46730D01*
X150060D01*
Y46800D01*
X150200D01*
Y46870D01*
X150340D01*
Y46940D01*
X150550D01*
Y47010D01*
X150760D01*
Y47080D01*
X150900D01*
Y47150D01*
X151110D01*
Y47220D01*
X151320D01*
Y47290D01*
X151530D01*
Y47360D01*
X151740D01*
Y47430D01*
X151950D01*
Y47500D01*
X152160D01*
Y47570D01*
X152440D01*
Y47640D01*
X152720D01*
Y47710D01*
X153000D01*
Y47780D01*
X153350D01*
Y47850D01*
X153630D01*
Y47920D01*
X154050D01*
Y47990D01*
X154470D01*
Y48060D01*
X155030D01*
Y48130D01*
X155940D01*
Y48200D01*
X158110D01*
Y48130D01*
D02*
G37*
%LPC*%
G36*
X157970Y47220D02*
X156080D01*
Y47150D01*
X155310D01*
Y47080D01*
X154680D01*
Y47010D01*
X154260D01*
Y46940D01*
X153910D01*
Y46870D01*
X153560D01*
Y46800D01*
X153210D01*
Y46730D01*
X152930D01*
Y46660D01*
X152650D01*
Y46590D01*
X152440D01*
Y46520D01*
X152160D01*
Y46450D01*
X151950D01*
Y46380D01*
X151740D01*
Y46310D01*
X151530D01*
Y46240D01*
X151320D01*
Y46170D01*
X151180D01*
Y46100D01*
X150970D01*
Y46030D01*
X150830D01*
Y45960D01*
X150620D01*
Y45890D01*
X150480D01*
Y45820D01*
X150270D01*
Y45750D01*
X150130D01*
Y45680D01*
X149990D01*
Y45610D01*
X149850D01*
Y45540D01*
X149710D01*
Y45470D01*
X149570D01*
Y45400D01*
X149430D01*
Y45330D01*
X149290D01*
Y45260D01*
X149150D01*
Y45190D01*
X149010D01*
Y45120D01*
X148870D01*
Y45050D01*
X148800D01*
Y44980D01*
X148660D01*
Y44910D01*
X148520D01*
Y44840D01*
X148450D01*
Y44770D01*
X148310D01*
Y44700D01*
X148240D01*
Y44630D01*
X148100D01*
Y44560D01*
X147960D01*
Y44490D01*
X147890D01*
Y44420D01*
X147750D01*
Y44350D01*
X147680D01*
Y44280D01*
X147540D01*
Y44210D01*
X147470D01*
Y44140D01*
X147330D01*
Y44070D01*
X147260D01*
Y44000D01*
X147190D01*
Y43930D01*
X147050D01*
Y43860D01*
X146980D01*
Y43790D01*
X146910D01*
Y43720D01*
X146840D01*
Y43650D01*
X146700D01*
Y43580D01*
X146630D01*
Y43510D01*
X146560D01*
Y43440D01*
X146490D01*
Y43370D01*
X146350D01*
Y43300D01*
X146280D01*
Y43230D01*
X146210D01*
Y43160D01*
X146140D01*
Y43090D01*
X146070D01*
Y43020D01*
X145930D01*
Y42950D01*
X145860D01*
Y42880D01*
X145790D01*
Y42810D01*
X145720D01*
Y42740D01*
X145650D01*
Y42670D01*
X145580D01*
Y42600D01*
X145510D01*
Y42530D01*
X145440D01*
Y42460D01*
X145370D01*
Y42390D01*
X145300D01*
Y42320D01*
X145230D01*
Y42250D01*
X145160D01*
Y42180D01*
X145090D01*
Y42110D01*
X145020D01*
Y42040D01*
X144950D01*
Y41970D01*
X144880D01*
Y41900D01*
X144810D01*
Y41830D01*
X144740D01*
Y41690D01*
X144670D01*
Y41620D01*
X144600D01*
Y41550D01*
X144530D01*
Y41480D01*
X144460D01*
Y41410D01*
X144390D01*
Y41340D01*
X144320D01*
Y41270D01*
X144250D01*
Y41130D01*
X144180D01*
Y41060D01*
X144110D01*
Y40990D01*
X144040D01*
Y40920D01*
X143970D01*
Y40780D01*
X143900D01*
Y40710D01*
X143830D01*
Y40640D01*
X143760D01*
Y40570D01*
X143690D01*
Y40430D01*
X143620D01*
Y40360D01*
X143550D01*
Y40220D01*
X143480D01*
Y40150D01*
X143410D01*
Y40080D01*
X143340D01*
Y39940D01*
X143270D01*
Y39870D01*
X143200D01*
Y39730D01*
X143130D01*
Y39660D01*
X143060D01*
Y39520D01*
X142990D01*
Y39380D01*
X142920D01*
Y39310D01*
X142850D01*
Y39170D01*
X142780D01*
Y39100D01*
X142710D01*
Y38960D01*
X142640D01*
Y38820D01*
X142570D01*
Y38680D01*
X142500D01*
Y38610D01*
X142430D01*
Y38470D01*
X142360D01*
Y38330D01*
X142290D01*
Y38190D01*
X142220D01*
Y38050D01*
X142150D01*
Y37910D01*
X142080D01*
Y37770D01*
X142010D01*
Y37630D01*
X141940D01*
Y37490D01*
X141870D01*
Y37350D01*
X141800D01*
Y37140D01*
X141730D01*
Y37000D01*
X141660D01*
Y36860D01*
X141590D01*
Y36650D01*
X141520D01*
Y36510D01*
X141450D01*
Y36300D01*
X141380D01*
Y36090D01*
X141310D01*
Y35880D01*
X141240D01*
Y35670D01*
X141170D01*
Y35460D01*
X141100D01*
Y35250D01*
X141030D01*
Y34970D01*
X140960D01*
Y34690D01*
X140890D01*
Y34410D01*
X140820D01*
Y34060D01*
X140750D01*
Y33780D01*
X140680D01*
Y33360D01*
X140610D01*
Y32940D01*
X140540D01*
Y32380D01*
X140470D01*
Y32030D01*
X141870D01*
Y32310D01*
X141940D01*
Y32870D01*
X142010D01*
Y33220D01*
X142080D01*
Y33640D01*
X142150D01*
Y33990D01*
X142220D01*
Y34270D01*
X142290D01*
Y34550D01*
X142360D01*
Y34760D01*
X142430D01*
Y35040D01*
X142500D01*
Y35250D01*
X142570D01*
Y35460D01*
X142640D01*
Y35670D01*
X142710D01*
Y35880D01*
X142780D01*
Y36020D01*
X142850D01*
Y36230D01*
X142920D01*
Y36370D01*
X142990D01*
Y36580D01*
X143060D01*
Y36720D01*
X143130D01*
Y36860D01*
X143200D01*
Y37000D01*
X143270D01*
Y37140D01*
X143340D01*
Y37350D01*
X143410D01*
Y37490D01*
X143480D01*
Y37630D01*
X143550D01*
Y37700D01*
X143620D01*
Y37840D01*
X143690D01*
Y37980D01*
X143760D01*
Y38120D01*
X143830D01*
Y38260D01*
X143900D01*
Y38330D01*
X143970D01*
Y38470D01*
X144040D01*
Y38610D01*
X144110D01*
Y38750D01*
X144180D01*
Y38820D01*
X144250D01*
Y38960D01*
X144320D01*
Y39030D01*
X144390D01*
Y39170D01*
X144460D01*
Y39240D01*
X144530D01*
Y39310D01*
X144600D01*
Y39450D01*
X144670D01*
Y39520D01*
X144740D01*
Y39660D01*
X144810D01*
Y39730D01*
X144880D01*
Y39800D01*
X144950D01*
Y39940D01*
X145020D01*
Y40010D01*
X145090D01*
Y40080D01*
X145160D01*
Y40150D01*
X145230D01*
Y40290D01*
X145300D01*
Y40360D01*
X145370D01*
Y40430D01*
X145440D01*
Y40500D01*
X145510D01*
Y40570D01*
X145580D01*
Y40710D01*
X145650D01*
Y40780D01*
X145720D01*
Y40850D01*
X145790D01*
Y40920D01*
X145860D01*
Y40990D01*
X145930D01*
Y41060D01*
X146000D01*
Y41130D01*
X146070D01*
Y41200D01*
X146140D01*
Y41270D01*
X146210D01*
Y41340D01*
X146280D01*
Y41410D01*
X146350D01*
Y41480D01*
X146420D01*
Y41550D01*
X146490D01*
Y41620D01*
X146560D01*
Y41690D01*
X146630D01*
Y41760D01*
X146700D01*
Y41830D01*
X146770D01*
Y41900D01*
X146840D01*
Y41970D01*
X146910D01*
Y42040D01*
X146980D01*
Y42110D01*
X147120D01*
Y42180D01*
X147190D01*
Y42250D01*
X147260D01*
Y42320D01*
X147330D01*
Y42390D01*
X147400D01*
Y42460D01*
X147470D01*
Y42530D01*
X147610D01*
Y42600D01*
X147680D01*
Y42670D01*
X147750D01*
Y42740D01*
X147820D01*
Y42810D01*
X147960D01*
Y42880D01*
X148030D01*
Y42950D01*
X148170D01*
Y43020D01*
X148240D01*
Y43090D01*
X148310D01*
Y43160D01*
X148450D01*
Y43230D01*
X148520D01*
Y43300D01*
X148660D01*
Y43370D01*
X148730D01*
Y43440D01*
X148870D01*
Y43510D01*
X148940D01*
Y43580D01*
X149080D01*
Y43650D01*
X149220D01*
Y43720D01*
X149290D01*
Y43790D01*
X149430D01*
Y43860D01*
X149570D01*
Y43930D01*
X149640D01*
Y44000D01*
X149780D01*
Y44070D01*
X149920D01*
Y44140D01*
X150060D01*
Y44210D01*
X150200D01*
Y44280D01*
X150340D01*
Y44350D01*
X150480D01*
Y44420D01*
X150620D01*
Y44490D01*
X150760D01*
Y44560D01*
X150900D01*
Y44630D01*
X151110D01*
Y44700D01*
X151250D01*
Y44770D01*
X151460D01*
Y44840D01*
X151600D01*
Y44910D01*
X151810D01*
Y44980D01*
X152020D01*
Y45050D01*
X152230D01*
Y45120D01*
X152440D01*
Y45190D01*
X152650D01*
Y45260D01*
X152790D01*
Y45330D01*
X153070D01*
Y45400D01*
X153350D01*
Y45470D01*
X153700D01*
Y45540D01*
X153980D01*
Y45610D01*
X154330D01*
Y45680D01*
X154750D01*
Y45750D01*
X155240D01*
Y45820D01*
X155940D01*
Y45890D01*
X158320D01*
Y45820D01*
X159020D01*
Y45750D01*
X159510D01*
Y45680D01*
X159930D01*
Y45610D01*
X160210D01*
Y45540D01*
X160560D01*
Y45470D01*
X160840D01*
Y45400D01*
X161120D01*
Y45330D01*
X161400D01*
Y45260D01*
X161610D01*
Y45190D01*
X161820D01*
Y45120D01*
X162030D01*
Y45050D01*
X162240D01*
Y44980D01*
X162380D01*
Y44910D01*
X162590D01*
Y44840D01*
X162800D01*
Y44770D01*
X162940D01*
Y44700D01*
X163150D01*
Y44630D01*
X163290D01*
Y44560D01*
X163430D01*
Y44490D01*
X163570D01*
Y44420D01*
X163710D01*
Y44350D01*
X163850D01*
Y44280D01*
X163990D01*
Y44210D01*
X164130D01*
Y44140D01*
X164270D01*
Y44070D01*
X164410D01*
Y44000D01*
X164550D01*
Y43930D01*
X164690D01*
Y43860D01*
X164830D01*
Y43790D01*
X164900D01*
Y43720D01*
X165040D01*
Y43650D01*
X165180D01*
Y43580D01*
X165250D01*
Y43510D01*
X165390D01*
Y43440D01*
X165460D01*
Y43370D01*
X165600D01*
Y43300D01*
X165670D01*
Y43230D01*
X165810D01*
Y43160D01*
X165880D01*
Y43090D01*
X166020D01*
Y43020D01*
X166090D01*
Y42950D01*
X166160D01*
Y42880D01*
X166300D01*
Y42810D01*
X166370D01*
Y42740D01*
X166440D01*
Y42670D01*
X166580D01*
Y42600D01*
X166650D01*
Y42530D01*
X166720D01*
Y42460D01*
X166790D01*
Y42390D01*
X166930D01*
Y42320D01*
X167000D01*
Y42250D01*
X167070D01*
Y42180D01*
X167140D01*
Y42110D01*
X167210D01*
Y42040D01*
X167350D01*
Y41970D01*
X167420D01*
Y41900D01*
X167490D01*
Y41830D01*
X167560D01*
Y41760D01*
X167630D01*
Y41690D01*
X167700D01*
Y41620D01*
X167770D01*
Y41550D01*
X167840D01*
Y41480D01*
X167910D01*
Y41410D01*
X167980D01*
Y41340D01*
X168050D01*
Y41270D01*
X168120D01*
Y41200D01*
X168190D01*
Y41130D01*
X168260D01*
Y41060D01*
X168330D01*
Y40990D01*
X168400D01*
Y40850D01*
X168470D01*
Y40780D01*
X168540D01*
Y40710D01*
X168610D01*
Y40640D01*
X168680D01*
Y40570D01*
X168750D01*
Y40500D01*
X168820D01*
Y40360D01*
X168890D01*
Y40290D01*
X168960D01*
Y40220D01*
X169030D01*
Y40150D01*
X169100D01*
Y40080D01*
X169170D01*
Y39940D01*
X169240D01*
Y39870D01*
X169310D01*
Y39800D01*
X169380D01*
Y39660D01*
X169450D01*
Y39590D01*
X169520D01*
Y39520D01*
X169590D01*
Y39380D01*
X169660D01*
Y39310D01*
X169730D01*
Y39170D01*
X169800D01*
Y39100D01*
X169870D01*
Y38960D01*
X169940D01*
Y38890D01*
X170010D01*
Y38750D01*
X170080D01*
Y38680D01*
X170150D01*
Y38540D01*
X170220D01*
Y38400D01*
X170290D01*
Y38330D01*
X170360D01*
Y38190D01*
X170430D01*
Y38050D01*
X170500D01*
Y37910D01*
X170570D01*
Y37840D01*
X170640D01*
Y37700D01*
X170710D01*
Y37560D01*
X170780D01*
Y37420D01*
X170850D01*
Y37280D01*
X170920D01*
Y37140D01*
X170990D01*
Y37000D01*
X171060D01*
Y36860D01*
X171130D01*
Y36650D01*
X171200D01*
Y36510D01*
X171270D01*
Y36300D01*
X171340D01*
Y36160D01*
X171410D01*
Y35950D01*
X171480D01*
Y35740D01*
X171550D01*
Y35600D01*
X171620D01*
Y35320D01*
X171690D01*
Y35110D01*
X171760D01*
Y34900D01*
X171830D01*
Y34690D01*
X171900D01*
Y34410D01*
X171970D01*
Y34130D01*
X172040D01*
Y33780D01*
X172110D01*
Y33430D01*
X172180D01*
Y33080D01*
X172250D01*
Y32590D01*
X172320D01*
Y32030D01*
X173580D01*
Y32310D01*
X173510D01*
Y32940D01*
X173440D01*
Y33360D01*
X173370D01*
Y33780D01*
X173300D01*
Y34060D01*
X173230D01*
Y34410D01*
X173160D01*
Y34690D01*
X173090D01*
Y34900D01*
X173020D01*
Y35180D01*
X172950D01*
Y35390D01*
X172880D01*
Y35600D01*
X172810D01*
Y35880D01*
X172740D01*
Y36090D01*
X172670D01*
Y36300D01*
X172600D01*
Y36440D01*
X172530D01*
Y36650D01*
X172460D01*
Y36860D01*
X172390D01*
Y37000D01*
X172320D01*
Y37140D01*
X172250D01*
Y37350D01*
X172180D01*
Y37490D01*
X172110D01*
Y37630D01*
X172040D01*
Y37770D01*
X171970D01*
Y37910D01*
X171900D01*
Y38050D01*
X171830D01*
Y38190D01*
X171760D01*
Y38330D01*
X171690D01*
Y38470D01*
X171620D01*
Y38610D01*
X171550D01*
Y38680D01*
X171480D01*
Y38820D01*
X171410D01*
Y38960D01*
X171340D01*
Y39100D01*
X171270D01*
Y39170D01*
X171200D01*
Y39310D01*
X171130D01*
Y39380D01*
X171060D01*
Y39520D01*
X170990D01*
Y39660D01*
X170920D01*
Y39730D01*
X170850D01*
Y39870D01*
X170780D01*
Y39940D01*
X170710D01*
Y40080D01*
X170640D01*
Y40150D01*
X170570D01*
Y40220D01*
X170500D01*
Y40360D01*
X170430D01*
Y40430D01*
X170360D01*
Y40570D01*
X170290D01*
Y40640D01*
X170220D01*
Y40710D01*
X170150D01*
Y40780D01*
X170080D01*
Y40920D01*
X170010D01*
Y40990D01*
X169940D01*
Y41060D01*
X169870D01*
Y41130D01*
X169800D01*
Y41200D01*
Y41270D01*
X169730D01*
Y41340D01*
X169660D01*
Y41410D01*
X169590D01*
Y41480D01*
X169520D01*
Y41550D01*
X169450D01*
Y41620D01*
X169380D01*
Y41690D01*
X169310D01*
Y41830D01*
X169240D01*
Y41900D01*
X169170D01*
Y41970D01*
X169100D01*
Y42040D01*
X169030D01*
Y42110D01*
X168960D01*
Y42180D01*
X168890D01*
Y42250D01*
X168820D01*
Y42320D01*
X168750D01*
Y42390D01*
X168680D01*
Y42460D01*
X168610D01*
Y42530D01*
X168540D01*
Y42600D01*
X168470D01*
Y42670D01*
X168400D01*
Y42740D01*
X168330D01*
Y42810D01*
X168260D01*
Y42880D01*
X168120D01*
Y42950D01*
X168050D01*
Y43020D01*
X167980D01*
Y43090D01*
X167910D01*
Y43160D01*
X167840D01*
Y43230D01*
X167770D01*
Y43300D01*
X167700D01*
Y43370D01*
X167560D01*
Y43440D01*
X167490D01*
Y43510D01*
X167420D01*
Y43580D01*
X167350D01*
Y43650D01*
X167210D01*
Y43720D01*
X167140D01*
Y43790D01*
X167070D01*
Y43860D01*
X167000D01*
Y43930D01*
X166860D01*
Y44000D01*
X166790D01*
Y44070D01*
X166650D01*
Y44140D01*
X166580D01*
Y44210D01*
X166510D01*
Y44280D01*
X166370D01*
Y44350D01*
X166300D01*
Y44420D01*
X166160D01*
Y44490D01*
X166090D01*
Y44560D01*
X165950D01*
Y44630D01*
X165810D01*
Y44700D01*
X165740D01*
Y44770D01*
X165600D01*
Y44840D01*
X165530D01*
Y44910D01*
X165390D01*
Y44980D01*
X165250D01*
Y45050D01*
X165180D01*
Y45120D01*
X165040D01*
Y45190D01*
X164900D01*
Y45260D01*
X164760D01*
Y45330D01*
X164620D01*
Y45400D01*
X164480D01*
Y45470D01*
X164340D01*
Y45540D01*
X164200D01*
Y45610D01*
X164060D01*
Y45680D01*
X163920D01*
Y45750D01*
X163710D01*
Y45820D01*
X163570D01*
Y45890D01*
X163430D01*
Y45960D01*
X163220D01*
Y46030D01*
X163080D01*
Y46100D01*
X162870D01*
Y46170D01*
X162730D01*
Y46240D01*
X162520D01*
Y46310D01*
X162310D01*
Y46380D01*
X162100D01*
Y46450D01*
X161890D01*
Y46520D01*
X161610D01*
Y46590D01*
X161400D01*
Y46660D01*
X161120D01*
Y46730D01*
X160840D01*
Y46800D01*
X160490D01*
Y46870D01*
X160140D01*
Y46940D01*
X159790D01*
Y47010D01*
X159370D01*
Y47080D01*
X158740D01*
Y47150D01*
X157970D01*
Y47220D01*
D02*
G37*
G36*
X158530Y45470D02*
X155730D01*
Y45400D01*
X155170D01*
Y45330D01*
X154680D01*
Y45260D01*
X154330D01*
Y45190D01*
X153980D01*
Y45120D01*
X153630D01*
Y45050D01*
X153350D01*
Y44980D01*
X153070D01*
Y44910D01*
X152860D01*
Y44840D01*
X152650D01*
Y44770D01*
X152370D01*
Y44700D01*
X152230D01*
Y44630D01*
X152020D01*
Y44560D01*
X151810D01*
Y44490D01*
X151670D01*
Y44420D01*
X151460D01*
Y44350D01*
X151320D01*
Y44280D01*
X151110D01*
Y44210D01*
X150970D01*
Y44140D01*
X150830D01*
Y44070D01*
X150690D01*
Y44000D01*
X150550D01*
Y43930D01*
X150410D01*
Y43860D01*
X150270D01*
Y43790D01*
X150130D01*
Y43720D01*
X149990D01*
Y43650D01*
X149850D01*
Y43580D01*
X149780D01*
Y43510D01*
X149640D01*
Y43440D01*
X149500D01*
Y43370D01*
X149430D01*
Y43300D01*
X149290D01*
Y43230D01*
X149150D01*
Y43160D01*
X149080D01*
Y43090D01*
X148940D01*
Y43020D01*
X148870D01*
Y42950D01*
X148730D01*
Y42880D01*
X148660D01*
Y42810D01*
X148520D01*
Y42740D01*
X148450D01*
Y42670D01*
X148380D01*
Y42600D01*
X148240D01*
Y42530D01*
X148170D01*
Y42460D01*
X148030D01*
Y42390D01*
X147960D01*
Y42320D01*
X147890D01*
Y42250D01*
X147820D01*
Y42180D01*
X147680D01*
Y42110D01*
X147610D01*
Y42040D01*
X147540D01*
Y41970D01*
X147470D01*
Y41900D01*
X147400D01*
Y41830D01*
X147330D01*
Y41760D01*
X147190D01*
Y41690D01*
X147120D01*
Y41620D01*
X147050D01*
Y41550D01*
X146980D01*
Y41480D01*
X146910D01*
Y41410D01*
X146840D01*
Y41340D01*
X146770D01*
Y41270D01*
X146700D01*
Y41200D01*
X146630D01*
Y41130D01*
X146560D01*
Y41060D01*
X146490D01*
Y40990D01*
X146420D01*
Y40920D01*
X146350D01*
Y40850D01*
X146280D01*
Y40780D01*
X146210D01*
Y40710D01*
X146140D01*
Y40640D01*
X146070D01*
Y40500D01*
X146000D01*
Y40430D01*
X145930D01*
Y40360D01*
X145860D01*
Y40290D01*
X145790D01*
Y40220D01*
X145720D01*
Y40150D01*
X145650D01*
Y40080D01*
X145580D01*
Y39940D01*
X145510D01*
Y39870D01*
X145440D01*
Y39800D01*
X145370D01*
Y39730D01*
X145300D01*
Y39590D01*
X145230D01*
Y39520D01*
X145160D01*
Y39450D01*
X145090D01*
Y39310D01*
X145020D01*
Y39240D01*
X144950D01*
Y39100D01*
X144880D01*
Y39030D01*
X144810D01*
Y38960D01*
X144740D01*
Y38820D01*
X144670D01*
Y38750D01*
X144600D01*
Y38610D01*
X144530D01*
Y38540D01*
X144460D01*
Y38400D01*
X144390D01*
Y38260D01*
X144320D01*
Y38120D01*
X144250D01*
Y38050D01*
X144180D01*
Y37910D01*
X144110D01*
Y37770D01*
X144040D01*
Y37630D01*
X143970D01*
Y37560D01*
X143900D01*
Y37420D01*
X143830D01*
Y37280D01*
X143760D01*
Y37140D01*
X143690D01*
Y37000D01*
X143620D01*
Y36860D01*
X143550D01*
Y36720D01*
X143480D01*
Y36510D01*
X143410D01*
Y36370D01*
X143340D01*
Y36160D01*
X143270D01*
Y36020D01*
X143200D01*
Y35810D01*
X143130D01*
Y35600D01*
X143060D01*
Y35390D01*
X142990D01*
Y35180D01*
X142920D01*
Y34970D01*
X142850D01*
Y34760D01*
X142780D01*
Y34550D01*
X142710D01*
Y34270D01*
X142640D01*
Y33990D01*
X142570D01*
Y33640D01*
X142500D01*
Y33290D01*
X142430D01*
Y32940D01*
X142360D01*
Y32380D01*
X142290D01*
Y32030D01*
X171970D01*
Y32170D01*
X171900D01*
Y32730D01*
X171830D01*
Y33080D01*
X171760D01*
Y33500D01*
X171690D01*
Y33850D01*
X171620D01*
Y34130D01*
X171550D01*
Y34410D01*
X171480D01*
Y34620D01*
X171410D01*
Y34900D01*
X171340D01*
Y35110D01*
X171270D01*
Y35390D01*
X171200D01*
Y35530D01*
X171130D01*
Y35740D01*
X171060D01*
Y35950D01*
X170990D01*
Y36090D01*
X170920D01*
Y36300D01*
X170850D01*
Y36440D01*
X170780D01*
Y36580D01*
X170710D01*
Y36790D01*
X170640D01*
Y36930D01*
X170570D01*
Y37070D01*
X170500D01*
Y37210D01*
X170430D01*
Y37350D01*
X170360D01*
Y37490D01*
X170290D01*
Y37630D01*
X170220D01*
Y37770D01*
X170150D01*
Y37840D01*
X170080D01*
Y37980D01*
X170010D01*
Y38120D01*
X169940D01*
Y38190D01*
X169870D01*
Y38330D01*
X169800D01*
Y38470D01*
X169730D01*
Y38540D01*
X169660D01*
Y38680D01*
X169590D01*
Y38750D01*
X169520D01*
Y38890D01*
X169450D01*
Y38960D01*
X169380D01*
Y39100D01*
X169310D01*
Y39170D01*
X169240D01*
Y39310D01*
X169170D01*
Y39380D01*
X169100D01*
Y39450D01*
X169030D01*
Y39590D01*
X168960D01*
Y39660D01*
X168890D01*
Y39730D01*
X168820D01*
Y39870D01*
X168750D01*
Y39940D01*
X168680D01*
Y40010D01*
X168610D01*
Y40080D01*
X168540D01*
Y40220D01*
X168470D01*
Y40290D01*
X168400D01*
Y40360D01*
X168330D01*
Y40430D01*
X168260D01*
Y40500D01*
X168190D01*
Y40570D01*
X168120D01*
Y40640D01*
X168050D01*
Y40710D01*
X167980D01*
Y40780D01*
X167910D01*
Y40850D01*
X167840D01*
Y40990D01*
X167770D01*
Y41060D01*
X167700D01*
Y41130D01*
X167630D01*
Y41200D01*
X167560D01*
Y41270D01*
X167490D01*
Y41340D01*
X167350D01*
Y41410D01*
X167280D01*
Y41480D01*
X167210D01*
Y41550D01*
X167140D01*
Y41620D01*
X167070D01*
Y41690D01*
X167000D01*
Y41760D01*
X166930D01*
Y41830D01*
X166860D01*
Y41900D01*
X166790D01*
Y41970D01*
X166650D01*
Y42040D01*
X166580D01*
Y42110D01*
X166510D01*
Y42180D01*
X166440D01*
Y42250D01*
X166370D01*
Y42320D01*
X166230D01*
Y42390D01*
X166160D01*
Y42460D01*
X166090D01*
Y42530D01*
X165950D01*
Y42600D01*
X165880D01*
Y42670D01*
X165740D01*
Y42740D01*
X165670D01*
Y42810D01*
X165600D01*
Y42880D01*
X165460D01*
Y42950D01*
X165390D01*
Y43020D01*
X165250D01*
Y43090D01*
X165180D01*
Y43160D01*
X165040D01*
Y43230D01*
X164970D01*
Y43300D01*
X164830D01*
Y43370D01*
X164690D01*
Y43440D01*
X164620D01*
Y43510D01*
X164480D01*
Y43580D01*
X164340D01*
Y43650D01*
X164200D01*
Y43720D01*
X164060D01*
Y43790D01*
X163990D01*
Y43860D01*
X163850D01*
Y43930D01*
X163710D01*
Y44000D01*
X163570D01*
Y44070D01*
X163360D01*
Y44140D01*
X163220D01*
Y44210D01*
X163080D01*
Y44280D01*
X162940D01*
Y44350D01*
X162730D01*
Y44420D01*
X162590D01*
Y44490D01*
X162380D01*
Y44560D01*
X162240D01*
Y44630D01*
X162030D01*
Y44700D01*
X161820D01*
Y44770D01*
X161610D01*
Y44840D01*
X161400D01*
Y44910D01*
X161120D01*
Y44980D01*
X160910D01*
Y45050D01*
X160630D01*
Y45120D01*
X160280D01*
Y45190D01*
X159930D01*
Y45260D01*
X159510D01*
Y45330D01*
X159090D01*
Y45400D01*
X158530D01*
Y45470D01*
D02*
G37*
G36*
X160000Y30000D02*
X158600D01*
Y29930D01*
X158530D01*
Y29860D01*
X158460D01*
Y29720D01*
X158390D01*
Y29650D01*
X158320D01*
Y29580D01*
X158250D01*
Y29510D01*
X158180D01*
Y29440D01*
X158110D01*
Y29370D01*
X158040D01*
Y29230D01*
X157970D01*
Y29160D01*
X157900D01*
Y29090D01*
X157830D01*
Y29020D01*
X157760D01*
Y28950D01*
X157690D01*
Y28880D01*
X157620D01*
Y28810D01*
X157550D01*
Y28670D01*
X157480D01*
Y28600D01*
X157410D01*
Y28530D01*
X157270D01*
Y30000D01*
X156220D01*
Y25520D01*
X157270D01*
Y26990D01*
X157410D01*
Y26920D01*
X157480D01*
Y26850D01*
X157550D01*
Y26780D01*
X157620D01*
Y26710D01*
X157690D01*
Y26640D01*
X157760D01*
Y26500D01*
X157830D01*
Y26430D01*
X157900D01*
Y26360D01*
X157970D01*
Y26290D01*
X158040D01*
Y26220D01*
X158110D01*
Y26150D01*
X158180D01*
Y26010D01*
X158250D01*
Y25940D01*
X158320D01*
Y25870D01*
X158390D01*
Y25800D01*
X158460D01*
Y25730D01*
X158530D01*
Y25660D01*
X158600D01*
Y25590D01*
X158670D01*
Y25520D01*
X160000D01*
Y25590D01*
X159930D01*
Y25730D01*
X159860D01*
Y25800D01*
X159790D01*
Y25870D01*
X159720D01*
Y25940D01*
X159650D01*
Y26010D01*
X159580D01*
Y26080D01*
X159510D01*
Y26150D01*
X159440D01*
Y26290D01*
X159370D01*
Y26360D01*
X159300D01*
Y26430D01*
X159230D01*
Y26500D01*
X159160D01*
Y26570D01*
X159090D01*
Y26640D01*
X159020D01*
Y26780D01*
X158950D01*
Y26850D01*
X158880D01*
Y26920D01*
X158810D01*
Y26990D01*
X158740D01*
Y27060D01*
X158670D01*
Y27130D01*
X158600D01*
Y27270D01*
X158530D01*
Y27340D01*
X158460D01*
Y27410D01*
X158390D01*
Y27480D01*
X158320D01*
Y27550D01*
X158250D01*
Y27620D01*
X158180D01*
Y27690D01*
X158110D01*
Y27830D01*
X158180D01*
Y27900D01*
X158250D01*
Y27970D01*
X158320D01*
Y28040D01*
X158390D01*
Y28180D01*
X158460D01*
Y28250D01*
X158530D01*
Y28320D01*
X158600D01*
Y28390D01*
X158670D01*
Y28460D01*
X158740D01*
Y28530D01*
X158810D01*
Y28670D01*
X158880D01*
Y28740D01*
X158950D01*
Y28810D01*
X159020D01*
Y28880D01*
X159090D01*
Y28950D01*
X159160D01*
Y29020D01*
X159230D01*
Y29090D01*
X159300D01*
Y29230D01*
X159370D01*
Y29300D01*
X159440D01*
Y29370D01*
X159510D01*
Y29440D01*
X159580D01*
Y29510D01*
X159650D01*
Y29580D01*
X159720D01*
Y29720D01*
X159790D01*
Y29790D01*
X159860D01*
Y29860D01*
X159930D01*
Y29930D01*
X160000D01*
Y30000D01*
D02*
G37*
G36*
X154190D02*
X151600D01*
Y25520D01*
X152650D01*
Y26080D01*
X154120D01*
Y26150D01*
X154400D01*
Y26220D01*
X154540D01*
Y26290D01*
X154680D01*
Y26360D01*
X154820D01*
Y26430D01*
X154890D01*
Y26500D01*
X154960D01*
Y26570D01*
X155100D01*
Y26640D01*
X155170D01*
Y26780D01*
X155240D01*
Y26850D01*
X155310D01*
Y26920D01*
X155380D01*
Y27060D01*
X155450D01*
Y27130D01*
X155520D01*
Y27340D01*
X155590D01*
Y27480D01*
X155660D01*
Y27830D01*
X155730D01*
Y28320D01*
X155660D01*
Y28670D01*
X155590D01*
Y28810D01*
X155520D01*
Y28950D01*
X155450D01*
Y29090D01*
X155380D01*
Y29230D01*
X155310D01*
Y29300D01*
X155240D01*
Y29370D01*
X155170D01*
Y29440D01*
X155100D01*
Y29510D01*
X155030D01*
Y29580D01*
X154960D01*
Y29650D01*
X154820D01*
Y29720D01*
X154750D01*
Y29790D01*
X154610D01*
Y29860D01*
X154400D01*
Y29930D01*
X154190D01*
Y30000D01*
D02*
G37*
G36*
X172250Y23280D02*
X142010D01*
Y23210D01*
Y23140D01*
X142080D01*
Y22930D01*
X142150D01*
Y22790D01*
X142220D01*
Y22650D01*
X142290D01*
Y22580D01*
X142360D01*
Y22440D01*
X142430D01*
Y22300D01*
X142500D01*
Y22160D01*
X142570D01*
Y22020D01*
X142640D01*
Y21950D01*
X142710D01*
Y21810D01*
X142780D01*
Y21740D01*
X142850D01*
Y21600D01*
X142920D01*
Y21460D01*
X142990D01*
Y21390D01*
X143060D01*
Y21250D01*
X143130D01*
Y21180D01*
X143200D01*
Y21040D01*
X143270D01*
Y20970D01*
X143340D01*
Y20900D01*
X143410D01*
Y20760D01*
X143480D01*
Y20690D01*
X143550D01*
Y20550D01*
X143620D01*
Y20480D01*
X143690D01*
Y20410D01*
X143760D01*
Y20270D01*
X143830D01*
Y20200D01*
X143900D01*
Y20130D01*
X143970D01*
Y19990D01*
X144040D01*
Y19920D01*
X144110D01*
Y19850D01*
X144180D01*
Y19780D01*
X144250D01*
Y19710D01*
X144320D01*
Y19570D01*
X144390D01*
Y19500D01*
X144460D01*
Y19430D01*
X144530D01*
Y19360D01*
X144600D01*
Y19290D01*
X144670D01*
Y19220D01*
X144740D01*
Y19150D01*
X144810D01*
Y19080D01*
X144880D01*
Y19010D01*
X169380D01*
Y19080D01*
X169450D01*
Y19150D01*
X169520D01*
Y19290D01*
X169590D01*
Y19360D01*
X169660D01*
Y19430D01*
X169730D01*
Y19500D01*
X169800D01*
Y19570D01*
X169870D01*
Y19640D01*
X169940D01*
Y19710D01*
X170010D01*
Y19780D01*
X170080D01*
Y19850D01*
X170150D01*
Y19990D01*
X170220D01*
Y20060D01*
X170290D01*
Y20130D01*
X170360D01*
Y20270D01*
X170430D01*
Y20340D01*
X170500D01*
Y20410D01*
X170570D01*
Y20550D01*
X170640D01*
Y20620D01*
X170710D01*
Y20690D01*
X170780D01*
Y20830D01*
X170850D01*
Y20900D01*
X170920D01*
Y20970D01*
X170990D01*
Y21110D01*
X171060D01*
Y21180D01*
X171130D01*
Y21320D01*
X171200D01*
Y21390D01*
X171270D01*
Y21530D01*
X171340D01*
Y21670D01*
X171410D01*
Y21740D01*
X171480D01*
Y21880D01*
X171550D01*
Y21950D01*
X171620D01*
Y22090D01*
X171690D01*
Y22230D01*
X171760D01*
Y22370D01*
X171830D01*
Y22440D01*
X171900D01*
Y22580D01*
X171970D01*
Y22720D01*
X172040D01*
Y22860D01*
X172110D01*
Y23000D01*
X172180D01*
Y23140D01*
X172250D01*
Y23280D01*
D02*
G37*
G36*
X160980Y17400D02*
X160840D01*
Y17260D01*
X160770D01*
Y17120D01*
X160700D01*
Y16980D01*
X160630D01*
Y16840D01*
X160490D01*
Y16770D01*
X159930D01*
Y16700D01*
X160000D01*
Y16630D01*
X160070D01*
Y16560D01*
X160140D01*
Y16490D01*
X160210D01*
Y16420D01*
X160280D01*
Y16350D01*
X160350D01*
Y16280D01*
X160420D01*
Y16070D01*
X160350D01*
Y15720D01*
X160280D01*
Y15580D01*
X160420D01*
Y15650D01*
X160560D01*
Y15720D01*
X160630D01*
Y15790D01*
X160840D01*
Y15860D01*
X160980D01*
Y15790D01*
X161120D01*
Y15720D01*
X161260D01*
Y15650D01*
X161400D01*
Y15580D01*
X161540D01*
Y15790D01*
X161470D01*
Y16140D01*
X161400D01*
Y16280D01*
X161470D01*
Y16350D01*
X161540D01*
Y16420D01*
X161610D01*
Y16490D01*
X161680D01*
Y16560D01*
X161750D01*
Y16630D01*
X161820D01*
Y16700D01*
X161890D01*
Y16770D01*
X161330D01*
Y16840D01*
X161190D01*
Y16980D01*
X161120D01*
Y17120D01*
X161050D01*
Y17190D01*
Y17260D01*
X160980D01*
Y17400D01*
D02*
G37*
G36*
X153280D02*
X153210D01*
Y17260D01*
X153140D01*
Y17120D01*
X153070D01*
Y16980D01*
X153000D01*
Y16840D01*
X152860D01*
Y16770D01*
X152300D01*
Y16700D01*
X152370D01*
Y16630D01*
X152440D01*
Y16560D01*
X152510D01*
Y16490D01*
X152580D01*
Y16420D01*
X152650D01*
Y16350D01*
X152720D01*
Y16280D01*
X152790D01*
Y16140D01*
X152720D01*
Y15790D01*
X152650D01*
Y15580D01*
X152720D01*
Y15650D01*
X152860D01*
Y15720D01*
X153000D01*
Y15790D01*
X153140D01*
Y15860D01*
X153350D01*
Y15790D01*
X153490D01*
Y15720D01*
X153630D01*
Y15650D01*
X153770D01*
Y15580D01*
X153910D01*
Y15720D01*
X153840D01*
Y16070D01*
X153770D01*
Y16280D01*
X153840D01*
Y16350D01*
X153910D01*
Y16420D01*
X153980D01*
Y16490D01*
X154050D01*
Y16560D01*
X154120D01*
Y16630D01*
X154190D01*
Y16700D01*
X154260D01*
Y16770D01*
X153700D01*
Y16840D01*
X153560D01*
Y16980D01*
X153490D01*
Y17120D01*
X153420D01*
Y17190D01*
X153350D01*
Y17330D01*
X153280D01*
Y17400D01*
D02*
G37*
G36*
X157130Y17890D02*
X157060D01*
Y17750D01*
X156990D01*
Y17610D01*
X156920D01*
Y17470D01*
X156850D01*
Y17330D01*
X156780D01*
Y17190D01*
X156710D01*
Y17050D01*
X156640D01*
Y16980D01*
X156150D01*
Y16910D01*
X155660D01*
Y16840D01*
X155730D01*
Y16770D01*
X155800D01*
Y16700D01*
X155870D01*
Y16630D01*
X155940D01*
Y16560D01*
X156010D01*
Y16490D01*
X156080D01*
Y16420D01*
X156150D01*
Y16350D01*
X156220D01*
Y16280D01*
X156290D01*
Y16210D01*
X156360D01*
Y15720D01*
X156290D01*
Y15370D01*
X156220D01*
Y15160D01*
X156360D01*
Y15230D01*
X156500D01*
Y15300D01*
X156640D01*
Y15370D01*
X156710D01*
Y15440D01*
X156850D01*
Y15510D01*
X156990D01*
Y15580D01*
X157200D01*
Y15510D01*
X157340D01*
Y15440D01*
X157480D01*
Y15370D01*
X157620D01*
Y15300D01*
X157760D01*
Y15230D01*
X157830D01*
Y15160D01*
X157970D01*
Y15090D01*
X158040D01*
Y15230D01*
X157970D01*
Y15580D01*
X157900D01*
Y15930D01*
X157830D01*
Y16140D01*
X157900D01*
Y16210D01*
X157970D01*
Y16280D01*
X158040D01*
Y16350D01*
X158110D01*
Y16420D01*
X158180D01*
Y16490D01*
X158250D01*
Y16560D01*
X158320D01*
Y16630D01*
X158390D01*
Y16700D01*
X158460D01*
Y16770D01*
X158530D01*
Y16840D01*
X158600D01*
Y16910D01*
X158040D01*
Y16980D01*
X157550D01*
Y17120D01*
X157480D01*
Y17260D01*
X157410D01*
Y17400D01*
X157340D01*
Y17540D01*
X157270D01*
Y17680D01*
X157200D01*
Y17820D01*
X157130D01*
Y17890D01*
D02*
G37*
%LPD*%
G36*
X159160Y42390D02*
X159230D01*
Y41200D01*
X159440D01*
Y41130D01*
X159650D01*
Y41060D01*
X159720D01*
Y40710D01*
X161050D01*
Y40640D01*
X161120D01*
Y40570D01*
X161190D01*
Y40010D01*
X161120D01*
Y39940D01*
X161050D01*
Y39870D01*
X159720D01*
Y39590D01*
X161120D01*
Y39520D01*
X161190D01*
Y38890D01*
X161120D01*
Y38820D01*
X161050D01*
Y38750D01*
X159720D01*
Y38470D01*
X161120D01*
Y38400D01*
X161190D01*
Y37770D01*
X161120D01*
Y37700D01*
X159790D01*
Y37630D01*
X159720D01*
Y37350D01*
X161120D01*
Y37280D01*
X161190D01*
Y36650D01*
X161120D01*
Y36580D01*
X159790D01*
Y36510D01*
X159720D01*
Y36090D01*
X159650D01*
Y36020D01*
X159580D01*
Y35950D01*
X159370D01*
Y34690D01*
X159300D01*
Y34620D01*
X158670D01*
Y34690D01*
X158600D01*
Y35950D01*
X158250D01*
Y34620D01*
X157550D01*
Y34690D01*
X157480D01*
Y35950D01*
X157130D01*
Y34620D01*
X156430D01*
Y34690D01*
X156360D01*
Y35110D01*
Y35180D01*
Y35950D01*
X156010D01*
Y34620D01*
X155310D01*
Y34690D01*
X155240D01*
Y35950D01*
X154750D01*
Y36020D01*
X154610D01*
Y36160D01*
X154540D01*
Y36440D01*
X153350D01*
Y36580D01*
X153280D01*
Y37070D01*
X153350D01*
Y37140D01*
X153420D01*
Y37210D01*
X154540D01*
Y37490D01*
X153490D01*
Y37560D01*
X153350D01*
Y37700D01*
X153280D01*
Y38120D01*
X153350D01*
Y38260D01*
X153420D01*
Y38330D01*
X154540D01*
Y38610D01*
X153420D01*
Y38680D01*
X153350D01*
Y38820D01*
X153280D01*
Y39240D01*
X153350D01*
Y39380D01*
X153490D01*
Y39450D01*
X154540D01*
Y39730D01*
X153420D01*
Y39800D01*
X153350D01*
Y39940D01*
X153280D01*
Y40360D01*
X153350D01*
Y40500D01*
X153490D01*
Y40570D01*
X154540D01*
Y40990D01*
X154610D01*
Y41060D01*
X154680D01*
Y41130D01*
X154820D01*
Y41200D01*
X155100D01*
Y42390D01*
X155170D01*
Y42460D01*
X155870D01*
Y41200D01*
X156220D01*
Y42390D01*
X156290D01*
Y42460D01*
X156990D01*
Y41200D01*
X157340D01*
Y42460D01*
X158110D01*
Y41200D01*
X158460D01*
Y42460D01*
X159160D01*
Y42390D01*
D02*
G37*
%LPC*%
G36*
X158950Y42180D02*
X158740D01*
Y41200D01*
X158950D01*
Y41550D01*
Y41620D01*
Y42180D01*
D02*
G37*
G36*
X157830D02*
X157620D01*
Y42110D01*
Y42040D01*
Y41200D01*
X157830D01*
Y42180D01*
D02*
G37*
G36*
X156710D02*
X156500D01*
Y41900D01*
Y41830D01*
Y41200D01*
X156710D01*
Y42180D01*
D02*
G37*
G36*
X155660D02*
X155380D01*
Y41340D01*
Y41270D01*
Y41200D01*
X155660D01*
Y42180D01*
D02*
G37*
G36*
X160910Y40430D02*
X159720D01*
Y40220D01*
X159790D01*
Y40150D01*
X160910D01*
Y40290D01*
Y40360D01*
Y40430D01*
D02*
G37*
G36*
X154540Y40290D02*
X153560D01*
Y40010D01*
X154540D01*
Y40290D01*
D02*
G37*
G36*
X160910Y39310D02*
X159720D01*
Y39100D01*
X159790D01*
Y39030D01*
X160910D01*
Y39310D01*
D02*
G37*
G36*
X154540Y39170D02*
X153560D01*
Y38890D01*
X154540D01*
Y39170D01*
D02*
G37*
G36*
X160910Y38190D02*
X159720D01*
Y37980D01*
X159790D01*
Y37910D01*
X160910D01*
Y37980D01*
Y38190D01*
D02*
G37*
G36*
X154540Y38050D02*
X153560D01*
Y37770D01*
X154540D01*
Y38050D01*
D02*
G37*
G36*
X160910Y37070D02*
X159720D01*
Y36860D01*
X160910D01*
Y37070D01*
D02*
G37*
G36*
X154540Y36930D02*
X153560D01*
Y36650D01*
X154540D01*
Y36930D01*
D02*
G37*
G36*
X159440Y40920D02*
X154820D01*
Y36230D01*
X159510D01*
Y40850D01*
X159440D01*
Y40920D01*
D02*
G37*
G36*
X159090Y35950D02*
X158880D01*
Y34900D01*
X159090D01*
Y35810D01*
Y35880D01*
Y35950D01*
D02*
G37*
G36*
X157970D02*
X157760D01*
Y34970D01*
Y34900D01*
X157970D01*
Y35950D01*
D02*
G37*
G36*
X156920D02*
X156640D01*
Y34900D01*
X156920D01*
Y35810D01*
Y35880D01*
Y35950D01*
D02*
G37*
G36*
X155800D02*
X155520D01*
Y34900D01*
X155800D01*
Y35880D01*
Y35950D01*
D02*
G37*
%LPD*%
G36*
X155590Y40710D02*
X155800D01*
Y40640D01*
X155870D01*
Y40570D01*
X155940D01*
Y40430D01*
X156010D01*
Y40080D01*
X155940D01*
Y39940D01*
X155870D01*
Y39870D01*
X155800D01*
Y39800D01*
X155590D01*
Y39730D01*
X155380D01*
Y39800D01*
X155240D01*
Y39870D01*
X155170D01*
Y39940D01*
X155100D01*
Y40010D01*
X155030D01*
Y40500D01*
X155100D01*
Y40640D01*
X155240D01*
Y40710D01*
X155380D01*
Y40780D01*
X155590D01*
Y40710D01*
D02*
G37*
%LPC*%
G36*
Y40500D02*
X155380D01*
Y40430D01*
X155310D01*
Y40360D01*
X155240D01*
Y40150D01*
X155310D01*
Y40080D01*
X155380D01*
Y40010D01*
X155590D01*
Y40080D01*
X155660D01*
Y40150D01*
X155730D01*
Y40360D01*
X155660D01*
Y40430D01*
X155590D01*
Y40500D01*
D02*
G37*
%LPD*%
G36*
X153980Y28950D02*
X154190D01*
Y28880D01*
X154260D01*
Y28810D01*
X154330D01*
Y28740D01*
X154400D01*
Y28670D01*
X154470D01*
Y28600D01*
X154540D01*
Y28530D01*
Y28460D01*
X154610D01*
Y28180D01*
X154680D01*
Y27970D01*
X154610D01*
Y27690D01*
X154540D01*
Y27550D01*
X154470D01*
Y27480D01*
X154400D01*
Y27410D01*
X154330D01*
Y27340D01*
X154260D01*
Y27270D01*
X154120D01*
Y27200D01*
X153910D01*
Y27130D01*
X152650D01*
Y29020D01*
X153980D01*
Y28950D01*
D02*
G37*
G36*
X168540Y21600D02*
X167000D01*
Y21880D01*
X168540D01*
Y21600D01*
D02*
G37*
G36*
X147260Y21740D02*
Y21670D01*
Y21600D01*
X145650D01*
Y21880D01*
X147260D01*
Y21740D01*
D02*
G37*
G36*
X159580Y21600D02*
X159650D01*
Y21390D01*
X159370D01*
Y21460D01*
X159300D01*
Y21530D01*
X158670D01*
Y21460D01*
X158600D01*
Y20620D01*
X158670D01*
Y20550D01*
X159370D01*
Y20830D01*
X159300D01*
Y20900D01*
X159020D01*
Y21110D01*
X159650D01*
Y20410D01*
X159580D01*
Y20340D01*
X158460D01*
Y20410D01*
X158390D01*
Y21670D01*
X158460D01*
Y21740D01*
X159580D01*
Y21600D01*
D02*
G37*
G36*
X157550Y21670D02*
X157620D01*
Y21390D01*
X157410D01*
Y21460D01*
X157270D01*
Y21530D01*
X156710D01*
Y21460D01*
X156640D01*
Y21110D01*
X157550D01*
Y21040D01*
X157620D01*
Y20410D01*
X157550D01*
Y20340D01*
X156430D01*
Y20410D01*
X156360D01*
Y20690D01*
X156640D01*
Y20550D01*
X157340D01*
Y20620D01*
X157410D01*
Y20830D01*
X157340D01*
Y20900D01*
X156430D01*
Y20970D01*
X156360D01*
Y21670D01*
X156430D01*
Y21740D01*
X157550D01*
Y21670D01*
D02*
G37*
G36*
X150760D02*
X150830D01*
Y21600D01*
X150900D01*
Y21390D01*
X150620D01*
Y21460D01*
X150480D01*
Y21530D01*
X149920D01*
Y21460D01*
X149850D01*
Y20620D01*
X149920D01*
Y20550D01*
X150550D01*
Y20620D01*
X150620D01*
Y20690D01*
X150900D01*
Y20480D01*
X150830D01*
Y20340D01*
X149710D01*
Y20410D01*
X149640D01*
Y21670D01*
X149710D01*
Y21740D01*
X150760D01*
Y21670D01*
D02*
G37*
G36*
X169380Y21040D02*
X167000D01*
Y21320D01*
X169380D01*
Y21040D01*
D02*
G37*
G36*
X147260D02*
X144880D01*
Y21250D01*
Y21320D01*
X147260D01*
Y21040D01*
D02*
G37*
G36*
X161120Y20340D02*
X160840D01*
Y20410D01*
X160770D01*
Y20550D01*
X160700D01*
Y20620D01*
X160630D01*
Y20690D01*
X160560D01*
Y20830D01*
X160490D01*
Y20900D01*
X160420D01*
Y20970D01*
X160350D01*
Y21110D01*
X160280D01*
Y21180D01*
X160210D01*
Y21250D01*
X160140D01*
Y20340D01*
X159860D01*
Y21740D01*
X160140D01*
Y21670D01*
X160210D01*
Y21600D01*
X160280D01*
Y21530D01*
X160350D01*
Y21390D01*
X160420D01*
Y21320D01*
X160490D01*
Y21250D01*
X160560D01*
Y21110D01*
X160630D01*
Y21040D01*
X160700D01*
Y20970D01*
X160770D01*
Y20830D01*
X160910D01*
Y21740D01*
X161120D01*
Y20340D01*
D02*
G37*
G36*
X170080Y20410D02*
X167000D01*
Y20690D01*
X170080D01*
Y20410D01*
D02*
G37*
G36*
X147260Y20480D02*
Y20410D01*
X144110D01*
Y20690D01*
X147260D01*
Y20480D01*
D02*
G37*
G36*
X166300Y21600D02*
X166370D01*
Y21110D01*
X166300D01*
Y21040D01*
X166230D01*
Y20970D01*
X166300D01*
Y20900D01*
X166370D01*
Y20480D01*
Y20410D01*
X166300D01*
Y20340D01*
X165110D01*
Y21740D01*
X166300D01*
Y21600D01*
D02*
G37*
G36*
X164830Y20340D02*
X164620D01*
Y20690D01*
X164550D01*
Y20760D01*
X163920D01*
Y20690D01*
X163850D01*
Y20340D01*
X163570D01*
Y21320D01*
X163640D01*
Y21390D01*
X163710D01*
Y21460D01*
X163780D01*
Y21530D01*
X163850D01*
Y21600D01*
X163920D01*
Y21670D01*
X163990D01*
Y21740D01*
X164830D01*
Y20340D01*
D02*
G37*
G36*
X162450Y20620D02*
X162520D01*
Y20550D01*
X163430D01*
Y20340D01*
X162240D01*
Y21740D01*
X162450D01*
Y20620D01*
D02*
G37*
G36*
X158110Y20340D02*
X157900D01*
Y21110D01*
Y21180D01*
Y21740D01*
X158110D01*
Y20340D01*
D02*
G37*
G36*
X156150Y21530D02*
X155240D01*
Y21460D01*
X155170D01*
Y21180D01*
X155240D01*
Y21110D01*
X156080D01*
Y20900D01*
X155240D01*
Y20830D01*
X155170D01*
Y20620D01*
X155240D01*
Y20550D01*
X156150D01*
Y20340D01*
X154960D01*
Y21740D01*
X156150D01*
Y21530D01*
D02*
G37*
G36*
X154330Y21670D02*
X154400D01*
Y21600D01*
X154470D01*
Y21530D01*
X154540D01*
Y21460D01*
X154610D01*
Y21390D01*
X154680D01*
Y20410D01*
X154610D01*
Y20340D01*
X153420D01*
Y21110D01*
Y21180D01*
Y21740D01*
X154330D01*
Y21670D01*
D02*
G37*
G36*
X152300Y21600D02*
X152370D01*
Y21110D01*
X152300D01*
Y21040D01*
X152230D01*
Y20970D01*
X152300D01*
Y20900D01*
X152370D01*
Y20410D01*
X152300D01*
Y20340D01*
X151110D01*
Y21740D01*
X152300D01*
Y21600D01*
D02*
G37*
G36*
X149290Y21670D02*
X149360D01*
Y20830D01*
X149290D01*
Y20760D01*
X148450D01*
Y20690D01*
X148380D01*
Y20340D01*
X148100D01*
Y21740D01*
X149290D01*
Y21670D01*
D02*
G37*
%LPC*%
G36*
X166020Y21530D02*
X165390D01*
Y21460D01*
X165320D01*
Y21180D01*
X165390D01*
Y21110D01*
X166090D01*
Y21180D01*
Y21250D01*
Y21460D01*
X166020D01*
Y21530D01*
D02*
G37*
G36*
Y20900D02*
X165390D01*
Y20830D01*
X165320D01*
Y20620D01*
X165390D01*
Y20550D01*
X166090D01*
Y20830D01*
X166020D01*
Y20900D01*
D02*
G37*
G36*
X164480Y21530D02*
X164200D01*
Y21460D01*
X164060D01*
Y21390D01*
X163990D01*
Y21320D01*
X163920D01*
Y21250D01*
X163850D01*
Y20970D01*
X164550D01*
Y21040D01*
X164620D01*
Y21460D01*
X164480D01*
Y21530D01*
D02*
G37*
G36*
X154050D02*
X153770D01*
Y21460D01*
X153700D01*
Y20970D01*
Y20900D01*
Y20550D01*
X154400D01*
Y20620D01*
X154470D01*
Y21180D01*
X154400D01*
Y21250D01*
X154330D01*
Y21320D01*
X154260D01*
Y21390D01*
X154190D01*
Y21460D01*
X154050D01*
Y21530D01*
D02*
G37*
G36*
X152020D02*
X151390D01*
Y21460D01*
X151320D01*
Y21180D01*
X151390D01*
Y21110D01*
X152090D01*
Y21460D01*
X152020D01*
Y21530D01*
D02*
G37*
G36*
Y20900D02*
X151390D01*
Y20830D01*
X151320D01*
Y20620D01*
X151390D01*
Y20550D01*
X152090D01*
Y20830D01*
X152020D01*
Y20900D01*
D02*
G37*
G36*
X149010Y21530D02*
X148450D01*
Y21460D01*
X148380D01*
Y20970D01*
X149080D01*
Y21040D01*
X149150D01*
Y21460D01*
X149010D01*
Y21530D01*
D02*
G37*
%LPD*%
D10*
X48000Y41000D02*
X62000D01*
X48000D02*
Y75000D01*
X62000Y41000D02*
Y75000D01*
X48000D02*
X62000D01*
X65000Y117310D02*
Y151500D01*
X45000D02*
X65000D01*
X45000Y117310D02*
Y151500D01*
Y117310D02*
X65000D01*
X179210Y77300D02*
Y128100D01*
X120790Y77300D02*
X179210D01*
X120790D02*
Y128100D01*
X179210D01*
X120790Y115400D02*
X136030D01*
Y90000D02*
Y115400D01*
X122060Y90000D02*
X136030D01*
X107000Y87000D02*
X114997D01*
X107000Y115999D02*
X114997D01*
X110999Y119997D02*
Y112000D01*
D11*
X185560Y111590D02*
X190638D01*
X188099D01*
Y126825D01*
X185560Y124286D01*
X14843Y137382D02*
Y152618D01*
X22461D01*
X25000Y150078D01*
Y145000D01*
X22461Y142461D01*
X14843D01*
X19922D02*
X25000Y137382D01*
X30078D02*
X35157D01*
X32618D01*
Y152618D01*
X30078Y150078D01*
X132583Y152139D02*
X127504D01*
X130043D01*
Y139443D01*
X127504Y136904D01*
X124965D01*
X122426Y139443D01*
X137661Y136904D02*
X142739D01*
X140200D01*
Y152139D01*
X137661Y149600D01*
X19843Y72618D02*
Y57382D01*
X27461D01*
X30000Y59922D01*
Y70078D01*
X27461Y72618D01*
X19843D01*
X35078Y57382D02*
X40157D01*
X37618D01*
Y72618D01*
X35078Y70078D01*
D12*
X55000Y43002D02*
D03*
M02*
