G04*
G04 #@! TF.GenerationSoftware,Altium Limited,Altium Designer,24.1.2 (44)*
G04*
G04 Layer_Color=16711935*
%FSLAX44Y44*%
%MOMM*%
G71*
G04*
G04 #@! TF.SameCoordinates,BB3BFAEA-7057-47C7-AC08-6295CB7027F8*
G04*
G04*
G04 #@! TF.FilePolarity,Negative*
G04*
G01*
G75*
%ADD14O,1.5240X2.8448*%
%ADD15C,1.7032*%
%ADD16C,1.2500*%
%ADD17R,1.2500X1.2500*%
%ADD18R,1.2500X1.2500*%
%ADD19C,2.1532*%
G04:AMPARAMS|DCode=20|XSize=2.1532mm|YSize=2.1532mm|CornerRadius=0.5891mm|HoleSize=0mm|Usage=FLASHONLY|Rotation=270.000|XOffset=0mm|YOffset=0mm|HoleType=Round|Shape=RoundedRectangle|*
%AMROUNDEDRECTD20*
21,1,2.1532,0.9750,0,0,270.0*
21,1,0.9750,2.1532,0,0,270.0*
1,1,1.1782,-0.4875,-0.4875*
1,1,1.1782,-0.4875,0.4875*
1,1,1.1782,0.4875,0.4875*
1,1,1.1782,0.4875,-0.4875*
%
%ADD20ROUNDEDRECTD20*%
%ADD21C,1.5032*%
G04:AMPARAMS|DCode=22|XSize=1.5032mm|YSize=1.5032mm|CornerRadius=0.4266mm|HoleSize=0mm|Usage=FLASHONLY|Rotation=90.000|XOffset=0mm|YOffset=0mm|HoleType=Round|Shape=RoundedRectangle|*
%AMROUNDEDRECTD22*
21,1,1.5032,0.6500,0,0,90.0*
21,1,0.6500,1.5032,0,0,90.0*
1,1,0.8532,0.3250,0.3250*
1,1,0.8532,0.3250,-0.3250*
1,1,0.8532,-0.3250,-0.3250*
1,1,0.8532,-0.3250,0.3250*
%
%ADD22ROUNDEDRECTD22*%
%ADD23R,1.7112X1.7112*%
%ADD24C,1.7112*%
D14*
X307340Y147320D02*
D03*
X332740D02*
D03*
X358140D02*
D03*
X383540D02*
D03*
X434340D02*
D03*
X459740D02*
D03*
X485140D02*
D03*
X510540D02*
D03*
Y71120D02*
D03*
X408940D02*
D03*
X434340D02*
D03*
X383540D02*
D03*
X358140D02*
D03*
X485140D02*
D03*
X459740D02*
D03*
X332740D02*
D03*
X307340D02*
D03*
X408940Y147320D02*
D03*
D15*
X530860Y210820D02*
D03*
X556260D02*
D03*
X327660D02*
D03*
X353060D02*
D03*
X262890D02*
D03*
X288290D02*
D03*
X397510D02*
D03*
X422910D02*
D03*
X464820D02*
D03*
X490220D02*
D03*
X595630D02*
D03*
X621030D02*
D03*
X661670D02*
D03*
X687070D02*
D03*
X120650D02*
D03*
X146050D02*
D03*
X186690D02*
D03*
X212090D02*
D03*
D16*
X627380Y150330D02*
D03*
X163360Y78740D02*
D03*
X160820Y138430D02*
D03*
D17*
X627380Y50330D02*
D03*
D18*
X263360Y78740D02*
D03*
X260820Y138430D02*
D03*
D19*
X727710Y82080D02*
D03*
D20*
Y132080D02*
D03*
D21*
X568960Y98110D02*
D03*
D22*
Y118110D02*
D03*
D23*
X42310Y85490D02*
D03*
D24*
X67310Y135490D02*
D03*
X92310Y85490D02*
D03*
M02*
