G04*
G04 #@! TF.GenerationSoftware,Altium Limited,Altium Designer,24.1.2 (44)*
G04*
G04 Layer_Physical_Order=2*
G04 Layer_Color=16711680*
%FSLAX44Y44*%
%MOMM*%
G71*
G04*
G04 #@! TF.SameCoordinates,BB3BFAEA-7057-47C7-AC08-6295CB7027F8*
G04*
G04*
G04 #@! TF.FilePolarity,Positive*
G04*
G01*
G75*
%ADD13C,0.2540*%
%ADD16C,1.2500*%
%ADD17R,1.2500X1.2500*%
%ADD18R,1.2500X1.2500*%
%ADD25O,1.3208X2.6416*%
%ADD26C,1.5000*%
%ADD27C,1.9500*%
G04:AMPARAMS|DCode=28|XSize=1.95mm|YSize=1.95mm|CornerRadius=0.4875mm|HoleSize=0mm|Usage=FLASHONLY|Rotation=270.000|XOffset=0mm|YOffset=0mm|HoleType=Round|Shape=RoundedRectangle|*
%AMROUNDEDRECTD28*
21,1,1.9500,0.9750,0,0,270.0*
21,1,0.9750,1.9500,0,0,270.0*
1,1,0.9750,-0.4875,-0.4875*
1,1,0.9750,-0.4875,0.4875*
1,1,0.9750,0.4875,0.4875*
1,1,0.9750,0.4875,-0.4875*
%
%ADD28ROUNDEDRECTD28*%
%ADD29C,1.3000*%
G04:AMPARAMS|DCode=30|XSize=1.3mm|YSize=1.3mm|CornerRadius=0.325mm|HoleSize=0mm|Usage=FLASHONLY|Rotation=90.000|XOffset=0mm|YOffset=0mm|HoleType=Round|Shape=RoundedRectangle|*
%AMROUNDEDRECTD30*
21,1,1.3000,0.6500,0,0,90.0*
21,1,0.6500,1.3000,0,0,90.0*
1,1,0.6500,0.3250,0.3250*
1,1,0.6500,0.3250,-0.3250*
1,1,0.6500,-0.3250,-0.3250*
1,1,0.6500,-0.3250,0.3250*
%
%ADD30ROUNDEDRECTD30*%
%ADD31R,1.5080X1.5080*%
%ADD32C,1.5080*%
G36*
X807720Y0D02*
X1270D01*
Y279400D01*
X807720D01*
Y0D01*
D02*
G37*
%LPC*%
G36*
X675640Y226135D02*
X632460D01*
X630973Y225839D01*
X629713Y224997D01*
X624830Y220113D01*
X623651Y220602D01*
X621030Y220947D01*
X618409Y220602D01*
X617230Y220113D01*
X612347Y224997D01*
X611087Y225839D01*
X609600Y226135D01*
X567690D01*
X566203Y225839D01*
X564943Y224997D01*
X560060Y220113D01*
X558881Y220602D01*
X556260Y220947D01*
X553639Y220602D01*
X552460Y220113D01*
X547577Y224997D01*
X546317Y225839D01*
X544830Y226135D01*
X501650D01*
X500163Y225839D01*
X498903Y224997D01*
X494020Y220113D01*
X492841Y220602D01*
X490220Y220947D01*
X487599Y220602D01*
X486420Y220113D01*
X481537Y224997D01*
X480277Y225839D01*
X478790Y226135D01*
X434340D01*
X432853Y225839D01*
X431593Y224997D01*
X426710Y220113D01*
X425531Y220602D01*
X422910Y220947D01*
X420289Y220602D01*
X419110Y220113D01*
X414227Y224997D01*
X412967Y225839D01*
X411480Y226135D01*
X364490D01*
X363003Y225839D01*
X361743Y224997D01*
X356860Y220113D01*
X355681Y220602D01*
X353060Y220947D01*
X350439Y220602D01*
X349260Y220113D01*
X344377Y224997D01*
X343117Y225839D01*
X341630Y226135D01*
X299720D01*
X298233Y225839D01*
X296973Y224997D01*
X292090Y220113D01*
X290911Y220602D01*
X288290Y220947D01*
X285669Y220602D01*
X284490Y220113D01*
X279607Y224997D01*
X278347Y225839D01*
X276860Y226135D01*
X223520D01*
X222033Y225839D01*
X220773Y224997D01*
X215890Y220113D01*
X214711Y220602D01*
X212090Y220947D01*
X209469Y220602D01*
X208290Y220113D01*
X203407Y224997D01*
X202147Y225839D01*
X200660Y226135D01*
X157480D01*
X155993Y225839D01*
X154733Y224997D01*
X149850Y220113D01*
X148671Y220602D01*
X146050Y220947D01*
X143429Y220602D01*
X140987Y219590D01*
X138889Y217981D01*
X137280Y215883D01*
X136268Y213441D01*
X135923Y210820D01*
X136268Y208199D01*
X137280Y205757D01*
X138889Y203659D01*
X140987Y202050D01*
X143429Y201038D01*
X146050Y200693D01*
X148671Y201038D01*
X151113Y202050D01*
X153211Y203659D01*
X154820Y205757D01*
X155832Y208199D01*
X156177Y210820D01*
X155832Y213441D01*
X155343Y214620D01*
X159089Y218365D01*
X178224D01*
X178850Y217095D01*
X177920Y215883D01*
X176908Y213441D01*
X176563Y210820D01*
X176908Y208199D01*
X177920Y205757D01*
X179529Y203659D01*
X181627Y202050D01*
X184069Y201038D01*
X186690Y200693D01*
X189311Y201038D01*
X190490Y201527D01*
X216709Y175307D01*
X217969Y174465D01*
X219456Y174169D01*
X319447D01*
X328855Y164761D01*
Y162212D01*
X328129Y161911D01*
X326218Y160446D01*
X324753Y158535D01*
X323831Y156311D01*
X323517Y153924D01*
Y140716D01*
X323831Y138329D01*
X324753Y136105D01*
X326218Y134194D01*
X328129Y132729D01*
X330353Y131807D01*
X332740Y131493D01*
X335127Y131807D01*
X337351Y132729D01*
X339262Y134194D01*
X340727Y136105D01*
X341649Y138329D01*
X341963Y140716D01*
Y153924D01*
X341649Y156311D01*
X340727Y158535D01*
X339262Y160446D01*
X337351Y161911D01*
X336625Y162212D01*
Y166370D01*
X336329Y167857D01*
X335487Y169117D01*
X323803Y180801D01*
X322543Y181643D01*
X321056Y181939D01*
X221065D01*
X195983Y207020D01*
X196472Y208199D01*
X196817Y210820D01*
X196472Y213441D01*
X195460Y215883D01*
X194530Y217095D01*
X195156Y218365D01*
X199051D01*
X202797Y214620D01*
X202308Y213441D01*
X201963Y210820D01*
X202308Y208199D01*
X203320Y205757D01*
X204929Y203659D01*
X207027Y202050D01*
X209469Y201038D01*
X212090Y200693D01*
X214711Y201038D01*
X217153Y202050D01*
X219251Y203659D01*
X220860Y205757D01*
X221872Y208199D01*
X222217Y210820D01*
X221872Y213441D01*
X221383Y214620D01*
X225129Y218365D01*
X254424D01*
X255050Y217095D01*
X254120Y215883D01*
X253108Y213441D01*
X252763Y210820D01*
X253108Y208199D01*
X254120Y205757D01*
X255729Y203659D01*
X257827Y202050D01*
X260269Y201038D01*
X262890Y200693D01*
X265511Y201038D01*
X266690Y201527D01*
X275891Y192325D01*
X277151Y191483D01*
X278638Y191187D01*
X321479D01*
X344349Y168317D01*
Y147320D01*
X344645Y145833D01*
X345487Y144573D01*
X346747Y143731D01*
X348234Y143435D01*
X348917D01*
Y140716D01*
X349231Y138329D01*
X350153Y136105D01*
X351618Y134194D01*
X353529Y132729D01*
X355753Y131807D01*
X358140Y131493D01*
X360527Y131807D01*
X362751Y132729D01*
X364662Y134194D01*
X366127Y136105D01*
X367049Y138329D01*
X367363Y140716D01*
Y153924D01*
X367049Y156311D01*
X366127Y158535D01*
X364662Y160446D01*
X362751Y161911D01*
X360527Y162833D01*
X358140Y163147D01*
X355753Y162833D01*
X353529Y161911D01*
X353258Y161703D01*
X352119Y162265D01*
Y169926D01*
X351823Y171413D01*
X350981Y172673D01*
X325835Y197819D01*
X324575Y198661D01*
X323088Y198957D01*
X280247D01*
X272183Y207020D01*
X272672Y208199D01*
X273017Y210820D01*
X272672Y213441D01*
X271660Y215883D01*
X270730Y217095D01*
X271356Y218365D01*
X275251D01*
X278997Y214620D01*
X278508Y213441D01*
X278163Y210820D01*
X278508Y208199D01*
X279520Y205757D01*
X281129Y203659D01*
X283227Y202050D01*
X285669Y201038D01*
X288290Y200693D01*
X290911Y201038D01*
X293353Y202050D01*
X295451Y203659D01*
X297060Y205757D01*
X298072Y208199D01*
X298417Y210820D01*
X298072Y213441D01*
X297583Y214620D01*
X301329Y218365D01*
X319194D01*
X319820Y217095D01*
X318890Y215883D01*
X317878Y213441D01*
X317533Y210820D01*
X317878Y208199D01*
X318890Y205757D01*
X320499Y203659D01*
X322597Y202050D01*
X325039Y201038D01*
X327660Y200693D01*
X330281Y201038D01*
X331460Y201527D01*
X372157Y160829D01*
X373417Y159987D01*
X374904Y159691D01*
X375004D01*
X375171Y159353D01*
X375505Y158421D01*
X374631Y156311D01*
X374317Y153924D01*
Y140716D01*
X374631Y138329D01*
X375553Y136105D01*
X377018Y134194D01*
X378929Y132729D01*
X381153Y131807D01*
X383540Y131493D01*
X385927Y131807D01*
X388151Y132729D01*
X390062Y134194D01*
X391527Y136105D01*
X392449Y138329D01*
X392763Y140716D01*
Y153924D01*
X392449Y156311D01*
X391527Y158535D01*
X390062Y160446D01*
X388151Y161911D01*
X387170Y162318D01*
X387129Y162523D01*
X386287Y163783D01*
X383747Y166323D01*
X382487Y167165D01*
X381000Y167461D01*
X376513D01*
X336953Y207020D01*
X337442Y208199D01*
X337787Y210820D01*
X337442Y213441D01*
X336430Y215883D01*
X335500Y217095D01*
X336126Y218365D01*
X340021D01*
X343767Y214620D01*
X343278Y213441D01*
X342933Y210820D01*
X343278Y208199D01*
X344290Y205757D01*
X345899Y203659D01*
X347997Y202050D01*
X350439Y201038D01*
X353060Y200693D01*
X355681Y201038D01*
X358123Y202050D01*
X360221Y203659D01*
X361830Y205757D01*
X362842Y208199D01*
X363187Y210820D01*
X362842Y213441D01*
X362353Y214620D01*
X366099Y218365D01*
X389044D01*
X389670Y217095D01*
X388740Y215883D01*
X387728Y213441D01*
X387383Y210820D01*
X387728Y208199D01*
X388740Y205757D01*
X390349Y203659D01*
X392447Y202050D01*
X394889Y201038D01*
X397510Y200693D01*
X400131Y201038D01*
X402573Y202050D01*
X404671Y203659D01*
X406280Y205757D01*
X407292Y208199D01*
X407637Y210820D01*
X407292Y213441D01*
X406280Y215883D01*
X405350Y217095D01*
X405976Y218365D01*
X409871D01*
X413617Y214620D01*
X413128Y213441D01*
X412783Y210820D01*
X413128Y208199D01*
X414140Y205757D01*
X415749Y203659D01*
X417847Y202050D01*
X420289Y201038D01*
X422910Y200693D01*
X425531Y201038D01*
X427973Y202050D01*
X430071Y203659D01*
X431680Y205757D01*
X432692Y208199D01*
X433037Y210820D01*
X432692Y213441D01*
X432203Y214620D01*
X435949Y218365D01*
X456354D01*
X456980Y217095D01*
X456050Y215883D01*
X455038Y213441D01*
X454693Y210820D01*
X455038Y208199D01*
X456050Y205757D01*
X457659Y203659D01*
X459757Y202050D01*
X462199Y201038D01*
X464820Y200693D01*
X467441Y201038D01*
X469883Y202050D01*
X471981Y203659D01*
X473590Y205757D01*
X474602Y208199D01*
X474947Y210820D01*
X474602Y213441D01*
X473590Y215883D01*
X472660Y217095D01*
X473286Y218365D01*
X477181D01*
X480927Y214620D01*
X480438Y213441D01*
X480093Y210820D01*
X480438Y208199D01*
X481450Y205757D01*
X483059Y203659D01*
X485157Y202050D01*
X487599Y201038D01*
X490220Y200693D01*
X492841Y201038D01*
X495283Y202050D01*
X497381Y203659D01*
X498990Y205757D01*
X500002Y208199D01*
X500347Y210820D01*
X500002Y213441D01*
X499513Y214620D01*
X503259Y218365D01*
X522394D01*
X523020Y217095D01*
X522090Y215883D01*
X521078Y213441D01*
X520733Y210820D01*
X521078Y208199D01*
X521567Y207020D01*
X513503Y198957D01*
X472440D01*
X470953Y198661D01*
X469693Y197819D01*
X456993Y185119D01*
X456151Y183859D01*
X455855Y182372D01*
Y162212D01*
X455129Y161911D01*
X453218Y160446D01*
X451753Y158535D01*
X450831Y156311D01*
X450517Y153924D01*
Y140716D01*
X450831Y138329D01*
X451753Y136105D01*
X453218Y134194D01*
X455129Y132729D01*
X457353Y131807D01*
X459740Y131493D01*
X462127Y131807D01*
X464351Y132729D01*
X466262Y134194D01*
X467727Y136105D01*
X468649Y138329D01*
X468963Y140716D01*
Y153924D01*
X468649Y156311D01*
X467727Y158535D01*
X466262Y160446D01*
X464351Y161911D01*
X463625Y162212D01*
Y180763D01*
X474049Y191187D01*
X515112D01*
X516599Y191483D01*
X517859Y192325D01*
X527060Y201527D01*
X528239Y201038D01*
X530860Y200693D01*
X533481Y201038D01*
X535923Y202050D01*
X538021Y203659D01*
X539630Y205757D01*
X540642Y208199D01*
X540987Y210820D01*
X540642Y213441D01*
X539630Y215883D01*
X538700Y217095D01*
X539326Y218365D01*
X543221D01*
X546967Y214620D01*
X546478Y213441D01*
X546133Y210820D01*
X546478Y208199D01*
X547490Y205757D01*
X549099Y203659D01*
X551197Y202050D01*
X553639Y201038D01*
X556260Y200693D01*
X558881Y201038D01*
X561323Y202050D01*
X563421Y203659D01*
X565030Y205757D01*
X566042Y208199D01*
X566387Y210820D01*
X566042Y213441D01*
X565553Y214620D01*
X569299Y218365D01*
X587164D01*
X587790Y217095D01*
X586860Y215883D01*
X585848Y213441D01*
X585503Y210820D01*
X585848Y208199D01*
X586337Y207020D01*
X562271Y182955D01*
X497840D01*
X496353Y182659D01*
X495093Y181817D01*
X482393Y169117D01*
X481551Y167857D01*
X481255Y166370D01*
Y162212D01*
X480529Y161911D01*
X478618Y160446D01*
X477153Y158535D01*
X476231Y156311D01*
X475917Y153924D01*
Y140716D01*
X476231Y138329D01*
X477153Y136105D01*
X478429Y134441D01*
X478045Y133171D01*
X472440D01*
X470953Y132875D01*
X469693Y132033D01*
X456993Y119333D01*
X456151Y118073D01*
X455855Y116586D01*
Y86012D01*
X455129Y85711D01*
X453218Y84246D01*
X451753Y82335D01*
X450831Y80111D01*
X450517Y77724D01*
Y75005D01*
X443563D01*
Y77724D01*
X443249Y80111D01*
X442327Y82335D01*
X440862Y84246D01*
X438951Y85711D01*
X436727Y86633D01*
X434340Y86947D01*
X431953Y86633D01*
X429729Y85711D01*
X427818Y84246D01*
X426353Y82335D01*
X425431Y80111D01*
X425117Y77724D01*
Y64516D01*
X425431Y62129D01*
X426353Y59905D01*
X427818Y57994D01*
X429729Y56529D01*
X431953Y55607D01*
X434340Y55293D01*
X436727Y55607D01*
X438951Y56529D01*
X440862Y57994D01*
X442327Y59905D01*
X443249Y62129D01*
X443563Y64516D01*
Y67235D01*
X450517D01*
Y64516D01*
X450831Y62129D01*
X451753Y59905D01*
X453218Y57994D01*
X455129Y56529D01*
X457353Y55607D01*
X459740Y55293D01*
X462127Y55607D01*
X464351Y56529D01*
X466262Y57994D01*
X467727Y59905D01*
X468649Y62129D01*
X468963Y64516D01*
Y77724D01*
X468649Y80111D01*
X467727Y82335D01*
X466262Y84246D01*
X464351Y85711D01*
X463625Y86012D01*
Y114977D01*
X474049Y125401D01*
X560100D01*
X560698Y124281D01*
X560256Y123619D01*
X559807Y121360D01*
Y119380D01*
X568960D01*
X578113D01*
Y121360D01*
X577664Y123619D01*
X577222Y124281D01*
X577820Y125401D01*
X606336D01*
X607823Y125697D01*
X609083Y126539D01*
X624537Y141993D01*
X625085Y141766D01*
X627380Y141464D01*
X629675Y141766D01*
X631813Y142652D01*
X633649Y144061D01*
X635058Y145897D01*
X635944Y148035D01*
X636246Y150330D01*
X635944Y152625D01*
X635058Y154763D01*
X633649Y156599D01*
X631813Y158008D01*
X629675Y158894D01*
X627380Y159196D01*
X625085Y158894D01*
X622947Y158008D01*
X621111Y156599D01*
X619702Y154763D01*
X618816Y152625D01*
X618514Y150330D01*
X618816Y148035D01*
X619043Y147487D01*
X604727Y133171D01*
X517635D01*
X517251Y134441D01*
X518527Y136105D01*
X519449Y138329D01*
X519763Y140716D01*
Y142501D01*
X594695D01*
X596182Y142796D01*
X597442Y143638D01*
X656181Y202377D01*
X656607Y202050D01*
X659049Y201038D01*
X661670Y200693D01*
X664291Y201038D01*
X666733Y202050D01*
X668831Y203659D01*
X670440Y205757D01*
X671452Y208199D01*
X671797Y210820D01*
X671452Y213441D01*
X670440Y215883D01*
X669510Y217095D01*
X670136Y218365D01*
X674031D01*
X677777Y214620D01*
X677288Y213441D01*
X676943Y210820D01*
X677288Y208199D01*
X678300Y205757D01*
X679909Y203659D01*
X682007Y202050D01*
X684449Y201038D01*
X687070Y200693D01*
X689691Y201038D01*
X692133Y202050D01*
X694231Y203659D01*
X695840Y205757D01*
X696852Y208199D01*
X697197Y210820D01*
X696852Y213441D01*
X695840Y215883D01*
X694231Y217981D01*
X692133Y219590D01*
X689691Y220602D01*
X687070Y220947D01*
X684449Y220602D01*
X683270Y220113D01*
X678387Y224997D01*
X677127Y225839D01*
X675640Y226135D01*
D02*
G37*
G36*
X269610Y147220D02*
X262090D01*
Y139700D01*
X269610D01*
Y147220D01*
D02*
G37*
G36*
X259550D02*
X252030D01*
Y139700D01*
X259550D01*
Y147220D01*
D02*
G37*
G36*
X434340Y163147D02*
X431953Y162833D01*
X429729Y161911D01*
X427818Y160446D01*
X426353Y158535D01*
X425431Y156311D01*
X425117Y153924D01*
Y140716D01*
X425431Y138329D01*
X426353Y136105D01*
X427818Y134194D01*
X429729Y132729D01*
X431953Y131807D01*
X434340Y131493D01*
X436727Y131807D01*
X438951Y132729D01*
X440862Y134194D01*
X442327Y136105D01*
X443249Y138329D01*
X443563Y140716D01*
Y153924D01*
X443249Y156311D01*
X442327Y158535D01*
X440862Y160446D01*
X438951Y161911D01*
X436727Y162833D01*
X434340Y163147D01*
D02*
G37*
G36*
X408940D02*
X406553Y162833D01*
X404329Y161911D01*
X402418Y160446D01*
X400953Y158535D01*
X400031Y156311D01*
X399717Y153924D01*
Y140716D01*
X400031Y138329D01*
X400953Y136105D01*
X402418Y134194D01*
X404329Y132729D01*
X406553Y131807D01*
X408940Y131493D01*
X411327Y131807D01*
X413551Y132729D01*
X415462Y134194D01*
X416927Y136105D01*
X417849Y138329D01*
X418163Y140716D01*
Y153924D01*
X417849Y156311D01*
X416927Y158535D01*
X415462Y160446D01*
X413551Y161911D01*
X411327Y162833D01*
X408940Y163147D01*
D02*
G37*
G36*
X307340D02*
X304953Y162833D01*
X302729Y161911D01*
X300818Y160446D01*
X299353Y158535D01*
X298431Y156311D01*
X298117Y153924D01*
Y140716D01*
X298431Y138329D01*
X299353Y136105D01*
X300818Y134194D01*
X302729Y132729D01*
X304953Y131807D01*
X307340Y131493D01*
X309727Y131807D01*
X311951Y132729D01*
X313862Y134194D01*
X315327Y136105D01*
X316249Y138329D01*
X316563Y140716D01*
Y153924D01*
X316249Y156311D01*
X315327Y158535D01*
X313862Y160446D01*
X311951Y161911D01*
X309727Y162833D01*
X307340Y163147D01*
D02*
G37*
G36*
X269610Y137160D02*
X262090D01*
Y129640D01*
X269610D01*
Y137160D01*
D02*
G37*
G36*
X259550D02*
X252030D01*
Y129640D01*
X259550D01*
Y137160D01*
D02*
G37*
G36*
X160820Y147296D02*
X158525Y146994D01*
X156387Y146108D01*
X154551Y144699D01*
X153142Y142863D01*
X152256Y140725D01*
X151954Y138430D01*
X152256Y136135D01*
X153142Y133997D01*
X154551Y132161D01*
X156387Y130752D01*
X158525Y129866D01*
X160820Y129564D01*
X163115Y129866D01*
X165253Y130752D01*
X167089Y132161D01*
X168498Y133997D01*
X169384Y136135D01*
X169686Y138430D01*
X169384Y140725D01*
X168498Y142863D01*
X167089Y144699D01*
X165253Y146108D01*
X163115Y146994D01*
X160820Y147296D01*
D02*
G37*
G36*
X67310Y145657D02*
X64679Y145311D01*
X62227Y144295D01*
X60121Y142679D01*
X58505Y140574D01*
X57490Y138122D01*
X57143Y135490D01*
X57490Y132859D01*
X58505Y130407D01*
X60121Y128301D01*
X62227Y126685D01*
X64679Y125670D01*
X67310Y125323D01*
X69941Y125670D01*
X72393Y126685D01*
X74499Y128301D01*
X76115Y130407D01*
X77130Y132859D01*
X77477Y135490D01*
X77130Y138122D01*
X76115Y140574D01*
X74499Y142679D01*
X72393Y144295D01*
X69941Y145311D01*
X67310Y145657D01*
D02*
G37*
G36*
X732585Y144434D02*
X722835D01*
X720899Y144179D01*
X719096Y143432D01*
X717547Y142243D01*
X716358Y140695D01*
X715611Y138891D01*
X715356Y136955D01*
Y127205D01*
X715611Y125269D01*
X716358Y123465D01*
X717547Y121917D01*
X719096Y120728D01*
X720899Y119981D01*
X722835Y119726D01*
X732585D01*
X734521Y119981D01*
X736324Y120728D01*
X737873Y121917D01*
X739062Y123465D01*
X739809Y125269D01*
X740064Y127205D01*
Y136955D01*
X739809Y138891D01*
X739062Y140695D01*
X737873Y142243D01*
X736324Y143432D01*
X734521Y144179D01*
X732585Y144434D01*
D02*
G37*
G36*
X578113Y116840D02*
X570230D01*
Y108957D01*
X572210D01*
X574469Y109406D01*
X576384Y110686D01*
X577664Y112601D01*
X578113Y114860D01*
Y116840D01*
D02*
G37*
G36*
X567690D02*
X559807D01*
Y114860D01*
X560256Y112601D01*
X561536Y110686D01*
X563451Y109406D01*
X565710Y108957D01*
X567690D01*
Y116840D01*
D02*
G37*
G36*
X728980Y94309D02*
Y83350D01*
X739939D01*
X739684Y85288D01*
X738445Y88278D01*
X736475Y90845D01*
X733908Y92815D01*
X730918Y94054D01*
X728980Y94309D01*
D02*
G37*
G36*
X726440D02*
X724502Y94054D01*
X721512Y92815D01*
X718945Y90845D01*
X716975Y88278D01*
X715736Y85288D01*
X715481Y83350D01*
X726440D01*
Y94309D01*
D02*
G37*
G36*
X92310Y95657D02*
X89679Y95310D01*
X87227Y94295D01*
X85121Y92679D01*
X83505Y90573D01*
X82490Y88121D01*
X82143Y85490D01*
X82490Y82858D01*
X83505Y80406D01*
X85121Y78301D01*
X87227Y76685D01*
X89679Y75669D01*
X92310Y75323D01*
X94942Y75669D01*
X97394Y76685D01*
X99499Y78301D01*
X101115Y80406D01*
X102131Y82858D01*
X102477Y85490D01*
X102131Y88121D01*
X101115Y90573D01*
X99499Y92679D01*
X97394Y94295D01*
X94942Y95310D01*
X92310Y95657D01*
D02*
G37*
G36*
X568960Y107228D02*
X566600Y106917D01*
X564401Y106006D01*
X562513Y104557D01*
X561064Y102669D01*
X560153Y100470D01*
X559842Y98110D01*
X560153Y95750D01*
X561064Y93551D01*
X562513Y91663D01*
X564401Y90214D01*
X565075Y89934D01*
Y86699D01*
X553381Y75005D01*
X519763D01*
Y77724D01*
X519449Y80111D01*
X518527Y82335D01*
X517062Y84246D01*
X515151Y85711D01*
X512927Y86633D01*
X510540Y86947D01*
X508153Y86633D01*
X505929Y85711D01*
X504018Y84246D01*
X502553Y82335D01*
X501631Y80111D01*
X501317Y77724D01*
Y64516D01*
X501631Y62129D01*
X502553Y59905D01*
X504018Y57994D01*
X505929Y56529D01*
X508153Y55607D01*
X510540Y55293D01*
X512927Y55607D01*
X515151Y56529D01*
X517062Y57994D01*
X518527Y59905D01*
X519449Y62129D01*
X519763Y64516D01*
Y67235D01*
X554990D01*
X556477Y67531D01*
X557737Y68373D01*
X571707Y82343D01*
X572549Y83603D01*
X572845Y85090D01*
Y89934D01*
X573519Y90214D01*
X575407Y91663D01*
X576856Y93551D01*
X577767Y95750D01*
X578078Y98110D01*
X577767Y100470D01*
X576856Y102669D01*
X575407Y104557D01*
X573519Y106006D01*
X571320Y106917D01*
X568960Y107228D01*
D02*
G37*
G36*
X486410Y86780D02*
Y72390D01*
X494363D01*
Y77724D01*
X494049Y80111D01*
X493127Y82335D01*
X491662Y84246D01*
X489751Y85711D01*
X487527Y86633D01*
X486410Y86780D01*
D02*
G37*
G36*
X384810D02*
Y72390D01*
X392763D01*
Y77724D01*
X392449Y80111D01*
X391527Y82335D01*
X390062Y84246D01*
X388151Y85711D01*
X385927Y86633D01*
X384810Y86780D01*
D02*
G37*
G36*
X334010D02*
Y72390D01*
X341963D01*
Y77724D01*
X341649Y80111D01*
X340727Y82335D01*
X339262Y84246D01*
X337351Y85711D01*
X335127Y86633D01*
X334010Y86780D01*
D02*
G37*
G36*
X382270D02*
X381153Y86633D01*
X378929Y85711D01*
X377018Y84246D01*
X375553Y82335D01*
X374631Y80111D01*
X374317Y77724D01*
Y72390D01*
X382270D01*
Y86780D01*
D02*
G37*
G36*
X483870D02*
X482753Y86633D01*
X480529Y85711D01*
X478618Y84246D01*
X477153Y82335D01*
X476231Y80111D01*
X475917Y77724D01*
Y72390D01*
X483870D01*
Y86780D01*
D02*
G37*
G36*
X331470D02*
X330353Y86633D01*
X328129Y85711D01*
X326218Y84246D01*
X324753Y82335D01*
X323831Y80111D01*
X323517Y77724D01*
Y72390D01*
X331470D01*
Y86780D01*
D02*
G37*
G36*
X163360Y87606D02*
X161065Y87304D01*
X158927Y86418D01*
X157091Y85009D01*
X155682Y83173D01*
X154796Y81035D01*
X154494Y78740D01*
X154796Y76445D01*
X155682Y74307D01*
X157091Y72471D01*
X158927Y71062D01*
X161065Y70176D01*
X163360Y69874D01*
X165655Y70176D01*
X167793Y71062D01*
X169629Y72471D01*
X171038Y74307D01*
X171924Y76445D01*
X172226Y78740D01*
X171924Y81035D01*
X171038Y83173D01*
X169629Y85009D01*
X167793Y86418D01*
X165655Y87304D01*
X163360Y87606D01*
D02*
G37*
G36*
X739939Y80810D02*
X728980D01*
Y69851D01*
X730918Y70106D01*
X733908Y71345D01*
X736475Y73315D01*
X738445Y75882D01*
X739684Y78872D01*
X739939Y80810D01*
D02*
G37*
G36*
X726440D02*
X715481D01*
X715736Y78872D01*
X716975Y75882D01*
X718945Y73315D01*
X721512Y71345D01*
X724502Y70106D01*
X726440Y69851D01*
Y80810D01*
D02*
G37*
G36*
X341963Y69850D02*
X334010D01*
Y55460D01*
X335127Y55607D01*
X337351Y56529D01*
X339262Y57994D01*
X340727Y59905D01*
X341649Y62129D01*
X341963Y64516D01*
Y69850D01*
D02*
G37*
G36*
X494363D02*
X486410D01*
Y55460D01*
X487527Y55607D01*
X489751Y56529D01*
X491662Y57994D01*
X493127Y59905D01*
X494049Y62129D01*
X494363Y64516D01*
Y69850D01*
D02*
G37*
G36*
X392763D02*
X384810D01*
Y55460D01*
X385927Y55607D01*
X388151Y56529D01*
X390062Y57994D01*
X391527Y59905D01*
X392449Y62129D01*
X392763Y64516D01*
Y69850D01*
D02*
G37*
G36*
X382270D02*
X374317D01*
Y64516D01*
X374631Y62129D01*
X375553Y59905D01*
X377018Y57994D01*
X378929Y56529D01*
X381153Y55607D01*
X382270Y55460D01*
Y69850D01*
D02*
G37*
G36*
X483870D02*
X475917D01*
Y64516D01*
X476231Y62129D01*
X477153Y59905D01*
X478618Y57994D01*
X480529Y56529D01*
X482753Y55607D01*
X483870Y55460D01*
Y69850D01*
D02*
G37*
G36*
X331470D02*
X323517D01*
Y64516D01*
X323831Y62129D01*
X324753Y59905D01*
X326218Y57994D01*
X328129Y56529D01*
X330353Y55607D01*
X331470Y55460D01*
Y69850D01*
D02*
G37*
G36*
X408940Y86947D02*
X406553Y86633D01*
X404329Y85711D01*
X402418Y84246D01*
X400953Y82335D01*
X400031Y80111D01*
X399717Y77724D01*
Y64516D01*
X400031Y62129D01*
X400953Y59905D01*
X402418Y57994D01*
X404329Y56529D01*
X406553Y55607D01*
X408940Y55293D01*
X411327Y55607D01*
X413551Y56529D01*
X415462Y57994D01*
X416927Y59905D01*
X417849Y62129D01*
X418163Y64516D01*
Y77724D01*
X417849Y80111D01*
X416927Y82335D01*
X415462Y84246D01*
X413551Y85711D01*
X411327Y86633D01*
X408940Y86947D01*
D02*
G37*
G36*
X358140D02*
X355753Y86633D01*
X353529Y85711D01*
X351618Y84246D01*
X350153Y82335D01*
X349231Y80111D01*
X348917Y77724D01*
Y64516D01*
X349231Y62129D01*
X350153Y59905D01*
X351618Y57994D01*
X353529Y56529D01*
X355753Y55607D01*
X358140Y55293D01*
X360527Y55607D01*
X362751Y56529D01*
X364662Y57994D01*
X366127Y59905D01*
X367049Y62129D01*
X367363Y64516D01*
Y77724D01*
X367049Y80111D01*
X366127Y82335D01*
X364662Y84246D01*
X362751Y85711D01*
X360527Y86633D01*
X358140Y86947D01*
D02*
G37*
G36*
X120650Y220947D02*
X118029Y220602D01*
X115587Y219590D01*
X113489Y217981D01*
X111880Y215883D01*
X110868Y213441D01*
X110523Y210820D01*
X110868Y208199D01*
X111880Y205757D01*
X113489Y203659D01*
X115587Y202050D01*
X118029Y201038D01*
X120650Y200693D01*
X123271Y201038D01*
X124450Y201527D01*
X224583Y101393D01*
X225843Y100551D01*
X227330Y100255D01*
X287951D01*
X301915Y86291D01*
X301832Y85024D01*
X300818Y84246D01*
X299353Y82335D01*
X298431Y80111D01*
X298117Y77724D01*
Y64516D01*
X298431Y62129D01*
X299353Y59905D01*
X300818Y57994D01*
X302729Y56529D01*
X304953Y55607D01*
X307340Y55293D01*
X309727Y55607D01*
X311951Y56529D01*
X313862Y57994D01*
X315327Y59905D01*
X316249Y62129D01*
X316563Y64516D01*
Y77724D01*
X316249Y80111D01*
X315327Y82335D01*
X313862Y84246D01*
X311951Y85711D01*
X311225Y86012D01*
Y86360D01*
X310929Y87847D01*
X310087Y89107D01*
X292307Y106887D01*
X291047Y107729D01*
X289560Y108025D01*
X228939D01*
X129943Y207020D01*
X130432Y208199D01*
X130777Y210820D01*
X130432Y213441D01*
X129420Y215883D01*
X127811Y217981D01*
X125713Y219590D01*
X123271Y220602D01*
X120650Y220947D01*
D02*
G37*
G36*
X636170Y59120D02*
X628650D01*
Y51600D01*
X636170D01*
Y59120D01*
D02*
G37*
G36*
X626110D02*
X618590D01*
Y51600D01*
X626110D01*
Y59120D01*
D02*
G37*
G36*
X636170Y49060D02*
X628650D01*
Y41540D01*
X636170D01*
Y49060D01*
D02*
G37*
G36*
X626110D02*
X618590D01*
Y41540D01*
X626110D01*
Y49060D01*
D02*
G37*
G36*
X52390Y95570D02*
X32230D01*
Y75410D01*
X46896D01*
X82381Y39925D01*
X83641Y39083D01*
X85128Y38787D01*
X227292D01*
X228778Y39083D01*
X230039Y39925D01*
X260064Y69950D01*
X272150D01*
Y87530D01*
X254570D01*
Y75444D01*
X225683Y46557D01*
X86737D01*
X52390Y80904D01*
Y95570D01*
D02*
G37*
%LPD*%
D13*
X654304Y205994D02*
Y210820D01*
X510540Y146385D02*
X594695D01*
X659130Y82080D02*
X727710D01*
X627380Y50330D02*
X659130Y82080D01*
X365506Y89154D02*
X383540Y71120D01*
X350774Y89154D02*
X365506D01*
X332740Y71120D02*
X350774Y89154D01*
X42310Y85490D02*
X85128Y42672D01*
X227292D01*
X263360Y78740D01*
X200660Y222250D02*
X212090Y210820D01*
X157480Y222250D02*
X200660D01*
X146050Y210820D02*
X157480Y222250D01*
X478790D02*
X490220Y210820D01*
X434340Y222250D02*
X478790D01*
X422910Y210820D02*
X434340Y222250D01*
X621030Y210820D02*
X632460Y222250D01*
X675640D01*
X687070Y210820D01*
X544830Y222250D02*
X556260Y210820D01*
X501650Y222250D02*
X544830D01*
X490220Y210820D02*
X501650Y222250D01*
X556260Y210820D02*
X567690Y222250D01*
X609600D01*
X621030Y210820D01*
X276860Y222250D02*
X288290Y210820D01*
X223520Y222250D02*
X276860D01*
X212090Y210820D02*
X223520Y222250D01*
X353060Y210820D02*
X364490Y222250D01*
X411480D01*
X422910Y210820D01*
X341630Y222250D02*
X353060Y210820D01*
X299720Y222250D02*
X341630D01*
X288290Y210820D02*
X299720Y222250D01*
X260820Y138430D02*
X290030Y109220D01*
X320040D01*
X332740Y96520D01*
Y71120D02*
Y96520D01*
X307340Y71120D02*
Y86360D01*
X289560Y104140D02*
X307340Y86360D01*
X227330Y104140D02*
X289560D01*
X120650Y210820D02*
X227330Y104140D01*
X383540Y147320D02*
Y161036D01*
X381000Y163576D02*
X383540Y161036D01*
X374904Y163576D02*
X381000D01*
X327660Y210820D02*
X374904Y163576D01*
X332740Y147320D02*
Y166370D01*
X321056Y178054D02*
X332740Y166370D01*
X219456Y178054D02*
X321056D01*
X186690Y210820D02*
X219456Y178054D01*
X654304Y210820D02*
X661670D01*
X594695Y146385D02*
X654304Y205994D01*
X510540Y146385D02*
Y147320D01*
X515112Y195072D02*
X530860Y210820D01*
X472440Y195072D02*
X515112D01*
X459740Y182372D02*
X472440Y195072D01*
X459740Y147320D02*
Y182372D01*
X348234Y147320D02*
X358140D01*
X348234D02*
Y169926D01*
X323088Y195072D02*
X348234Y169926D01*
X278638Y195072D02*
X323088D01*
X262890Y210820D02*
X278638Y195072D01*
X563880Y179070D02*
X595630Y210820D01*
X497840Y179070D02*
X563880D01*
X485140Y166370D02*
X497840Y179070D01*
X485140Y147320D02*
Y166370D01*
X532130Y118110D02*
X568960D01*
X485140Y71120D02*
X532130Y118110D01*
X606336Y129286D02*
X627380Y150330D01*
X472440Y129286D02*
X606336D01*
X459740Y116586D02*
X472440Y129286D01*
X459740Y71120D02*
Y116586D01*
X568960Y85090D02*
Y98110D01*
X554990Y71120D02*
X568960Y85090D01*
X510540Y71120D02*
X554990D01*
X485140Y54610D02*
Y71120D01*
X472948Y42418D02*
X485140Y54610D01*
X395732Y42418D02*
X472948D01*
X383540Y54610D02*
X395732Y42418D01*
X383540Y54610D02*
Y71120D01*
X434340D02*
X459740D01*
D16*
X627380Y150330D02*
D03*
X163360Y78740D02*
D03*
X160820Y138430D02*
D03*
D17*
X627380Y50330D02*
D03*
D18*
X263360Y78740D02*
D03*
X260820Y138430D02*
D03*
D25*
X307340Y147320D02*
D03*
X332740D02*
D03*
X358140D02*
D03*
X383540D02*
D03*
X434340D02*
D03*
X459740D02*
D03*
X485140D02*
D03*
X510540D02*
D03*
Y71120D02*
D03*
X408940D02*
D03*
X434340D02*
D03*
X383540D02*
D03*
X358140D02*
D03*
X485140D02*
D03*
X459740D02*
D03*
X332740D02*
D03*
X307340D02*
D03*
X408940Y147320D02*
D03*
D26*
X530860Y210820D02*
D03*
X556260D02*
D03*
X327660D02*
D03*
X353060D02*
D03*
X262890D02*
D03*
X288290D02*
D03*
X397510D02*
D03*
X422910D02*
D03*
X464820D02*
D03*
X490220D02*
D03*
X595630D02*
D03*
X621030D02*
D03*
X661670D02*
D03*
X687070D02*
D03*
X120650D02*
D03*
X146050D02*
D03*
X186690D02*
D03*
X212090D02*
D03*
D27*
X727710Y82080D02*
D03*
D28*
Y132080D02*
D03*
D29*
X568960Y98110D02*
D03*
D30*
Y118110D02*
D03*
D31*
X42310Y85490D02*
D03*
D32*
X67310Y135490D02*
D03*
X92310Y85490D02*
D03*
M02*
