M48
;Layer_Color=9474304
;FILE_FORMAT=4:4
METRIC,LZ
;TYPE=PLATED
T01F00S00C0.7500
T02F00S00C0.7800
T03F00S00C1.0000
%
T01
X0057197Y0006223
X0056689Y0013208
X0046689
X0047197Y0006223
X003937Y0009921
X003683Y0012461
X003429Y0009921
X0046562Y0020701
X0056562
T02
X0018255Y0006223
Y0008763
Y0011303
Y0013843
X0026195
Y0011303
Y0008763
Y0006223
T03
X00660398Y00062231
Y00087632
X00659128Y00173992
X00236222Y00214632
X00210821
X00659128Y00199391
M30
