M48
;Layer_Color=9474304
;FILE_FORMAT=4:4
METRIC,LZ
;TYPE=PLATED
T01F00S00C0.7500
T02F00S00C0.8000
T03F00S00C0.8128
T04F00S00C1.0000
T05F00S00C1.3000
%
T01
X0016336Y0007874
X0016082Y0013843
X0026082
X0026336Y0007874
X0062738Y0005033
Y0015033
T02
X0056896Y0009811
Y0011811
T03
X0030734Y0007112
X0033274
X0035814
X0038354
X0040894
X0043434
X0045974
X0048514
X0051054
Y0014732
X0048514
X0045974
X0043434
X0040894
X0038354
X0035814
X0033274
X0030734
T04
X0004231Y0008549
X0009231
X0006731Y0013549
X0012065Y0021082
X0014605
X0018669
X0021209
X0026289
X0028829
X0032766
X0035306
X0039751
X0042291
X0046482
X0049022
X0053086
X0055626
X0059563
X0062103
X0066167
X0068707
T05
X0072771Y0008208
Y0013208
M30
