M48
;Layer_Color=9474304
;FILE_FORMAT=4:4
METRIC,LZ
;TYPE=PLATED
T01F00S00C0.3000
T02F00S00C0.7000
T03F00S00C0.8500
T04F00S00C0.9000
T05F00S00C1.0000
T06F00S00C1.0200
T07F00S00C2.0000
%
T01
X002Y0014
X0013Y0018
X0034Y004
X0038
T02
X00195Y0018
X00245
X0024Y0022
Y0027
T03
X00311Y0019
X00315Y0025
X00405
X00409Y0019
X0046Y00321
Y00419
T04
X0017566Y0032184
Y0034724
X0025186
Y0032184
X0032Y003184
Y00293
Y003438
X003962
Y003184
Y00293
Y003692
Y003946
Y0042
Y004454
Y004708
X0032
Y004454
Y0042
Y003946
Y003692
X0025186Y0037264
Y0039804
X0017566
Y0037264
T05
X005354Y0011
X00587302Y00300002
X00612702
X0051Y0011
X00392702Y00050002
X00367302
X001954Y0009
X0017
X0005Y0028
X000246
X00027298Y00379998
X00052698
X0013Y0056
X001554
X0031Y0059
X003354
X0048Y0058
X005054
X006Y0046
X006254
T06
X002273Y0045
X002527
T07
X0063Y0003
X0002Y0002
Y0064
X0063
M30
