G04*
G04 #@! TF.GenerationSoftware,Altium Limited,Altium Designer,24.1.2 (44)*
G04*
G04 Layer_Physical_Order=1*
G04 Layer_Color=255*
%FSLAX44Y44*%
%MOMM*%
G71*
G04*
G04 #@! TF.SameCoordinates,B03C8ABC-75B2-450B-B10A-4746C9E6A5EE*
G04*
G04*
G04 #@! TF.FilePolarity,Positive*
G04*
G01*
G75*
%ADD14R,1.2000X1.4500*%
%ADD15R,1.0000X1.3000*%
%ADD16R,1.4500X1.2000*%
G04:AMPARAMS|DCode=17|XSize=0.6mm|YSize=1.45mm|CornerRadius=0.051mm|HoleSize=0mm|Usage=FLASHONLY|Rotation=0.000|XOffset=0mm|YOffset=0mm|HoleType=Round|Shape=RoundedRectangle|*
%AMROUNDEDRECTD17*
21,1,0.6000,1.3480,0,0,0.0*
21,1,0.4980,1.4500,0,0,0.0*
1,1,0.1020,0.2490,-0.6740*
1,1,0.1020,-0.2490,-0.6740*
1,1,0.1020,-0.2490,0.6740*
1,1,0.1020,0.2490,0.6740*
%
%ADD17ROUNDEDRECTD17*%
G04:AMPARAMS|DCode=18|XSize=2.4692mm|YSize=0.6221mm|CornerRadius=0.3111mm|HoleSize=0mm|Usage=FLASHONLY|Rotation=0.000|XOffset=0mm|YOffset=0mm|HoleType=Round|Shape=RoundedRectangle|*
%AMROUNDEDRECTD18*
21,1,2.4692,0.0000,0,0,0.0*
21,1,1.8470,0.6221,0,0,0.0*
1,1,0.6221,0.9235,0.0000*
1,1,0.6221,-0.9235,0.0000*
1,1,0.6221,-0.9235,0.0000*
1,1,0.6221,0.9235,0.0000*
%
%ADD18ROUNDEDRECTD18*%
%ADD19R,2.4692X0.6221*%
%ADD24C,1.2500*%
%ADD25R,1.2500X1.2500*%
%ADD26C,1.4500*%
%ADD27R,1.4500X1.4500*%
%ADD28C,1.5700*%
%ADD29R,1.5700X1.5700*%
%ADD30C,0.3810*%
%ADD31C,0.6000*%
D14*
X340000Y30000D02*
D03*
X360000D02*
D03*
Y65000D02*
D03*
X340000D02*
D03*
D15*
X527500Y30000D02*
D03*
X512500D02*
D03*
X527500Y60000D02*
D03*
X512500D02*
D03*
D16*
X575000Y150000D02*
D03*
Y130000D02*
D03*
X510000Y150000D02*
D03*
Y130000D02*
D03*
X445000Y150000D02*
D03*
Y130000D02*
D03*
X385000Y150000D02*
D03*
Y130000D02*
D03*
X325000Y150000D02*
D03*
Y130000D02*
D03*
X265000Y150000D02*
D03*
Y130000D02*
D03*
X205000Y150000D02*
D03*
Y130000D02*
D03*
X145000Y150000D02*
D03*
Y130000D02*
D03*
X85000Y150000D02*
D03*
Y130000D02*
D03*
X25000Y150000D02*
D03*
Y130000D02*
D03*
D17*
X289450Y77250D02*
D03*
X276750D02*
D03*
X264050D02*
D03*
X251350D02*
D03*
X238650D02*
D03*
X225950D02*
D03*
X213250D02*
D03*
X200550D02*
D03*
X289450Y22750D02*
D03*
X276750D02*
D03*
X264050D02*
D03*
X251350D02*
D03*
X238650D02*
D03*
X225950D02*
D03*
X213250D02*
D03*
X200550D02*
D03*
D18*
X464136Y64050D02*
D03*
Y51350D02*
D03*
Y38650D02*
D03*
Y25950D02*
D03*
X415864D02*
D03*
Y38650D02*
D03*
Y51350D02*
D03*
D19*
Y64050D02*
D03*
D24*
X65000Y85550D02*
D03*
X39600Y60150D02*
D03*
D25*
X90400D02*
D03*
D26*
X575000Y177300D02*
D03*
X510000D02*
D03*
X445000D02*
D03*
X385000D02*
D03*
X325000D02*
D03*
X265000D02*
D03*
X205000D02*
D03*
X145000D02*
D03*
X85000D02*
D03*
X25000D02*
D03*
D27*
X575000Y202700D02*
D03*
X510000D02*
D03*
X445000D02*
D03*
X385000D02*
D03*
X325000D02*
D03*
X265000D02*
D03*
X205000D02*
D03*
X145000D02*
D03*
X85000D02*
D03*
X25000D02*
D03*
D28*
X570000Y57700D02*
D03*
D29*
Y32300D02*
D03*
D30*
X238650Y77250D02*
Y126350D01*
X235000Y130000D02*
X238650Y126350D01*
X205000Y130000D02*
X235000D01*
X335905Y35000D02*
X340000Y30905D01*
X289450Y22750D02*
X301700Y35000D01*
X340000Y30000D02*
Y30905D01*
X301700Y35000D02*
X335905D01*
X340000Y16810D02*
Y28750D01*
Y16810D02*
X345000Y11810D01*
X368187D01*
X382327Y25950D01*
X415864D01*
X492768Y64050D02*
X495000Y61818D01*
X500000Y45000D02*
Y55000D01*
X495000Y60000D02*
X500000Y55000D01*
X464136Y64050D02*
X492768D01*
X495000Y60000D02*
Y61818D01*
X454113Y52138D02*
X463348D01*
X440000Y66251D02*
Y75000D01*
X463348Y52138D02*
X464136Y51350D01*
X440000Y66251D02*
X454113Y52138D01*
X527500Y60000D02*
X540000D01*
X512500D02*
Y85268D01*
X517232Y90000D01*
X512500Y30000D02*
Y60000D01*
X490000Y35000D02*
X500000Y45000D01*
Y14042D02*
Y45000D01*
Y14042D02*
X502232Y11810D01*
X340000Y50000D02*
Y65000D01*
X266282Y5000D02*
X380000D01*
X264050Y7232D02*
Y22750D01*
Y7232D02*
X266282Y5000D01*
X390000Y40000D02*
X410000D01*
X411114Y38650D02*
X415864D01*
X410000Y39764D02*
X411114Y38650D01*
X410000Y39764D02*
Y40000D01*
X340000Y90000D02*
X425000D01*
X325000Y75000D02*
X340000Y90000D01*
X320000Y60369D02*
X325000Y65369D01*
Y75000D01*
X320000Y60000D02*
Y60369D01*
X315000Y65000D02*
Y80000D01*
X305000Y55000D02*
X315000Y65000D01*
Y80000D02*
X335000Y100000D01*
X286690Y48190D02*
X308190D01*
X320000Y60000D01*
X276750Y38250D02*
X286690Y48190D01*
X266282Y55000D02*
X305000D01*
X305000Y64631D02*
Y85000D01*
X276750Y64042D02*
Y77250D01*
X302179Y61810D02*
X305000Y64631D01*
X278982Y61810D02*
X302179D01*
X276750Y64042D02*
X278982Y61810D01*
X360000Y65000D02*
Y65905D01*
X364095Y70000D01*
X380000D01*
X360000Y65000D02*
X360000Y65000D01*
X90400Y60150D02*
X124850D01*
X125000Y60000D01*
X124450Y85550D02*
X125000Y85000D01*
X65000Y85550D02*
X124450D01*
X490000Y12905D02*
Y35000D01*
X440000Y7232D02*
X442232Y5000D01*
X540000D01*
X440000Y38650D02*
X464136D01*
X437799D02*
X440000D01*
X502232Y11810D02*
X525268D01*
X527500Y14042D01*
Y30000D01*
X440000Y7232D02*
Y38650D01*
X415864Y9136D02*
X420000Y5000D01*
X415864Y9136D02*
Y25950D01*
Y80864D02*
X425000Y90000D01*
X517232D01*
X415864Y64050D02*
Y80864D01*
X570000Y57700D02*
X590468D01*
X595000Y62232D02*
Y200000D01*
X590468Y57700D02*
X595000Y62232D01*
X575000Y202700D02*
X592300D01*
X595000Y200000D01*
X517232Y90000D02*
X567768D01*
X570000Y87768D01*
Y58426D02*
Y87768D01*
X525000Y100000D02*
X555000Y130000D01*
X335000Y100000D02*
X525000D01*
X276750Y22750D02*
Y38250D01*
X272175Y42825D02*
X276750Y38250D01*
X255000Y42825D02*
X272175D01*
X251350Y22750D02*
Y39175D01*
X255000Y42825D01*
X250000Y60000D02*
X255000Y55000D01*
Y42825D02*
Y55000D01*
X202782Y60000D02*
X250000D01*
X200550Y62232D02*
Y77250D01*
Y62232D02*
X202782Y60000D01*
X304062Y127232D02*
Y152768D01*
X301831Y155000D02*
X304062Y152768D01*
X320905Y125905D02*
X325000Y130000D01*
X318328Y125905D02*
X320905D01*
X317423Y125000D02*
X318328Y125905D01*
X306294Y125000D02*
X317423D01*
X304062Y127232D02*
X306294Y125000D01*
X181125Y45000D02*
X200000D01*
X212543Y23457D02*
Y32457D01*
Y23457D02*
X213250Y22750D01*
X200000Y45000D02*
X212543Y32457D01*
X425000Y130000D02*
X445000D01*
X250000Y80000D02*
Y100000D01*
Y80000D02*
X250255D01*
X251350Y78905D01*
Y77250D02*
Y78905D01*
X165000Y25000D02*
Y75000D01*
X96250Y120000D02*
X120000D01*
X165000Y75000D01*
X147232Y115000D02*
X223718D01*
X145000Y117232D02*
X147232Y115000D01*
X145000Y117232D02*
Y130000D01*
X86250D02*
X96250Y120000D01*
X165000Y25000D02*
X167250Y22750D01*
X200550D01*
X85000Y130000D02*
X86250D01*
X365000D02*
X385000D01*
X225950Y77250D02*
Y112768D01*
X223718Y115000D02*
X225950Y112768D01*
X215000Y80000D02*
Y95000D01*
X213250Y77250D02*
Y78905D01*
X214345Y80000D02*
X215000D01*
X213250Y78905D02*
X214345Y80000D01*
X265000Y117768D02*
X289726Y93043D01*
X12232Y5000D02*
X212623D01*
X415864Y51350D02*
X425099D01*
X437799Y38650D01*
X527500Y30000D02*
X529800Y32300D01*
X570000D01*
X360000Y30000D02*
Y65000D01*
Y30000D02*
X360000D01*
X555000Y130000D02*
X575000D01*
X330000Y110000D02*
X502768D01*
X505000Y112232D01*
Y125905D01*
X264050Y57232D02*
X266282Y55000D01*
X264050Y57232D02*
Y77250D01*
X305000Y85000D02*
X330000Y110000D01*
X509095Y130000D02*
X510000D01*
X505000Y125905D02*
X509095Y130000D01*
X39600Y60150D02*
X65000Y85550D01*
X10000Y7232D02*
Y112768D01*
Y7232D02*
X12232Y5000D01*
X212623D02*
X224855Y17232D01*
X10000Y112768D02*
X12232Y115000D01*
X22768D01*
X224855Y21655D02*
X225950Y22750D01*
X224855Y17232D02*
Y21655D01*
X25000Y117232D02*
Y130000D01*
X22768Y115000D02*
X25000Y117232D01*
X265000Y117768D02*
Y130000D01*
X289450Y77250D02*
X289726Y77526D01*
Y93043D01*
X575000Y150000D02*
Y177300D01*
X510000Y150000D02*
Y177300D01*
X445000Y150000D02*
Y177300D01*
X385000Y150000D02*
Y177300D01*
X325000Y150000D02*
X325000Y150000D01*
X325000Y175000D02*
X325000Y175000D01*
X325000Y150000D02*
Y175000D01*
Y175000D02*
Y177300D01*
Y175000D02*
X325000Y175000D01*
X265000Y150000D02*
Y177300D01*
Y150000D02*
X265000Y150000D01*
X205000D02*
Y177300D01*
X145000Y150000D02*
Y177300D01*
X85000Y150000D02*
Y177300D01*
X25000Y150000D02*
Y177300D01*
X510000Y202700D02*
X575000D01*
X445000D02*
X510000D01*
X385000D02*
X445000D01*
X325000D02*
X385000D01*
X265000D02*
X325000D01*
X205000D02*
X265000D01*
X145000D02*
X205000D01*
X85000D02*
X145000D01*
X25000D02*
X85000D01*
D31*
X124850Y60150D02*
D03*
X440000Y75000D02*
D03*
X540000Y60000D02*
D03*
X125000Y85000D02*
D03*
X340000Y50000D02*
D03*
X390000Y40000D02*
D03*
X380000Y5000D02*
D03*
Y70000D02*
D03*
X540000Y5000D02*
D03*
X490000Y12905D02*
D03*
X420000Y5000D02*
D03*
X181125Y45000D02*
D03*
X301831Y155000D02*
D03*
X250000Y100000D02*
D03*
X425000Y130000D02*
D03*
X215000Y95000D02*
D03*
X365000Y130000D02*
D03*
M02*
